<?xml version="1.0" standalone="no"?>
<!DOCTYPE svg PUBLIC "-//W3C//DTD SVG 1.1//EN" "http://www.w3.org/Graphics/SVG/1.1/DTD/svg11.dtd" >
<svg>
<metadata>
Created by FontForge 20090914 at Wed Mar  3 18:23:52 2021
 By www-data
Copyright (c) 2002, 2006 Parachute&#194;&#168;, www.parachute.gr.  All rights reserved.
</metadata>
<defs>
<font id="PFBeauSansPro-Italic" horiz-adv-x="1818" >
  <font-face 
    font-family="PF BeauSans Pro"
    font-weight="400"
    font-style="italic"
    font-stretch="normal"
    units-per-em="1000"
    panose-1="2 0 5 0 0 0 0 9 0 4"
    ascent="750"
    descent="-250"
    x-height="525"
    cap-height="700.999"
    bbox="-176.781 -278.004 1760 919"
    underline-thickness="50"
    underline-position="-100"
    slope="-8"
    unicode-range="U+0020-U+FB05"
  />
<missing-glyph horiz-adv-x="442" 
d="M0 700h442v-700h-442v700zM356 54l-135 247l-136 -247h271zM356 646h-271l136 -247zM53 104l136 246l-136 246v-492zM388 104v493l-136 -247z" />
    <glyph glyph-name="fj" unicode="fj" horiz-adv-x="536" 
d="M464 70c-6.66699 -46.667 -15.666 -86.4971 -26.999 -119.497s-25.833 -60.667 -43.5 -83s-38.5 -40.5 -62.5 -54.5s-52 -25 -84 -33c-9.33301 -2.66699 -14.666 0 -15.999 8l-16 51c-0.666992 8 3.33301 13.667 12 17c28.667 10 52 21.5 70 34.5s32.5 27.667 43.5 44
s19.167 34.333 24.5 54s9.66602 41.5 12.999 65.5l49 402h-210l-76 -614c-0.666992 -6.66699 -2.16699 -11.334 -4.5 -14.001s-6.16602 -5 -11.499 -7l-66 -21c-12 -5.33301 -17 -0.333008 -15 15l89 641h-73c-6 0 -9.66699 1.33301 -11 4s-1.33301 6 0 10l3 23
c0.666992 5.33301 2 9.16602 4 11.499s6 4.16602 12 5.49902l75 14l7 51c3.33301 23.333 9.66602 44.833 18.999 64.5s22.166 36.667 38.499 51s36.5 25.5 60.5 33.5s53 12 87 12c6 0 14 -0.166992 24 -0.5s21.333 -1.16602 34 -2.49902s26.167 -3.33301 40.5 -6
s28.833 -6.33398 43.5 -11.001c3.33301 -1.33301 5.16602 -3.33301 5.49902 -6s-0.166992 -6 -1.5 -10l-11 -44c-1.33301 -5.33301 -3.33301 -8.5 -6 -9.5s-6 -0.833008 -10 0.5c-10.667 2.66699 -22.167 4.83398 -34.5 6.50098s-24.166 3 -35.499 4
s-21.666 1.83301 -30.999 2.5s-16.333 1 -21 1c-22 0 -40 -2.33301 -54 -7s-25.5 -11 -34.5 -19s-15.5 -17 -19.5 -27s-7 -20.333 -9 -31l-7 -52h278c5.33301 0 9.16602 -0.833008 11.499 -2.5s2.83301 -5.83398 1.5 -12.501l-55 -440v0z" />
    <glyph glyph-name="ffj" unicode="ffj" horiz-adv-x="814" 
d="M419 -106c-1.33301 -6.66699 -3 -11.3301 -5 -13.9971s-5.66699 -5 -11 -7l-60 -21c-12 -4 -17 0.333008 -15 13l83 590h-195l-81 -613c-2 -10.667 -7.33301 -17.334 -16 -20.001l-61 -21c-5.33301 -2 -9.5 -2.5 -12.5 -1.5s-3.83301 5.16699 -2.5 12.5l90 643h-73
c-9.33301 0 -13.333 4 -12 12l4 21c1.33301 7.33301 2.66602 12.333 3.99902 15s5.66602 4.66699 12.999 6l73 15c1.33301 6.66699 2.5 13.334 3.5 20.001s2.16699 13.334 3.5 20.001c4 23.333 10.667 44.666 20 63.999s22.166 36 38.499 50s36.5 25 60.5 33
s52.333 12 85 12c17.333 0 39 -1.5 65 -4.5s53 -8.16699 81 -15.5c17.333 11.333 36.666 20.166 57.999 26.499s47 9.5 77 9.5c15.333 0 36 -1.33301 62 -4s53 -8 81 -16c5.33301 -1.33301 7.83301 -3.5 7.5 -6.5s-1.16602 -6.16699 -2.49902 -9.5l-13 -45
c-1.33301 -5.33301 -3.16602 -8.33301 -5.49902 -9s-5.83301 -0.333984 -10.5 0.999023c-10.667 2 -22 4 -34 6s-23.667 3.5 -35 4.5s-21.666 1.83301 -30.999 2.5s-16.666 1 -21.999 1c-21.333 0 -39.166 -2.33301 -53.499 -7s-26 -11 -35 -19s-15.667 -17 -20 -27
s-7.5 -20.333 -9.5 -31l-9 -55h278c5.33301 0 9.16602 -0.833008 11.499 -2.5s2.83301 -5.83398 1.5 -12.501l-55 -440c-6.66699 -46.667 -15.667 -86.5 -27 -119.5s-25.833 -60.667 -43.5 -83s-38.5 -40.5 -62.5 -54.5s-52 -25 -84 -33
c-9.33301 -2.66699 -14.666 0 -15.999 8l-16 51c-0.666992 8 3.33301 13.667 12 17c28.667 10 52 21.5 70 34.5s32.5 27.667 43.5 44s19.167 34.333 24.5 54s9.66602 41.5 12.999 65.5l49 402h-210zM227 525.004l194.001 0.000976562l8 53
c1.33301 11.333 3.66602 22.166 6.99902 32.499s7 20.166 11 29.499c-18.667 2.66699 -36.667 4.66699 -54 6s-30.333 2 -39 2c-22.667 0 -41.5 -2.33301 -56.5 -7s-27 -11 -36 -19s-15.5 -17.167 -19.5 -27.5s-7 -21.166 -9 -32.499z" />
    <glyph glyph-name="ff" unicode="ff" horiz-adv-x="607" 
d="M419 -106c-1.33301 -6.66699 -3.00098 -11.332 -5.00098 -13.999s-5.66699 -5 -11 -7l-60 -21c-12 -4 -17 0.333008 -15 13l83 590h-195l-81 -613c-2 -10.667 -7.33301 -17.334 -16 -20.001l-61 -21c-5.33301 -2 -9.5 -2.5 -12.5 -1.5s-3.83301 5.16699 -2.5 12.5l90 643
h-73c-6 0 -9.66699 1.33301 -11 4s-1.66602 5.66699 -0.999023 9l3 25c0.666992 8.66699 6 14 16 16l75 15l7 42c4 24 10.5 45.833 19.5 65.5s21.667 36.5 38 50.5s36.666 25 60.999 33s53.166 12 86.499 12c11.333 0 29.333 -1.16699 54 -3.5s51.334 -6.83301 80.001 -13.5
c26.667 20.667 61.667 31 105 31c15.333 0 31 -1 47 -3s31 -5.33301 45 -10c4.66699 -2 7 -4.33301 7 -7s-0.666992 -5.66699 -2 -9l-12 -46c-1.33301 -5.33301 -3.33301 -8 -6 -8h-9c-27.333 4 -50.333 6 -69 6c-26 0 -44.833 -6.16699 -56.5 -18.5
s-19.167 -27.833 -22.5 -46.5l-10 -74h123c7.33301 0 11.5 -1.16699 12.5 -3.5s1.16699 -5.83301 0.5 -10.5l-6 -42c-1.33301 -9.33301 -6.66602 -14 -15.999 -14h-124zM226.999 525.002h192.998l11 72c1.33301 8.66699 2.83301 16.834 4.5 24.501
s3.83398 15.167 6.50098 22.5c-18 3.33301 -35.333 5.66602 -52 6.99902s-29 2 -37 2c-22 0 -40.333 -2.33301 -55 -7s-26.5 -11 -35.5 -19s-15.667 -17.167 -20 -27.5s-7.16602 -20.833 -8.49902 -31.5z" />
    <glyph glyph-name="fi" unicode="fi" horiz-adv-x="536" 
d="M60 456c-6 0 -9.66992 1.33398 -11.0029 4.00098s-1.33301 6 0 10l3 23c0.666992 5.33301 2 9.16602 4 11.499s6 4.16602 12 5.49902l75 14l7 51c3.33301 23.333 9.66602 44.833 18.999 64.5s22.166 36.667 38.499 51s36.5 25.5 60.5 33.5s53 12 87 12
c6 0 14 -0.166992 24 -0.5s21.333 -1.16602 34 -2.49902s26.167 -3.33301 40.5 -6s28.833 -6.33398 43.5 -11.001c3.33301 -1.33301 5.16602 -3.33301 5.49902 -6s-0.166992 -6 -1.5 -10l-11 -44c-1.33301 -5.33301 -3.33301 -8.5 -6 -9.5s-6 -0.833008 -10 0.5
c-10.667 2.66699 -22.167 4.83398 -34.5 6.50098s-24.166 3 -35.499 4s-21.666 1.83301 -30.999 2.5s-16.333 1 -21 1c-22 0 -40 -2.33301 -54 -7s-25.5 -11 -34.5 -19s-15.5 -17 -19.5 -27s-7 -20.333 -9 -31l-7 -52h278c6 0 9.83301 -1.16699 11.5 -3.5
s2.16699 -6.16602 1.5 -11.499l-70 -495c-1.33301 -6.66699 -3.16602 -10.834 -5.49902 -12.501s-6.5 -2.5 -12.5 -2.5h-53c-5.33301 -0 -9.16602 0.833008 -11.499 2.5s-3.16602 5.83398 -2.49902 12.501l62 441h-209l-82 -614
c-0.666992 -6.66699 -2.16699 -11.334 -4.5 -14.001s-6.16602 -5 -11.499 -7l-60 -21c-12 -5.33301 -17 -0.333008 -15 15l89 641h-73z" />
    <glyph glyph-name="fl" unicode="fl" horiz-adv-x="579" 
d="M454 653c-20.667 3.33301 -40.3281 6.00195 -58.9951 8.00195s-32.667 3 -42 3c-22 0 -40.167 -2.33301 -54.5 -7s-26 -11 -35 -19s-15.5 -17.167 -19.5 -27.5s-7 -20.833 -9 -31.5l-7 -54h129c6 0 9.66699 -1.33301 11 -4s2 -6.33398 2 -11.001l-6 -40
c-1.33301 -5.33301 -2.83301 -9 -4.5 -11s-5.83398 -3 -12.501 -3h-130l-82 -614c-0.666992 -6.66699 -2.16699 -11.334 -4.5 -14.001s-6.16602 -5 -11.499 -7l-60 -21c-12 -5.33301 -17 -0.333008 -15 15l89 641h-73c-6 0 -9.66699 1.33301 -11 4s-1.33301 6 0 10l3 23
c0.666992 5.33301 2 9.16602 4 11.499s6 4.16602 12 5.49902l75 14l7 53c3.33301 23.333 9.66602 44.833 18.999 64.5s22.166 36.667 38.499 51s36.666 25.5 60.999 33.5s53.5 12 87.5 12c10.667 0 28.667 -1 54 -3s51.333 -6.66699 78 -14l47 12
c5.33301 0 9.16602 -0.833008 11.499 -2.5s2.83301 -5.83398 1.5 -12.501l-85 -604c-2.66699 -19.333 -2.16699 -31.5 1.5 -36.5s12.167 -7.5 25.5 -7.5c6 0 12 0.166992 18 0.5s11.667 0.833008 17 1.5c6.66699 0.666992 10.667 -2.66602 12 -9.99902l7 -42
c1.33301 -9.33301 -2.66699 -15.666 -12 -18.999c-15.333 -5.33301 -30.333 -8.66602 -45 -9.99902s-27.334 -2 -38.001 -2c-32.667 0 -54.5 8.16699 -65.5 24.5s-14.167 41.5 -9.5 75.5z" />
    <glyph glyph-name="ffi" unicode="ffi" horiz-adv-x="814" 
d="M419 -106c-1.33301 -6.66699 -3.00293 -11.3311 -5.00293 -13.998s-5.66699 -5 -11 -7l-60 -21c-12 -4 -17 0.333008 -15 13l83 590h-195l-81 -613c-2 -10.667 -7.33301 -17.334 -16 -20.001l-61 -21c-5.33301 -2 -9.5 -2.5 -12.5 -1.5s-3.83301 5.16699 -2.5 12.5
l90 643h-73c-9.33301 0 -13.333 4 -12 12l4 21c1.33301 7.33301 2.66602 12.333 3.99902 15s5.66602 4.66699 12.999 6l73 15c1.33301 6.66699 2.5 13.334 3.5 20.001s2.16699 13.334 3.5 20.001c4 23.333 10.667 44.666 20 63.999s22.166 36 38.499 50s36.5 25 60.5 33
s52.333 12 85 12c17.333 0 39 -1.5 65 -4.5s53 -8.16699 81 -15.5c17.333 11.333 36.666 20.166 57.999 26.499s47 9.5 77 9.5c15.333 0 36 -1.33301 62 -4s53 -8 81 -16c5.33301 -1.33301 7.83301 -3.5 7.5 -6.5s-1.16602 -6.16699 -2.49902 -9.5l-13 -45
c-1.33301 -5.33301 -3.16602 -8.33301 -5.49902 -9s-5.83301 -0.333984 -10.5 0.999023c-10.667 2 -22 4 -34 6s-23.667 3.5 -35 4.5s-21.666 1.83301 -30.999 2.5s-16.666 1 -21.999 1c-21.333 0 -39.166 -2.33301 -53.499 -7s-26 -11 -35 -19s-15.667 -17 -20 -27
s-7.5 -20.333 -9.5 -31l-9 -55h281c6 0 9.83301 -1 11.5 -3s2.16699 -5.33301 1.5 -10l-71 -498c-1.33301 -6 -3.16602 -9.83301 -5.49902 -11.5s-6.16602 -2.5 -11.499 -2.5h-54c-6 0 -10 1 -12 3s-2.66699 5.66699 -2 11l31 220l30 221h-208zM226.997 525.003
l194.001 0.000976562l8 53c1.33301 11.333 3.66602 22.166 6.99902 32.499s7 20.166 11 29.499c-18.667 2.66699 -36.667 4.66699 -54 6s-30.333 2 -39 2c-22.667 0 -41.5 -2.33301 -56.5 -7s-27 -11 -36 -19s-15.5 -17.167 -19.5 -27.5s-7 -21.166 -9 -32.499z" />
    <glyph glyph-name="ffl" unicode="ffl" horiz-adv-x="858" 
d="M637 742c10.667 0 28.6699 -1 54.0029 -3s51.333 -6.66699 78 -14l47 12c5.33301 0 9.16602 -0.833008 11.499 -2.5s2.83301 -5.83398 1.5 -12.501l-85 -604c-2.66699 -19.333 -2.16699 -31.5 1.5 -36.5s12.167 -7.5 25.5 -7.5c6 0 12 0.166992 18 0.5
s11.667 0.833008 17 1.5c6.66699 0.666992 10.667 -2.66602 12 -9.99902l7 -42c1.33301 -9.33301 -2.66699 -15.666 -12 -18.999c-15.333 -5.33301 -30.333 -8.66602 -45 -9.99902s-27.334 -2 -38.001 -2c-32.667 0 -54.5 8.16699 -65.5 24.5s-14.167 41.5 -9.5 75.5l80 564
c-20.667 3.33301 -40.5 5.83301 -59.5 7.5s-33.833 2.5 -44.5 2.5c-21.333 0 -39.333 -2.33301 -54 -7s-26.5 -11 -35.5 -19s-15.667 -17 -20 -27s-7.16602 -20.333 -8.49902 -31l-8 -58h131c6 0 9.66699 -1 11 -3s1.66602 -5 0.999023 -9l-6 -44
c-0.666992 -5.33301 -2 -9 -4 -11s-6 -3 -12 -3h-131l-76 -561c-1.33301 -6.66699 -3 -11.334 -5 -14.001s-5.66699 -5 -11 -7l-60 -21c-12 -4 -17 0.333008 -15 13l83 590h-195l-81 -613c-2 -10.667 -7.33301 -17.334 -16 -20.001l-61 -21
c-5.33301 -2 -9.5 -2.5 -12.5 -1.5s-3.83301 5.16699 -2.5 12.5l90 643h-73c-9.33301 0 -13.333 4 -12 12l3 26c0.666992 8.66699 6 14 16 16l75 15l7 41c6.66699 48 26.5 87 59.5 117s83.167 45 150.5 45c14 0 33.667 -1.5 59 -4.5s52.666 -8.16699 81.999 -15.5
c33.333 23.333 79 35 137 35zM352.003 652c-22 0 -40.167 -2.49805 -54.5 -7.49805s-26 -11.5 -35 -19.5s-15.5 -17.167 -19.5 -27.5s-7 -20.833 -9 -31.5l-7 -41h194c3.33301 19.333 6.33301 39.666 9 60.999s8.66699 40.333 18 57
c-19.333 3.33301 -38 5.66602 -56 6.99902s-31.333 2 -40 2z" />
    <glyph glyph-name="ft" unicode="ft" horiz-adv-x="644" 
d="M401 664c-1.33301 -4.66699 -3.66992 -7.49512 -7.00293 -8.49512s-6.66602 -1.16699 -9.99902 -0.5c-13.333 2.66699 -25.666 4.33398 -36.999 5.00098s-21.666 1 -30.999 1c-27.333 0 -46.5 -6 -57.5 -18s-18.167 -27.667 -21.5 -47l-10 -71h211l31 102
c2 6.66699 4.5 11 7.5 13s7.5 4.33301 13.5 7l33 12c4 1.33301 7.5 1.16602 10.5 -0.500977s3.83301 -5.5 2.5 -11.5l-18 -122h109c5.33301 0 8.66602 -1.33301 9.99902 -4s1.66602 -6.33398 0.999023 -11.001l-5 -40c-1.33301 -5.33301 -3 -9 -5 -11s-5.66699 -3 -11 -3
h-108l-46 -324c-3.33301 -22.667 -0.833008 -39.334 7.5 -50.001s24.5 -16 48.5 -16c8 0 19.833 0.833008 35.5 2.5s29.167 3.16699 40.5 4.5c8.66699 2 13 -0.666992 13 -8l7 -45c0 -4 -0.333008 -7.33301 -1 -10s-3.66699 -5 -9 -7
c-10 -3.33301 -20.5 -5.83301 -31.5 -7.5s-21.5 -3 -31.5 -4s-19.167 -1.66699 -27.5 -2s-14.833 -0.5 -19.5 -0.5c-50 0 -83.5 11.167 -100.5 33.5s-22.167 56.833 -15.5 103.5l46 330h-208l-82 -614c-0.666992 -6.66699 -2.16699 -11.334 -4.5 -14.001
s-6.16602 -5 -11.499 -7l-60 -21c-6 -2.66699 -10.333 -2.5 -13 0.5s-3.33398 7.83301 -2.00098 14.5l89 641h-73c-9.33301 0 -13 4.33301 -11 13l3 24c0.666992 5.33301 2 9.16602 4 11.499s6 4.16602 12 5.49902c1.33301 0 5.83301 0.833008 13.5 2.5l24 5
c8.33301 1.66699 16.333 3.16699 24 4.5s12.167 2 13.5 2l10 67c6 46 20.833 82.167 44.5 108.5s60.834 39.5 111.501 39.5c9.33301 0 22.833 -0.666992 40.5 -2s35.167 -5.33301 52.5 -12c5.33301 -1.33301 8.33301 -3.33301 9 -6s0.333984 -6 -0.999023 -10z" />
    <glyph glyph-name=".notdef" horiz-adv-x="442" 
d="M0 700h442v-700h-442v700zM356 54l-135 247l-136 -247h271zM356 646h-271l136 -247zM53 104l136 246l-136 246v-492zM388 104v493l-136 -247z" />
    <glyph glyph-name="space" unicode=" " horiz-adv-x="270" 
 />
    <glyph glyph-name="exclam" unicode="!" horiz-adv-x="262" 
d="M123 123c16.667 0 30.168 -5.16699 40.501 -15.5s15.5 -23.5 15.5 -39.5c0 -20.667 -7.33301 -38.667 -22 -54s-32.334 -23 -53.001 -23c-16.667 0 -30 5.16699 -40 15.5s-15 23.5 -15 39.5c0 10.667 2 20.667 6 30s9.5 17.5 16.5 24.5s14.833 12.5 23.5 16.5s18 6 28 6z
M164.001 216c-1.33301 -6.66699 -3.49902 -11 -6.49902 -13s-8.16699 -3 -15.5 -3h-20c-11.333 0 -16.333 4.33301 -15 13l47 471c0 3.33301 1.33301 6.83301 4 10.5s7 5.5 13 5.5h65c6.66699 0 10.667 -1.83301 12 -5.5s1.66602 -7.16699 0.999023 -10.5z" />
    <glyph glyph-name="quotedbl" unicode="&#x22;" horiz-adv-x="345" 
d="M171 456c-2 -6 -4.5 -10.167 -7.5 -12.5s-8.5 -3.5 -16.5 -3.5h-20c-10.667 0 -16 4.66699 -16 14l11 233c0 3.33301 1.16699 6.83301 3.5 10.5s6.83301 5.5 13.5 5.5h72c7.33301 0 11.833 -1.83301 13.5 -5.5s2.16699 -7.16699 1.5 -10.5zM309 456
c-1.33301 -6 -3.66797 -10.167 -7.00098 -12.5s-8.66602 -3.5 -15.999 -3.5h-20c-6.66699 0 -11 1.16699 -13 3.5s-3 5.83301 -3 10.5l11 233c0 3.33301 1.33301 6.83301 4 10.5s7 5.5 13 5.5h72c6.66699 0 11 -1.83301 13 -5.5s2.33301 -7.16699 1 -10.5z" />
    <glyph glyph-name="numbersign" unicode="#" horiz-adv-x="572" 
d="M47 146c-5.33301 0 -8.49512 0.833008 -9.49512 2.5s-0.833008 5.16699 0.5 10.5l10 28c1.33301 4.66699 3.16602 8.16699 5.49902 10.5s6.16602 3.5 11.499 3.5h83l62 186h-86c-5.33301 0 -8.5 1 -9.5 3s-0.833008 5.66699 0.5 11l10 28
c1.33301 4.66699 3.16602 8.16699 5.49902 10.5s6.16602 3.5 11.499 3.5h87l44 128c1.33301 5.33301 2.83301 8.66602 4.5 9.99902s4.83398 2 9.50098 2h33c5.33301 0 9 -0.666992 11 -2s2.33301 -4.66602 1 -9.99902l-43 -128h144l43 128
c1.33301 5.33301 3 8.66602 5 9.99902s5 2 9 2h33c5.33301 0 9.16602 -0.666992 11.499 -2s2.83301 -4.66602 1.5 -9.99902l-44 -128h83c9.33301 0 13 -4.66699 11 -14l-11 -28c-1.33301 -5.33301 -3 -9 -5 -11s-5.66699 -3 -11 -3h-85l-64 -186h87
c9.33301 0 12.333 -4.66699 9 -14l-9 -28c-2.66699 -8.66699 -8.33398 -13 -17.001 -13h-88l-7.5 -23l-15 -44l-15.5 -44l-8 -23c-1.33301 -5.33301 -2.5 -8.66602 -3.5 -9.99902s-4.16699 -2 -9.5 -2h-34c-4.66699 0 -8.16699 0.666992 -10.5 2
s-2.83301 4.66602 -1.5 9.99902l45 134h-143l-45 -134c-2 -5.33301 -3.66699 -8.66602 -5 -9.99902s-4.66602 -2 -9.99902 -2h-34c-4 0 -7.33301 0.666992 -10 2s-3.33398 4.66602 -2.00098 9.99902l45 134h-81zM350.005 201l63 186h-143l-62 -186h142z" />
    <glyph glyph-name="dollar" unicode="$" horiz-adv-x="568" 
d="M321 -5l-12.9971 -93.001c-1.33301 -6 -3.33301 -9.66699 -6 -11s-7 -2 -13 -2h-14c-5.33301 0 -9.33301 0.666992 -12 2s-3.33398 5 -2.00098 11l121 859c1.33301 6.66699 3.33301 10.667 6 12s6.66699 2 12 2h14c6 0 10.333 -0.666992 13 -2
s3.33398 -5.33301 2.00098 -12l-11 -80c19.333 -2.66699 38.166 -6.66699 56.499 -12s37.166 -12.666 56.499 -21.999c6.66699 -3.33301 8 -8.33301 4 -15l-24 -52c-3.33301 -6.66699 -8 -8.66699 -14 -6c-17.333 6.66699 -33.5 12 -48.5 16s-29.167 7.33301 -42.5 10
l-33 -230c19.333 -10 37.666 -20.167 54.999 -30.5s32.333 -22.333 45 -36s22.667 -29.167 30 -46.5s11 -38 11 -62c0 -30 -4.83301 -56.5 -14.5 -79.5s-23.167 -42.833 -40.5 -59.5s-37.833 -30 -61.5 -40s-49.5 -17 -77.5 -21h1zM240.003 333.999
c-78 39.333 -116.999 93.332 -116.999 161.999c0 48 14.167 88.5 42.5 121.5s69.5 52.833 123.5 59.5l11 84c1.33301 6.66699 3.16602 10.667 5.49902 12s6.16602 2 11.499 2h15c6 0 10.167 -0.666992 12.5 -2s2.83301 -5.33301 1.5 -12l-121 -859
c-1.33301 -6 -3.16602 -9.66699 -5.49902 -11s-6.5 -2 -12.5 -2h-15c-5.33301 0 -9.16602 0.666992 -11.499 2s-2.83301 5 -1.5 11l13 97c-28 3.33301 -54.833 8.83301 -80.5 16.5s-49.167 17.834 -70.5 30.501c-7.33301 3.33301 -8.33301 9.66602 -3 18.999l24 46
c4.66699 7.33301 10.334 9.33301 17.001 6c19.333 -9.33301 39.666 -17.166 60.999 -23.499s42.666 -11.5 63.999 -15.5zM332.004 77.998c31.333 7.33301 55.167 20.167 71.5 38.5s24.5 42.5 24.5 72.5c0 20 -5.83301 37.167 -17.5 51.5s-28.167 27.5 -49.5 39.5z
M277.005 588.999c-22.667 -6.66699 -39.666 -18 -50.999 -34s-17 -34.667 -17 -56c0 -15.333 3.66699 -28.5 11 -39.5s18.666 -21.5 33.999 -31.5z" />
    <glyph glyph-name="percent" unicode="%" horiz-adv-x="870" 
d="M693 411c53.333 0 91.834 -15.166 115.501 -45.499s35.5 -70.833 35.5 -121.5c0 -37.333 -4.5 -71.333 -13.5 -102s-22 -57 -39 -79s-38 -39 -63 -51s-53.833 -18 -86.5 -18c-48 0 -84.5 14 -109.5 42s-37.5 67 -37.5 117c0 37.333 4.5 71.666 13.5 102.999
s22 58.5 39 81.5s37.667 41 62 54s52.166 19.5 83.499 19.5zM691.001 350.001c-23.333 0 -42.668 -6.33398 -58.001 -19.001s-27.666 -28.5 -36.999 -47.5s-16 -39.833 -20 -62.5s-6 -44 -6 -64c0 -14 1.16699 -27.333 3.5 -40s6.5 -23.667 12.5 -33
s14.167 -16.833 24.5 -22.5s23.5 -8.5 39.5 -8.5c24 0 43.833 6.33301 59.5 19s28.167 28.5 37.5 47.5s16 39.667 20 62s6 43.5 6 63.5c0 28.667 -5.83301 53.334 -17.5 74.001s-33.167 31 -64.5 31zM283.999 678c53.333 0 91.834 -15.1689 115.501 -45.502
s35.5 -70.5 35.5 -120.5c0 -37.333 -4.33301 -71.333 -13 -102s-21.5 -57 -38.5 -79s-38 -39.167 -63 -51.5s-53.833 -18.5 -86.5 -18.5c-48.667 0 -85.5 14.167 -110.5 42.5s-37.5 67.5 -37.5 117.5c0 36.667 4.5 70.834 13.5 102.501s22 58.834 39 81.501
s37.667 40.5 62 53.5s52.166 19.5 83.499 19.5zM282 617.998c-23.333 0 -42.668 -6.33301 -58.001 -19s-27.666 -28.5 -36.999 -47.5s-16 -40 -20 -63s-6 -44.5 -6 -64.5c0 -14 1.33301 -27.333 4 -40s7 -23.667 13 -33s14.167 -16.833 24.5 -22.5s23.5 -8.5 39.5 -8.5
c23.333 0 42.833 6.33301 58.5 19s28.167 28.5 37.5 47.5s16 39.833 20 62.5s6 44 6 64c0 14 -1.33301 27.5 -4 40.5s-7 24.167 -13 33.5s-14.333 16.833 -25 22.5s-24 8.5 -40 8.5zM251.998 -8.00195c-3.33301 -5.33301 -6.66602 -9 -9.99902 -11s-7.66602 -3 -12.999 -3
h-30c-10 0 -12.333 4.66699 -7 14l494 690c3.33301 5.33301 6.16602 9 8.49902 11s6.16602 3 11.499 3h34c3.33301 0 6 -1 8 -3s1.33301 -5.66699 -2 -11z" />
    <glyph glyph-name="ampersand" unicode="&#x26;" horiz-adv-x="702" 
d="M394 167l-53.501 83.498l-51.5 83.5c-19.333 -11.333 -37.666 -23.5 -54.999 -36.5s-32.666 -27.167 -45.999 -42.5s-24 -32.166 -32 -50.499s-12 -38.166 -12 -59.499c0 -29.333 8 -50.333 24 -63s37.333 -19 64 -19c27.333 0 55.666 9.83301 84.999 29.5
s55 44.5 77 74.5zM371.999 640.998c-27.333 0 -49.334 -9.00098 -66.001 -27.001s-25 -41 -25 -69c0 -20 4.66699 -40.5 14 -61.5s19 -39.5 29 -55.5c12 6.66699 24.667 14.834 38 24.501s25.833 20.5 37.5 32.5s21.334 25.333 29.001 40s11.5 30.667 11.5 48
s-5.33301 33 -16 47s-28 21 -52 21zM433.998 103.997c-30 -33.333 -62.832 -60.998 -98.499 -82.998s-76.5 -33 -122.5 -33c-49.333 0 -86.833 12.167 -112.5 36.5s-38.5 58.5 -38.5 102.5c0 28 4.83301 54.833 14.5 80.5s23 49.834 40 72.501s36.833 43.5 59.5 62.5
s47 35.5 73 49.5c-15.333 22 -27.5 46.167 -36.5 72.5s-13.5 51.833 -13.5 76.5c0 28.667 4.66699 53.667 14 75s22 39.166 38 53.499s34.333 25 55 32s42.667 10.5 66 10.5c43.333 0 78.5 -11.667 105.5 -35s40.5 -55 40.5 -95c0 -26 -4.66699 -49.5 -14 -70.5
s-21.5 -40 -36.5 -57s-32 -32.167 -51 -45.5s-38.167 -25.666 -57.5 -36.999c16.667 -28.667 31.667 -52.834 45 -72.501s26.666 -40.5 39.999 -62.5c25.333 36.667 52.333 69.667 81 99s62.334 49.666 101.001 60.999c8 2 15.333 3.66699 22 5s13.667 2.33301 21 3
s11 -2 11 -8l6 -47c0.666992 -7.33301 -3.33301 -11.666 -12 -12.999c-24.667 -4 -46.167 -11.333 -64.5 -22s-34.833 -23.334 -49.5 -38.001s-27.834 -30.834 -39.501 -48.501l-34.5 -53.5c5.33301 -9.33301 14.166 -22.833 26.499 -40.5l37.5 -52.5l46 -66
c2 -3.33301 2.33301 -6.83301 1 -10.5s-4.33301 -5.5 -9 -5.5h-64c-6 0 -10.667 0.666992 -14 2s-6.66602 4.33301 -9.99902 9z" />
    <glyph glyph-name="quotesingle" unicode="'" horiz-adv-x="209" 
d="M172 456c-1.33301 -6 -3.66699 -10.167 -7 -12.5s-9 -3.5 -17 -3.5h-20c-6 0 -10 1.16699 -12 3.5s-3 5.83301 -3 10.5l11 233c0 3.33301 1.33301 6.83301 4 10.5s7 5.5 13 5.5h72c6.66699 0 11 -1.83301 13 -5.5s2.33301 -7.16699 1 -10.5z" />
    <glyph glyph-name="parenleft" unicode="(" horiz-adv-x="281" 
d="M195 -77c-4 -3.33301 -6.99902 -4.6709 -8.99902 -4.00391s-4.33301 2.33398 -7 5.00098c-18.667 20.667 -36.167 43.167 -52.5 67.5s-30.5 50.333 -42.5 78s-21.5 56.834 -28.5 87.501s-10.5 63 -10.5 97c0 50.667 6.5 98.334 19.5 143.001s30.5 86.5 52.5 125.5
s47.667 75.333 77 109s60.666 64.834 93.999 93.501c5.33301 4.66699 11 5.33398 17 2.00098l25 -23c4.66699 -4 4.33398 -8.33301 -0.999023 -13c-61.333 -63.333 -108.166 -131 -140.499 -203s-48.5 -149 -48.5 -231c0 -58.667 6.66699 -112.667 20 -162
s35.666 -95.333 66.999 -138c3.33301 -4.66699 2.66602 -8.33398 -2.00098 -11.001z" />
    <glyph glyph-name="parenright" unicode=")" horiz-adv-x="285" 
d="M137 726c3.33301 2.66699 6.00293 3.66992 8.00293 3.00293s4.33301 -2 7 -4c18.667 -21.333 36.167 -44.166 52.5 -68.499s30.5 -50.166 42.5 -77.499s21.5 -56.333 28.5 -87s10.5 -63 10.5 -97c0 -50.667 -6.5 -98.334 -19.5 -143.001s-30.5 -86.5 -52.5 -125.5
s-47.833 -75.333 -77.5 -109s-60.834 -64.834 -93.501 -93.501c-6 -6 -11.667 -6.66699 -17 -2l-25 23c-4.66699 3.33301 -4.33398 7.66602 0.999023 12.999c61.333 63.333 108.166 131.166 140.499 203.499s48.5 149.166 48.5 230.499c0 58.667 -6.83301 112.667 -20.5 162
s-36.167 95.333 -67.5 138c-2.66699 4.66699 -2 8.66699 2 12z" />
    <glyph glyph-name="asterisk" unicode="*" horiz-adv-x="462" 
d="M318 496l68.002 -98.999c3.33301 -4.66699 4.5 -8.33398 3.5 -11.001s-3.83301 -5.66699 -8.5 -9l-34 -24c-7.33301 -4.66699 -12.333 -6.66699 -15 -6s-4.66699 3.66699 -6 9l-50 111l-82 -114c-6.66699 -8.66699 -13 -10 -19 -4l-31 27c-6 5.33301 -6 12 0 20l95 100
l-114 32c-9.33301 3.33301 -11.666 9.33301 -6.99902 18l17 39c4 10.667 11 13.334 21 8.00098l107 -49l9 132c-0.666992 3.33301 0.166016 6.16602 2.49902 8.49902s5.83301 3.5 10.5 3.5h42c6 0 9.5 -1.33301 10.5 -4s1.16699 -5.66699 0.5 -9l-29 -131l122 51
c6 2 10.167 2.33301 12.5 1s4.16602 -4 5.49902 -8l8 -44c1.33301 -4.66699 0.666016 -8 -2.00098 -10s-5.66699 -3.33301 -9 -4z" />
    <glyph glyph-name="plus" unicode="+" horiz-adv-x="572" 
d="M82 302c-6.66699 0 -10.666 1.16699 -11.999 3.5s-1.66602 6.5 -0.999023 12.5l8 52c1.33301 5.33301 3 9.5 5 12.5s6 4.5 12 4.5h180l27 190c0.666992 6.66699 2.16699 10.834 4.5 12.501s6.16602 2.5 11.499 2.5h54c5.33301 0 9.16602 -0.833008 11.499 -2.5
s3.16602 -5.83398 2.49902 -12.501l-27 -190h178c6 0 9.66699 -1.5 11 -4.5s1.66602 -7.16699 0.999023 -12.5l-7 -52c-1.33301 -6 -3 -10.167 -5 -12.5s-6.33301 -3.5 -13 -3.5h-177l-27 -191c-1.33301 -6.66699 -3.16602 -10.834 -5.49902 -12.501s-6.5 -2.5 -12.5 -2.5
h-53c-5.33301 0 -9.16602 0.833008 -11.499 2.5s-2.83301 5.83398 -1.5 12.501l26 191h-179v0z" />
    <glyph glyph-name="comma" unicode="," horiz-adv-x="231" 
d="M81 -108c-3.33301 -6 -6 -10.333 -8 -13s-6 -4 -12 -4h-29c-6 0 -10.5 1.16699 -13.5 3.5s-3.83301 5.83301 -2.5 10.5l47 226c1.33301 4 3.33301 7.83301 6 11.5s6.66699 5.5 12 5.5h82c7.33301 0 12 -1.83301 14 -5.5s2.33301 -7.5 1 -11.5z" />
    <glyph glyph-name="hyphen" unicode="-" horiz-adv-x="320" 
d="M51 236c-6.66699 0 -10.8311 1.33301 -12.498 4s-1.83398 6.66699 -0.500977 12l10 68c0.666992 5.33301 2 9.33301 4 12s6 4 12 4h225c5.33301 0 8.83301 -1.33301 10.5 -4s2.16699 -6.66699 1.5 -12l-11 -68c-0.666992 -5.33301 -1.83398 -9.33301 -3.50098 -12
s-5.5 -4 -11.5 -4h-224v0z" />
    <glyph glyph-name="period" unicode="." horiz-adv-x="251" 
d="M118 130c18 0 32.334 -5.49902 43.001 -16.499s16 -25.167 16 -42.5c0 -22.667 -7.66699 -42.167 -23 -58.5s-34 -24.5 -56 -24.5c-17.333 0 -31.5 5.83301 -42.5 17.5s-16.5 26.167 -16.5 43.5c0 10.667 2.16699 21 6.5 31s10.166 18.667 17.499 26
s15.833 13.166 25.5 17.499s19.5 6.5 29.5 6.5z" />
    <glyph glyph-name="slash" unicode="/" horiz-adv-x="420" 
d="M63 -82c-4.66699 -9.33301 -11.999 -14 -21.999 -14h-53c-10 0 -13.667 4.66699 -11 14l429 846c4 9.33301 10.667 14 20 14h56c3.33301 0 6.16602 -1 8.49902 -3s2.5 -5.66699 0.5 -11l-428 -846v0z" />
    <glyph glyph-name="zero" unicode="0" horiz-adv-x="572" 
d="M345 683c38.667 0 72.167 -6.16699 100.5 -18.5s51.5 -29.833 69.5 -52.5s31.333 -50.167 40 -82.5s13 -68.833 13 -109.5c0 -62.667 -6.66699 -120.334 -20 -173.001s-33 -98.167 -59 -136.5s-58 -68.166 -96 -89.499s-81.667 -32 -131 -32
c-73.333 0 -127.5 23 -162.5 69s-52.5 109.667 -52.5 191c0 58.667 6.5 114.167 19.5 166.5s32 98.333 57 138s56 71.167 93 94.5s79.833 35 128.5 35zM345 609c-40 0 -73.5 -11.8359 -100.5 -35.5029s-49 -53.334 -66 -89.001s-29.167 -74.667 -36.5 -117
s-11 -82.166 -11 -119.499c0 -25.333 2.33301 -49.166 7 -71.499s12.334 -42 23.001 -59s24.834 -30.5 42.501 -40.5s39.5 -15 65.5 -15c40 0 73.5 11.667 100.5 35s49 52.833 66 88.5s29.167 74.334 36.5 116.001s11 80.834 11 117.501c0 26 -2.33301 50.5 -7 73.5
s-12.334 43.167 -23.001 60.5s-24.834 31 -42.501 41s-39.5 15 -65.5 15z" />
    <glyph glyph-name="one" unicode="1" horiz-adv-x="572" 
d="M442 16c-1.33301 -5.33301 -2.83105 -9.33301 -4.49805 -12s-5.5 -4 -11.5 -4h-318c-6 -0 -9.83301 1.33301 -11.5 4s-1.83398 6.66699 -0.500977 12l6 46c0.666992 6 2 10.333 4 13s6.33301 4 13 4h115l71 505l-114 -18c-6.66699 -1.33301 -10.834 -1 -12.501 1
s-2.16699 5.66699 -1.5 11l6 39c0.666992 10.667 6.66699 17.667 18 21l146 43c15.333 4 28.333 4 39 0s14.667 -13.667 12 -29l-80 -573h119c6 0 9.66699 -1.33301 11 -4s1.33301 -7 0 -13l-6 -46v0z" />
    <glyph glyph-name="two" unicode="2" horiz-adv-x="572" 
d="M335 608c-24.667 0 -51.5 -5.00391 -80.5 -15.0039s-55.833 -23.667 -80.5 -41c-4.66699 -3.33301 -8.66699 -5.16602 -12 -5.49902s-6.66602 1.83398 -9.99902 6.50098l-26 40c-4 8 -1.66699 15 7 21c32 22.667 66.5 39.834 103.5 51.501s73.5 17.5 109.5 17.5
c28 0 53.833 -3.16699 77.5 -9.5s44.167 -16 61.5 -29s31 -29.333 41 -49s15 -42.834 15 -69.501c0 -25.333 -4.5 -48.666 -13.5 -69.999s-21.833 -41.5 -38.5 -60.5s-36.834 -36.833 -60.501 -53.5s-49.834 -33 -78.501 -49c-20.667 -11.333 -42 -24.5 -64 -39.5
s-43 -31.5 -63 -49.5s-38.167 -37.5 -54.5 -58.5s-29.166 -43.167 -38.499 -66.5h336c6 0 9.83301 -1.33301 11.5 -4s1.83398 -6.66699 0.500977 -12l-6 -47c-1.33301 -5.33301 -2.83301 -9.33301 -4.5 -12s-5.83398 -4 -12.501 -4h-356c-22.667 0 -38.5 4 -47.5 12
s-13.5 20.667 -13.5 38c-0.666992 22.667 7.33301 50 24 82s44.334 66.333 83.001 103c28.667 28 58.167 52.333 88.5 73s57.166 38 80.499 52c24.667 14 46 27.5 64 40.5s32.833 25.833 44.5 38.5s20.167 25.834 25.5 39.501s8 28.5 8 44.5c0 27.333 -10.667 48.333 -32 63
s-51 22 -89 22z" />
    <glyph glyph-name="three" unicode="3" horiz-adv-x="572" 
d="M250 -11c-18.667 0 -38.002 1 -58.002 3s-39.833 5.5 -59.5 10.5s-38.167 11.5 -55.5 19.5s-32.333 18.333 -45 31c-5.33301 4.66699 -5 10.667 1 18l28 42c6 8.66699 13.667 9.33398 23 2.00098c22 -15.333 47.333 -27.166 76 -35.499s56 -12.5 82 -12.5
c26.667 0 50.334 3.66699 71.001 11s38.167 17.333 52.5 30s25.333 27.5 33 44.5s11.834 35.167 12.501 54.5c0.666992 16 -2 30.833 -8 44.5s-14.5 25.5 -25.5 35.5s-24.5 17.833 -40.5 23.5s-34 8.5 -54 8.5h-29c-8.66699 0 -14.667 1.33301 -18 4s-4.33301 9 -3 19l5 31
c1.33301 10 3.83301 16.667 7.5 20s9.16699 5 16.5 5h24c20.667 0 40 3.16699 58 9.5s33.5 14.833 46.5 25.5s23.167 22.834 30.5 36.501s11 27.834 11 42.501c0 18 -3.66699 32.833 -11 44.5s-16.833 21 -28.5 28s-25 11.833 -40 14.5s-30.167 4 -45.5 4
c-28 0 -55.667 -4.33301 -83 -13s-52.333 -19.667 -75 -33c-11.333 -6.66699 -19.333 -6.33398 -24 0.999023l-21 44c-1.33301 3.33301 -1.83301 6.5 -1.5 9.5s2.5 5.5 6.5 7.5c32 21.333 67.167 37.5 105.5 48.5s75.5 16.5 111.5 16.5c28.667 0 55.334 -3.33301 80.001 -10
s46 -17 64 -31s31.667 -31.5 41 -52.5s13 -45.5 11 -73.5c-1.33301 -19.333 -5.83301 -37.333 -13.5 -54s-17.5 -32 -29.5 -46s-25.667 -26 -41 -36s-31.333 -18 -48 -24l-1 -4c16 -4 30.833 -10.167 44.5 -18.5s25.667 -19 36 -32s18.166 -28 23.499 -45
s7.66602 -36.167 6.99902 -57.5c-1.33301 -30.667 -8.16602 -58.834 -20.499 -84.501s-29.333 -47.834 -51 -66.501s-47.667 -33.334 -78 -44.001s-63.833 -16 -100.5 -16z" />
    <glyph glyph-name="four" unicode="4" horiz-adv-x="572" 
d="M64 151c-11.333 0 -21.501 2.16504 -30.501 6.49805s-12.5 15.5 -10.5 33.5l2 15c1.33301 10.667 4 20.334 8 29.001s10.667 18.334 20 29.001l338 381c8 10 17 19.333 27 28s21 13 33 13h28c17.333 0 29 -3.83301 35 -11.5s7.66699 -20.5 5 -38.5l-58 -410h70
c11.333 0 16 -5 14 -15l-6 -44c-1.33301 -6 -3.33301 -10 -6 -12s-6.66699 -3 -12 -3h-70l-19 -137c-1.33301 -6.66699 -3.33301 -10.834 -6 -12.501s-6.66699 -2.5 -12 -2.5h-54c-5.33301 0 -9.16602 0.833008 -11.499 2.5s-2.83301 5.83398 -1.5 12.501l18 136h-301z
M423.999 569.998l-2 2l-298 -342l1 -4h251z" />
    <glyph glyph-name="five" unicode="5" horiz-adv-x="572" 
d="M314 342c-18 0 -33.9971 -0.998047 -47.9971 -2.99805s-27.333 -4.83301 -40 -8.5s-25 -8 -37 -13l-39 -16.5c-8.66699 -3.33301 -15.834 -4.83301 -21.501 -4.5s-12.167 1.83301 -19.5 4.5l-13 6c-6.66699 3.33301 -11.834 8.16602 -15.501 14.499
s-3.83398 15.833 -0.500977 28.5l60 263c4.66699 21.333 13.5 36.5 26.5 45.5s26.167 13.5 39.5 13.5h323c6.66699 0 10.667 -1.33301 12 -4s1.33301 -6.66699 0 -12l-6 -46c-2 -11.333 -7.66699 -17 -17 -17h-298l-50 -204c30 12.667 58.167 21 84.5 25s51.5 6 75.5 6
c28.667 0 55.334 -3.83301 80.001 -11.5s45.667 -19 63 -34s31 -33.833 41 -56.5s15 -48.667 15 -78c0 -38.667 -7 -73.667 -21 -105s-33.5 -58 -58.5 -80s-54.5 -38.833 -88.5 -50.5s-71 -17.5 -111 -17.5c-40.667 0 -79.834 5 -117.501 15s-69.5 27.667 -95.5 53
c-5.33301 4.66699 -5 10.667 1 18l30 41c3.33301 4 6.5 6.5 9.5 7.5s7.83301 -0.833008 14.5 -5.5c21.333 -16.667 45.833 -28.834 73.5 -36.501s57.167 -11.5 88.5 -11.5c26.667 0 51.5 3.83301 74.5 11.5s42.833 18.5 59.5 32.5s29.667 31 39 51s14 42.667 14 68
c0 20 -3.33301 37 -10 51s-15.834 25.5 -27.501 34.5s-25.167 15.5 -40.5 19.5s-31.666 6 -48.999 6z" />
    <glyph glyph-name="six" unicode="6" horiz-adv-x="572" 
d="M328 338c-30.667 0 -60.499 -2.16504 -89.499 -6.49805s-61.167 -11.833 -96.5 -22.5c-3.33301 -16.667 -5.5 -32 -6.5 -46s-1.5 -25.667 -1.5 -35c0 -48.667 13 -88 39 -118s63 -45 111 -45c24 0 46.667 3.5 68 10.5s39.666 17.167 54.999 30.5s27.5 29.666 36.5 48.999
s13.5 41.666 13.5 66.999c0 34 -10.5 61.833 -31.5 83.5s-53.5 32.5 -97.5 32.5zM411.001 686.002c15.333 0 33.665 -1.33008 54.998 -3.99707s39 -7 53 -13c4 -2 6.33301 -4 7 -6s0.333984 -6.33301 -0.999023 -13l-14 -45
c-1.33301 -5.33301 -3.66602 -8.33301 -6.99902 -9s-8 -0.333984 -14 0.999023c-9.33301 2.66699 -21.833 5.16699 -37.5 7.5s-30.5 3.5 -44.5 3.5c-32 0 -61.667 -5.33301 -89 -16s-51.5 -25.667 -72.5 -45s-38.833 -42.5 -53.5 -69.5s-26 -57.167 -34 -90.5
c13.333 4.66699 27.833 9 43.5 13s31.5 7.16699 47.5 9.5s31.667 4.16602 47 5.49902s29.666 2 42.999 2c29.333 0 56.5 -3.5 81.5 -10.5s46.5 -18 64.5 -33s32.167 -33.833 42.5 -56.5s15.5 -49.334 15.5 -80.001c0 -44.667 -8 -82.667 -24 -114s-36.5 -57 -61.5 -77
s-52.833 -34.5 -83.5 -43.5s-60.667 -13.5 -90 -13.5c-80 0 -139.333 22.167 -178 66.5s-58 106.5 -58 186.5c0 58 7.16699 113.667 21.5 167s36.333 100.5 66 141.5s67.334 73.833 113.001 98.5s99.5 37 161.5 37z" />
    <glyph glyph-name="seven" unicode="7" horiz-adv-x="572" 
d="M529 672c11.333 0 20.832 -2.33398 28.499 -7.00098s10.167 -14 7.5 -28l-3 -24c-1.33301 -10 -3.66602 -19 -6.99902 -27s-7.66602 -16 -12.999 -24l-360 -547c-3.33301 -5.33301 -6.33301 -9.16602 -9 -11.499s-7.66699 -3.5 -15 -3.5h-60c-4.66699 0 -8 2 -10 6
s-1 9 3 15l375 573h-352c-6 0 -9.83301 1.33301 -11.5 4s-1.83398 7 -0.500977 13l6 45c1.33301 6 3 10.167 5 12.5s6 3.5 12 3.5h404z" />
    <glyph glyph-name="eight" unicode="8" horiz-adv-x="572" 
d="M355 686c30 0 56.832 -3.99805 80.499 -11.998s43.667 -19.167 60 -33.5s28.666 -31.166 36.999 -50.499s12.5 -40.333 12.5 -63c0 -14 -2 -28.833 -6 -44.5s-10.667 -31 -20 -46s-21.833 -28.833 -37.5 -41.5s-34.834 -23.334 -57.501 -32.001l-1 -3
c36.667 -12 62.834 -31.833 78.501 -59.5s23.5 -58.5 23.5 -92.5c0 -23.333 -4.83301 -47.833 -14.5 -73.5s-25 -49.334 -46 -71.001s-48.167 -39.5 -81.5 -53.5s-73.666 -21 -120.999 -21c-37.333 0 -69.666 4.33301 -96.999 13s-50 20.5 -68 35.5s-31.333 32.667 -40 53
s-13 42.166 -13 65.499c0 22 3.66699 43.667 11 65s17.5 41.166 30.5 59.499s28.833 34.333 47.5 48s39 24.167 61 31.5l1 3c-15.333 6 -28.333 13.833 -39 23.5s-19.167 20.167 -25.5 31.5s-10.833 23.166 -13.5 35.499s-4 23.833 -4 34.5c0 32 7 60.333 21 85
s32.333 45.334 55 62.001s48.5 29.334 77.5 38.001s58.5 13 88.5 13zM342.999 608.002c-22 0 -41.999 -3.49902 -59.999 -10.499s-33.333 -16.167 -46 -27.5s-22.334 -24.833 -29.001 -40.5s-10 -31.834 -10 -48.501c0 -27.333 11 -49 33 -65s49 -24 81 -24
c18.667 0 36.834 3 54.501 9s33.167 14.333 46.5 25s24.166 23.5 32.499 38.5s12.5 31.5 12.5 49.5c0 28 -9.66699 50.667 -29 68s-48 26 -86 26zM304 319.003c-20 0 -40.168 -3.16699 -60.501 -9.5s-38.833 -15.833 -55.5 -28.5s-30.167 -28.167 -40.5 -46.5
s-15.5 -39.5 -15.5 -63.5c0 -14 2.33301 -27.5 7 -40.5s12.334 -24.5 23.001 -34.5s24.667 -17.833 42 -23.5s38.666 -8.5 63.999 -8.5c32 0 59 4.83301 81 14.5s39.667 21.834 53 36.501s22.833 30.667 28.5 48s8.5 33.666 8.5 48.999c0 18 -3.5 33.667 -10.5 47
s-16.667 24.5 -29 33.5s-26.666 15.667 -42.999 20s-33.833 6.5 -52.5 6.5z" />
    <glyph glyph-name="nine" unicode="9" horiz-adv-x="572" 
d="M283 338c31.333 0 61.667 2.16797 91 6.50098s61.333 11.833 96 22.5c3.33301 16.667 5.33301 32 6 46s1 25.667 1 35c0 48.667 -13 88 -39 118s-63 45 -111 45c-24 0 -46.5 -3.5 -67.5 -10.5s-39.333 -17.167 -55 -30.5s-28 -29.833 -37 -49.5
s-13.5 -41.834 -13.5 -66.501c0 -34 10.5 -61.833 31.5 -83.5s53.5 -32.5 97.5 -32.5zM201.001 -9.99902c-15.333 0 -33.668 1.33301 -55.001 4s-39 7 -53 13c-4.66699 2 -7.33398 4 -8.00098 6s0 6.33301 2 13l15 45c1.33301 5.33301 3.5 8.33301 6.5 9
s7.5 0.333984 13.5 -0.999023c9.33301 -2.66699 21.833 -5.16699 37.5 -7.5s30.5 -3.5 44.5 -3.5c32 0 61.5 5.33301 88.5 16s51.167 25.667 72.5 45s39.333 42.5 54 69.5s26 57.167 34 90.5c-27.333 -10 -57.666 -17.5 -90.999 -22.5s-63.333 -7.5 -90 -7.5
c-29.333 0 -56.5 3.5 -81.5 10.5s-46.667 18 -65 33s-32.666 33.667 -42.999 56s-15.5 49.166 -15.5 80.499c0 44.667 8 82.667 24 114s36.5 57 61.5 77s53 34.5 84 43.5s61.167 13.5 90.5 13.5c80 0 139.167 -22.167 177.5 -66.5s57.5 -106.5 57.5 -186.5
c0 -58 -7.16699 -113.667 -21.5 -167s-36.333 -100.5 -66 -141.5s-67.167 -73.833 -112.5 -98.5s-99 -37 -161 -37z" />
    <glyph glyph-name="colon" unicode=":" horiz-adv-x="260" 
d="M178 521c20 0 35.665 -6.66699 46.998 -20s15.333 -30 12 -50c-2.66699 -20 -11.667 -36.833 -27 -50.5s-32.666 -20.5 -51.999 -20.5s-34.666 6.66699 -45.999 20s-15.333 30.333 -12 51c2.66699 19.333 11.5 35.833 26.5 49.5s32.167 20.5 51.5 20.5zM122.998 131
c20 0 35.6641 -6.49902 46.9971 -19.499s15.333 -29.833 12 -50.5c-2.66699 -20 -11.667 -36.667 -27 -50s-32.666 -20 -51.999 -20s-34.666 6.66699 -45.999 20s-15.666 29.666 -12.999 48.999c3.33301 20 12.5 36.833 27.5 50.5s32.167 20.5 51.5 20.5z" />
    <glyph glyph-name="semicolon" unicode=";" horiz-adv-x="254" 
d="M188 521c19.333 0 34.502 -6.66699 45.502 -20s15.167 -30 12.5 -50s-11.5 -36.833 -26.5 -50.5s-32.167 -20.5 -51.5 -20.5s-34.833 6.66699 -46.5 20s-15.834 30.333 -12.501 51c2.66699 19.333 11.667 35.833 27 49.5s32.666 20.5 51.999 20.5zM90.002 -108
c-3.33301 -6 -6 -10.333 -8 -13s-6.33301 -4 -13 -4h-29c-6 0 -10.5 1.16699 -13.5 3.5s-3.83301 5.83301 -2.5 10.5l47 226c1.33301 4 3.33301 7.83301 6 11.5s7 5.5 13 5.5h82c7.33301 0 12 -1.83301 14 -5.5s2.33301 -7.5 1 -11.5z" />
    <glyph glyph-name="less" unicode="&#x3c;" horiz-adv-x="572" 
d="M563 595c6.66699 2.66699 10.999 2.83008 12.999 0.49707s2.66699 -6.16602 2 -11.499l-7 -54c-1.33301 -6 -3.16602 -10.833 -5.49902 -14.5s-6.16602 -6.83398 -11.499 -9.50098l-371 -165l320 -158c6.66699 -4 11 -7.5 13 -10.5s2.33301 -8.16699 1 -15.5l-8 -51
c-0.666992 -3.33301 -2.33398 -6.16602 -5.00098 -8.49902s-6 -2.5 -10 -0.5l-404 205c-6 3.33301 -10.833 6.5 -14.5 9.5s-5.5 7.83301 -5.5 14.5c0 1.33301 0.833008 6.5 2.5 15.5s2.5 14.167 2.5 15.5c1.33301 8.66699 4 14.834 8 18.501s10.667 7.83398 20 12.501z" />
    <glyph glyph-name="equal" unicode="=" horiz-adv-x="572" 
d="M532 406c-1.33301 -5.33301 -2.83301 -9.33301 -4.5 -12s-5.5 -4 -11.5 -4h-401c-6 0 -9.66699 1.33301 -11 4s-1.33301 6.66699 0 12l6 49c1.33301 5.33301 3 9.16602 5 11.499s5.66699 3.5 11 3.5h401c6.66699 0 10.5 -1.16699 11.5 -3.5
s0.833008 -6.16602 -0.5 -11.499zM507 229c-1.33301 -6 -2.83301 -10.167 -4.5 -12.5s-5.5 -3.5 -11.5 -3.5h-401c-6 0 -9.66699 1.16699 -11 3.5s-1.33301 6.5 0 12.5l6 48c1.33301 5.33301 3 9.33301 5 12s5.66699 4 11 4h401c6.66699 0 10.5 -1.33301 11.5 -4
s0.833008 -6.66699 -0.5 -12z" />
    <glyph glyph-name="greater" unicode="&#x3e;" horiz-adv-x="572" 
d="M527 388c7.33301 -4.66699 12.6641 -8.8291 15.9971 -12.4961s4.33301 -9.83398 3 -18.501c0 -1.33301 -0.833008 -6.5 -2.5 -15.5s-2.5 -14.167 -2.5 -15.5c-1.33301 -6.66699 -4.33301 -11.5 -9 -14.5s-10.667 -6.16699 -18 -9.5l-460 -205
c-5.33301 -2 -9.16602 -1.83301 -11.499 0.5s-3.16602 5.16602 -2.49902 8.49902l8 58c1.33301 7.33301 3.33301 12.666 6 15.999s7.66699 7 15 11l365 158l-324 165c-5.33301 2.66699 -8.66602 5.83398 -9.99902 9.50098s-1.66602 8.16699 -0.999023 13.5l8 47
c0.666992 5.33301 2.16699 9.16602 4.5 11.499s6.16602 2.16602 11.499 -0.500977z" />
    <glyph glyph-name="question" unicode="?" horiz-adv-x="509" 
d="M211 126c4.66699 0 10.334 -0.832031 17.001 -2.49902s13 -4.83398 19 -9.50098s10.833 -10.667 14.5 -18s5.5 -16.333 5.5 -27c0 -22 -7.5 -40.833 -22.5 -56.5s-33.167 -23.5 -54.5 -23.5c-17.333 0 -31.333 5.33301 -42 16s-16 24.667 -16 42
c0.666992 21.333 8.66699 39.833 24 55.5s33.666 23.5 54.999 23.5zM317 628.001c-10.667 0 -22.668 -1.16797 -36.001 -3.50098s-27.166 -5.83301 -41.499 -10.5s-28.833 -10.334 -43.5 -17.001s-28.334 -14 -41.001 -22c-4.66699 -2.66699 -9 -4.16699 -13 -4.5
s-7 1.5 -9 5.5l-27 41c-3.33301 8.66699 -0.666016 15.667 8.00098 21c16 12 33.167 22.333 51.5 31s36.666 15.834 54.999 21.501s36.333 9.83398 54 12.501s34.167 4 49.5 4c28 0 53.667 -3 77 -9s43.666 -15.333 60.999 -28s30.833 -28.667 40.5 -48s14.5 -42 14.5 -68
c0 -22.667 -3.66699 -43.167 -11 -61.5s-17 -35.5 -29 -51.5s-25.667 -30.667 -41 -44l-47 -39l-42 -33c-14 -10.667 -26.5 -21.667 -37.5 -33s-20.5 -23.166 -28.5 -35.499s-13 -25.5 -15 -39.5l-5 -28c-1.33301 -6 -2.66602 -9.66699 -3.99902 -11s-4 -2 -8 -2h-61
c-4.66699 0 -8 0.833008 -10 2.5s-2.66699 5.16699 -2 10.5l5 31c2.66699 22.667 9.16699 42.667 19.5 60s22.5 33.166 36.5 47.499s29.167 27.666 45.5 39.999l48.5 36.5c28 20.667 51.333 42.834 70 66.501s28 47.5 28 71.5c0 10.667 -1.66699 21.167 -5 31.5
s-9.16602 19.5 -17.499 27.5s-19.833 14.5 -34.5 19.5s-33 7.5 -55 7.5z" />
    <glyph glyph-name="at" unicode="@" horiz-adv-x="940" 
d="M505 500c-21.333 0 -41.166 -4.33203 -59.499 -12.999s-34.333 -21.5 -48 -38.5s-24.334 -38.667 -32.001 -65s-11.5 -56.833 -11.5 -91.5c0 -33.333 8.83301 -57.5 26.5 -72.5s39.5 -22.5 65.5 -22.5c13.333 0 29.833 2.5 49.5 7.5s39.167 13.833 58.5 26.5
c2.66699 25.333 5.5 48.666 8.5 69.999l8.5 62c2.66699 20 5.66699 40.333 9 61l11 66c-14 3.33301 -29 5.83301 -45 7.5s-29.667 2.5 -41 2.5zM441 -66.999c-56.667 0 -106.673 7.99707 -150.006 23.9971s-79.666 38.833 -108.999 68.5s-51.5 65.167 -66.5 106.5
s-22.5 87.333 -22.5 138c0 66.667 11.167 127.834 33.5 183.501s53.5 103.667 93.5 144s87.667 71.666 143 93.999s116 33.5 182 33.5c50.667 0 97.5 -6.83301 140.5 -20.5s80.167 -33.834 111.5 -60.501s55.833 -59.667 73.5 -99s26.5 -84.666 26.5 -135.999
c0 -45.333 -5.66699 -85.833 -17 -121.5s-26.833 -66 -46.5 -91s-43.167 -44 -70.5 -57s-57 -19.5 -89 -19.5s-57.333 5.66699 -76 17s-30.334 25.666 -35.001 42.999c-19.333 -15.333 -41.166 -27.166 -65.499 -35.499s-47.833 -12.5 -70.5 -12.5c-44 0 -79.333 13 -106 39
s-40 65.667 -40 119c0 36 4.33301 70.5 13 103.5s22.334 62.333 41.001 88s42 46.167 70 61.5s61.667 23 101 23c6 0 14.833 -0.333008 26.5 -1s24.334 -1.83398 38.001 -3.50098s27.334 -4 41.001 -7s25.5 -6.5 35.5 -10.5c8.66699 -3.33301 14.167 -8 16.5 -14
s2.83301 -12.667 1.5 -20c-10 -55.333 -17.833 -105.333 -23.5 -150s-11.167 -85.667 -16.5 -123c-2 -17.333 1.83301 -30.666 11.5 -39.999s27.167 -14 52.5 -14c22 0 41.833 5.83301 59.5 17.5s32.5 27.667 44.5 48s21.167 44.333 27.5 72s9.5 57.834 9.5 90.501
c0 40 -6.83301 75.5 -20.5 106.5s-33 57.333 -58 79s-54.833 38 -89.5 49s-73 16.5 -115 16.5c-63.333 0 -119.166 -10.5 -167.499 -31.5s-88.666 -49.333 -120.999 -85s-56.833 -77.167 -73.5 -124.5s-25 -97.333 -25 -150c0 -41.333 6.16699 -79.166 18.5 -113.499
s30.5 -63.666 54.5 -87.999s53.333 -43.166 88 -56.499s74.334 -20 119.001 -20c6 0 13.833 0.333008 23.5 1s20.5 1.66699 32.5 3s24.833 3.16602 38.5 5.49902s27.5 5.16602 41.5 8.49902c5.33301 1.33301 9 1.5 11 0.5s3.66699 -4.16699 5 -9.5l7 -29
c1.33301 -6 1.16602 -10.167 -0.500977 -12.5s-5.16699 -4.5 -10.5 -6.5c-20.667 -7.33301 -44.5 -12.666 -71.5 -15.999s-52.167 -5 -75.5 -5z" />
    <glyph glyph-name="A" unicode="A" horiz-adv-x="600" 
d="M489 0c-6 0 -10.8311 0.666992 -14.498 2s-6.16699 5.66602 -7.5 12.999l-27 147h-274l-69 -147c-3.33301 -5.33301 -6.5 -9.16602 -9.5 -11.499s-7.5 -3.5 -13.5 -3.5h-71c-6.66699 -0 -10.5 1.83301 -11.5 5.5s-0.833008 8.16699 0.5 13.5l311 643
c7.33301 16 14.5 26.5 21.5 31.5s18.167 7.83301 33.5 8.5h28c17.333 0 28.666 -2.83301 33.999 -8.5s9.66602 -16.167 12.999 -31.5l128 -643c1.33301 -4.66699 1 -9 -1 -13s-6 -6 -12 -6h-59zM390.002 451l-25 146h-5l-64 -141l-96 -213h225z" />
    <glyph glyph-name="B" unicode="B" horiz-adv-x="625" 
d="M185 342l-36 -258h182c32 0 58.167 5.33301 78.5 16s36.5 23.667 48.5 39s20.167 31.833 24.5 49.5s6.5 33.167 6.5 46.5c0 32 -9.83301 57.833 -29.5 77.5s-50.5 29.5 -92.5 29.5h-182zM196 420h177.002c10.667 0 23.167 1.66699 37.5 5s28.166 9.33301 41.499 18
s24.666 20.667 33.999 36s14 35 14 59s-8.33301 43.333 -25 58s-40 22 -70 22h-181zM97.002 0c-17.333 0 -29.332 4.00293 -35.999 12.0029s-8.66699 20.667 -6 38l83 600c3.33301 17.333 9.16602 30.166 17.499 38.499s21.5 12.5 39.5 12.5l225 1
c25.333 0 48.833 -3 70.5 -9s40.5 -15.167 56.5 -27.5s28.5 -28.333 37.5 -48s13.5 -43.167 13.5 -70.5c0 -15.333 -2.16699 -30.833 -6.5 -46.5s-11 -30.667 -20 -45s-20.5 -27.5 -34.5 -39.5s-31 -21.667 -51 -29l-1 -6c34.667 -13.333 59.334 -33.5 74.001 -60.5
s22 -56.833 22 -89.5c0 -36.667 -6.33301 -69.334 -19 -98.001s-30.334 -52.834 -53.001 -72.501s-49.5 -34.667 -80.5 -45s-64.833 -15.5 -101.5 -15.5h-230z" />
    <glyph glyph-name="C" unicode="C" horiz-adv-x="580" 
d="M404 710c12 0 25.5029 -0.501953 40.5029 -1.50195s30.667 -3 47 -6s32.833 -7.16699 49.5 -12.5s32.667 -12.333 48 -21c3.33301 -2 5.16602 -4.5 5.49902 -7.5s-1.16699 -8.16699 -4.5 -15.5l-18 -43c-4 -9.33301 -10.333 -11.666 -19 -6.99902
c-22.667 11.333 -47.334 19.166 -74.001 23.499s-50.334 6.5 -71.001 6.5c-47.333 0 -86.833 -10.333 -118.5 -31s-57 -47.834 -76 -81.501s-32.333 -71.667 -40 -114s-11.5 -85.166 -11.5 -128.499c0 -29.333 2.66699 -56.166 8 -80.499s14.666 -45.166 27.999 -62.499
s31.333 -31 54 -41s51.334 -15 86.001 -15c28.667 0 57.334 3.83301 86.001 11.5s55 16.834 79 27.501c7.33301 3.33301 12.166 3.83301 14.499 1.5s4.5 -5.5 6.5 -9.5l21 -42c3.33301 -7.33301 4 -12.833 2 -16.5s-5.33301 -6.83398 -10 -9.50098
c-36.667 -18 -74.667 -30.167 -114 -36.5s-75 -9.5 -107 -9.5c-83.333 0 -145.333 23.167 -186 69.5s-61 117.166 -61 212.499c0 68.667 8.16699 130.334 24.5 185.001s39.333 100.667 69 138s65 66 106 86s86.167 30 135.5 30z" />
    <glyph glyph-name="D" unicode="D" horiz-adv-x="655" 
d="M368 701c89.333 0 154.997 -24.834 196.997 -74.501s63 -118.5 63 -206.5c0 -61.333 -7.33301 -117.666 -22 -168.999s-36.5 -95.666 -65.5 -132.999s-65.167 -66.333 -108.5 -87s-94 -31 -152 -31h-184c-33.333 0 -47.666 16.667 -42.999 50l84 600
c2.66699 17.333 8.33398 30.166 17.001 38.499s22.334 12.5 41.001 12.5l174 1zM222.997 617.999l-74.998 -534.999h134c46.667 0 86.167 9.16699 118.5 27.5s58.666 42.666 78.999 72.999s35 65.5 44 105.5s13.5 81.667 13.5 125c0 30 -2.83301 57.5 -8.5 82.5
s-15.5 46.5 -29.5 64.5s-32.833 32 -56.5 42s-53.834 15 -90.501 15h-129z" />
    <glyph glyph-name="E" unicode="E" horiz-adv-x="561" 
d="M508 21c-1.33301 -7.33301 -3.33398 -12.668 -6.00098 -16.001s-7.66699 -5 -15 -5h-275c-33.333 0 -59.833 4.66699 -79.5 14s-34.5 21.666 -44.5 36.999s-16 33.333 -18 54s-1.33301 42.667 2 66l49 358c3.33301 22.667 8.33301 44.5 15 65.5s16.667 39.333 30 55
s30.5 28.167 51.5 37.5s47.5 14 79.5 14h268c7.33301 0 12 -1.66699 14 -5s2.66699 -8.66602 2 -15.999l-7 -42c-0.666992 -7.33301 -2.33398 -12.5 -5.00098 -15.5s-8 -4.5 -16 -4.5h-254c-27.333 0 -47.666 -6.16699 -60.999 -18.5s-22 -31.5 -26 -57.5l-18 -130h308
c7.33301 0 11.833 -1.66699 13.5 -5s2.16699 -8.66602 1.5 -15.999l-6 -38c-0.666992 -6.66699 -2.33398 -11.667 -5.00098 -15s-7.66699 -5 -15 -5h-308l-25 -174c-3.33301 -22.667 -0.166016 -40.834 9.50098 -54.501s28.5 -20.5 56.5 -20.5h274
c8 0 12.833 -1.66699 14.5 -5s1.83398 -8.66602 0.500977 -15.999l-5 -42v0z" />
    <glyph glyph-name="F" unicode="F" horiz-adv-x="552" 
d="M138 19c-0.666992 -8 -2.66797 -13.167 -6.00098 -15.5s-8.66602 -3.5 -15.999 -3.5h-48c-6.66699 0 -11.667 1.16699 -15 3.5s-4.33301 7.5 -3 15.5l71 510c3.33301 22.667 8.33301 44.5 15 65.5s16.5 39.333 29.5 55s30.333 28.167 52 37.5s49.167 14 82.5 14h268
c7.33301 0 12 -1.66699 14 -5s2.66699 -8.66602 2 -15.999l-7 -41c-0.666992 -8 -2.33398 -13.5 -5.00098 -16.5s-8 -4.5 -16 -4.5h-257c-27.333 0 -47.666 -6 -60.999 -18s-22 -31 -26 -57l-19 -140h305c8 0 13 -1.5 15 -4.5s2.33301 -8.16699 1 -15.5l-6 -39
c-1.33301 -6.66699 -3.33301 -11.834 -6 -15.501s-7.66699 -5.5 -15 -5.5h-306l-43 -304v0z" />
    <glyph glyph-name="G" unicode="G" horiz-adv-x="632" 
d="M508 343c0.666992 8 2.83203 13.1641 6.49902 15.4971s9.16699 3.5 16.5 3.5h47c7.33301 0 12.333 -1.16699 15 -3.5s3.33398 -7.5 2.00098 -15.5l-37 -277c-2 -12.667 -8.33301 -22.667 -19 -30c-18.667 -10.667 -38.167 -19 -58.5 -25s-40.166 -10.667 -59.499 -14
s-37.5 -5.5 -54.5 -6.5s-30.833 -1.5 -41.5 -1.5c-87.333 0 -152.166 23.167 -194.499 69.5s-63.5 117.166 -63.5 212.499c0 68.667 8.5 130.334 25.5 185.001s40.833 100.667 71.5 138s67 66 109 86s87.667 30 137 30c12 0 25.5 -0.5 40.5 -1.5s30.667 -3 47 -6
s32.833 -7.16699 49.5 -12.5s32.667 -12.333 48 -21c3.33301 -2 5.16602 -4.5 5.49902 -7.5s-1.16699 -8.16699 -4.5 -15.5l-19 -43c-4 -9.33301 -10.333 -11.666 -19 -6.99902c-22.667 11.333 -47.334 19.166 -74.001 23.499s-50 6.5 -70 6.5
c-48 0 -88.167 -10.333 -120.5 -31s-58.333 -47.834 -78 -81.501s-33.834 -71.667 -42.501 -114s-13 -85.166 -13 -128.499c0 -29.333 2.66699 -56.166 8 -80.499s14.666 -45.166 27.999 -62.499s31.333 -31 54 -41s51.334 -15 86.001 -15c6 0 14 0.333008 24 1
s21.167 1.83398 33.5 3.50098s25.333 4 39 7s26.834 7.16699 39.501 12.5z" />
    <glyph glyph-name="H" unicode="H" horiz-adv-x="667" 
d="M575 681c1.33301 8 3.66797 13.167 7.00098 15.5s8.66602 3.5 15.999 3.5h49c8 0 13.167 -1.16699 15.5 -3.5s3.16602 -7.5 2.49902 -15.5l-94 -662c-1.33301 -8 -3.33301 -13.167 -6 -15.5s-8 -3.5 -16 -3.5h-49c-7.33301 0 -12.5 1.16699 -15.5 3.5
s-3.83301 7.5 -2.5 15.5l44 310h-343l-44 -310c-1.33301 -8 -3.5 -13.167 -6.5 -15.5s-8.16699 -3.5 -15.5 -3.5h-49c-6.66699 0 -11.667 1.16699 -15 3.5s-4.33301 7.5 -3 15.5l93 662c1.33301 8 3.83301 13.167 7.5 15.5s8.83398 3.5 15.501 3.5h49
c7.33301 0 12.5 -1.16699 15.5 -3.5s3.83301 -7.5 2.5 -15.5l-38 -272h342z" />
    <glyph glyph-name="I" unicode="I" horiz-adv-x="260" 
d="M155 681c1.33301 8 3.83105 13.167 7.49805 15.5s9.16699 3.5 16.5 3.5h49c7.33301 0 12.333 -1.16699 15 -3.5s3.33398 -7.5 2.00098 -15.5l-94 -662c-0.666992 -8 -2.5 -13.167 -5.5 -15.5s-8.16699 -3.5 -15.5 -3.5h-49c-7.33301 0 -12.666 1.16699 -15.999 3.5
s-4.33301 7.5 -3 15.5z" />
    <glyph glyph-name="J" unicode="J" horiz-adv-x="549" 
d="M452 681c1.33301 8 3.83105 13.1699 7.49805 15.5029s8.83398 3.5 15.501 3.5h48c8 0 13.167 -1.16699 15.5 -3.5s2.83301 -7.5 1.5 -15.5l-19 -132.5l-14.5 -103.5l-12.5 -91l-13 -95c-6 -41.333 -14.167 -78.5 -24.5 -111.5s-25.333 -61.333 -45 -85
s-44.834 -41.834 -75.501 -54.501s-69 -19 -115 -19c-14 0 -29.667 0.833008 -47 2.5s-35 4.5 -53 8.5s-36.167 9.5 -54.5 16.5s-35.5 15.833 -51.5 26.5c-4 2 -6.5 4.5 -7.5 7.5s0.5 8.16699 4.5 15.5l27 46c4 8 11 8.66699 21 2c21.333 -12.667 45 -22.834 71 -30.501
s54 -11.5 84 -11.5c31.333 0 57.5 4.5 78.5 13.5s38.333 22.167 52 39.5s24.334 38.666 32.001 63.999s13.834 54.333 18.501 87z" />
    <glyph glyph-name="K" unicode="K" horiz-adv-x="612" 
d="M143 681c1.33301 8 3.83203 13.166 7.49902 15.499s8.83398 3.5 15.501 3.5h47c7.33301 0 12.5 -0.833008 15.5 -2.5s3.83301 -6.5 2.5 -14.5l-49 -349l4 -1l114 127l213 228c8 8 19 12 33 12h72c5.33301 0 8.5 -1.5 9.5 -4.5s-0.166992 -6.16699 -3.5 -9.5l-219 -235
l175 -431c5.33301 -13.333 1.33301 -20 -12 -20h-49c-10.667 0 -18.5 0.833008 -23.5 2.5s-9.16699 6.83398 -12.5 15.501l-142 365l-179 -194l-25 -170c-0.666992 -8 -2.5 -13.167 -5.5 -15.5s-8.5 -3.5 -16.5 -3.5h-47c-6.66699 0 -11.667 1.16699 -15 3.5
s-4.33301 7.5 -3 15.5z" />
    <glyph glyph-name="L" unicode="L" horiz-adv-x="535" 
d="M143 683c1.33301 8 3.83398 13.166 7.50098 15.499s8.83398 3.5 15.501 3.5h48c7.33301 0 12.5 -1.16699 15.5 -3.5s3.83301 -7.5 2.5 -15.5l-73 -517c-8 -54.667 15 -82 69 -82h270c6 0 9.66699 -1.5 11 -4.5s1.66602 -7.16699 0.999023 -12.5l-7 -50
c-1.33301 -5.33301 -2.83301 -9.5 -4.5 -12.5s-5.5 -4.5 -11.5 -4.5h-277c-31.333 0 -56.833 4.33301 -76.5 13s-34.667 20.334 -45 35.001s-16.833 32 -19.5 52s-2.33398 41.333 0.999023 64z" />
    <glyph glyph-name="M" unicode="M" horiz-adv-x="786" 
d="M678 538h-4.99512l-72 -137c-2.66699 -5.33301 -8 -15.166 -16 -29.499l-27 -50l-32.5 -60.5l-32.5 -60.5l-27 -50l-16 -28.5c-7.33301 -15.333 -14.5 -25.833 -21.5 -31.5s-18.167 -8.5 -33.5 -8.5h-32c-15.333 0 -25.833 2.83301 -31.5 8.5s-10.167 16.167 -13.5 31.5
l-7.5 29.5l-13 49.5l-15.5 60l-15.5 60l-13.5 49.5c-4 14.333 -6.66699 24.166 -8 29.499l-33 128h-5l-72 -511c-1.33301 -7.33301 -3.33301 -12 -6 -14s-7.66699 -3 -15 -3h-48c-6 0 -10.5 1 -13.5 3s-3.83301 6.66699 -2.5 14l89 634c2 15.333 6.66699 27.5 14 36.5
s20.666 13.5 39.999 13.5h23c14 0 24.333 -2.5 31 -7.5s12 -15.833 16 -32.5c0.666992 -1.33301 3 -10.333 7 -27s9.16699 -37.167 15.5 -61.5l20 -78.5l20 -79.5l16 -64c4.33301 -17.667 7.16602 -28.167 8.49902 -31.5l36 -153h4l13 26l24.5 48.5l25 48.5l13.5 26
c3.33301 6.66699 10 19.167 20 37.5l34 63.5l40.5 76.5l40 75.5l32 60.5c9 17 14.833 27.833 17.5 32.5c8.66699 16.667 17.167 27.5 25.5 32.5s19.166 7.5 32.499 7.5h31c19.333 0 31.5 -4.5 36.5 -13.5s6.16699 -21.167 3.5 -36.5l-89 -634
c-1.33301 -7.33301 -3.33301 -12 -6 -14s-7.33398 -3 -14.001 -3h-49c-6.66699 0 -11.334 1 -14.001 3s-3.66699 6.66699 -3 14z" />
    <glyph glyph-name="N" unicode="N" horiz-adv-x="670" 
d="M580 682c1.33301 8 3.83496 13.167 7.50195 15.5s9.16699 3.5 16.5 3.5h47c7.33301 0 12.166 -1.16699 14.499 -3.5s2.83301 -7.5 1.5 -15.5l-88 -632c-2.66699 -16.667 -7.66699 -29.167 -15 -37.5s-20.333 -12.5 -39 -12.5h-25c-14.667 0 -24.834 3 -30.501 9
s-11.5 16.333 -17.5 31l-182 420l-52 122h-3l-78 -563c-1.33301 -8 -3.5 -13.167 -6.5 -15.5s-8.5 -3.5 -16.5 -3.5h-46c-6.66699 0 -11.667 1.16699 -15 3.5s-4.33301 7.5 -3 15.5l88 632c2.66699 16.667 8 29.167 16 37.5s21 12.5 39 12.5h25c14.667 0 24.667 -3 30 -9
s11.333 -16.333 18 -31l172 -399l60 -144h3z" />
    <glyph glyph-name="O" unicode="O" horiz-adv-x="684" 
d="M412 711c82 0 144.001 -23.667 186.001 -71s63 -114 63 -200c0 -61.333 -7.5 -119.333 -22.5 -174s-37.167 -102.5 -66.5 -143.5s-65.333 -73.5 -108 -97.5s-91.667 -36 -147 -36c-80.667 0 -142 22.833 -184 68.5s-63 110.5 -63 194.5c0 72.667 9 137.5 27 194.5
s42.5 105 73.5 144s67.167 68.833 108.5 89.5s85.666 31 132.999 31zM407.001 629c-42.667 0 -79.6699 -10.4971 -111.003 -31.4971s-57.166 -48.667 -77.499 -83s-35.333 -73.5 -45 -117.5s-14.5 -89 -14.5 -135c0 -28.667 3 -54.834 9 -78.501s15.5 -43.834 28.5 -60.501
s30 -29.5 51 -38.5s46.833 -13.5 77.5 -13.5c42.667 0 79.834 10.333 111.501 31s57.834 48.167 78.501 82.5s36 73.5 46 117.5s15 89.333 15 136c0 26.667 -2.83301 51.667 -8.5 75s-15.167 43.666 -28.5 60.999s-30.833 30.833 -52.5 40.5s-48.167 14.5 -79.5 14.5z" />
    <glyph glyph-name="P" unicode="P" horiz-adv-x="587" 
d="M414 702c58.667 0 104.502 -17.167 137.502 -51.5s49.5 -80.166 49.5 -137.499c0 -24.667 -3.83301 -50.667 -11.5 -78s-20.834 -52.333 -39.501 -75s-43.834 -41.5 -75.501 -56.5s-71.5 -22.5 -119.5 -22.5h-180l-38 -262c-0.666992 -8 -2.5 -13.167 -5.5 -15.5
s-8.5 -3.5 -16.5 -3.5h-47c-6.66699 0 -11.667 1.16699 -15 3.5s-4.33301 7.5 -3 15.5l89 632c2.66699 17.333 8.16699 30.166 16.5 38.499s21.5 12.5 39.5 12.5h219zM223.002 617l-36.001 -255h165c50.667 0 89.334 13.167 116.001 39.5s40 61.833 40 106.5
c0 12.667 -1.83301 25.5 -5.5 38.5s-10 24.833 -19 35.5s-21.5 19.167 -37.5 25.5s-36 9.5 -60 9.5h-163z" />
    <glyph glyph-name="Q" unicode="Q" horiz-adv-x="684" 
d="M276 -136c-6 0 -9.66797 1.33301 -11.001 4s-1.66602 7 -0.999023 13l8 45c0.666992 6 2 10.167 4 12.5s6 3.5 12 3.5h89c31.333 0 59.5 -2 84.5 -6s47 -9.16699 66 -15.5s35.167 -13 48.5 -20s24 -13.5 32 -19.5c4.66699 -3.33301 7.5 -5.83301 8.5 -7.5
s-0.166992 -5.16699 -3.5 -10.5l-27 -45c-3.33301 -4.66699 -6.5 -6.66699 -9.5 -6s-7.83301 2.66699 -14.5 6c-24 13.333 -52.833 24.333 -86.5 33s-71.5 13 -113.5 13h-86zM411.999 711c82 0 144.001 -23.667 186.001 -71s63 -114 63 -200
c0 -61.333 -7.5 -119.333 -22.5 -174s-37.167 -102.5 -66.5 -143.5s-65.333 -73.5 -108 -97.5s-91.667 -36 -147 -36c-80.667 0 -142 22.833 -184 68.5s-63 110.5 -63 194.5c0 72.667 9 137.5 27 194.5s42.5 105 73.5 144s67.167 68.833 108.5 89.5s85.666 31 132.999 31z
M406 628c-42.667 0 -79.501 -10.3311 -110.501 -30.998s-56.667 -48.167 -77 -82.5s-35.333 -73.5 -45 -117.5s-14.5 -89 -14.5 -135c0 -28.667 3 -54.834 9 -78.501s15.5 -43.834 28.5 -60.501s30 -29.5 51 -38.5s46.5 -13.5 76.5 -13.5c42.667 0 79.834 10.333 111.501 31
s58 48.167 79 82.5s36.5 73.5 46.5 117.5s15 89.333 15 136c0 26.667 -2.83301 51.667 -8.5 75s-15.167 43.5 -28.5 60.5s-30.833 30.333 -52.5 40s-48.5 14.5 -80.5 14.5z" />
    <glyph glyph-name="R" unicode="R" horiz-adv-x="607" 
d="M227 617l-34 -236h162c25.333 0 47.5 3.83301 66.5 11.5s34.667 18 47 31s21.666 28 27.999 45s9.5 34.833 9.5 53.5c0 12 -1.83301 23.667 -5.5 35s-9.66699 21.5 -18 30.5s-19.666 16.167 -33.999 21.5s-31.833 8 -52.5 8h-169zM417 702
c28 0 53.1631 -4.16602 75.4961 -12.499s41.333 -20 57 -35s27.5 -33 35.5 -54s12 -43.833 12 -68.5c0 -52.667 -13 -95.334 -39 -128.001s-58.333 -56 -97 -70v-4c25.333 -8.66699 42.5 -21.5 51.5 -38.5s15.167 -37.833 18.5 -62.5l26 -211
c0.666992 -3.33301 0.333984 -7.16602 -0.999023 -11.499s-5.66602 -6.5 -12.999 -6.5h-64c-3.33301 0 -6.66602 0.666992 -9.99902 2s-5.66602 5 -6.99902 11l-23 191c-2.66699 19.333 -7.33398 35.333 -14.001 48s-15.167 22.667 -25.5 30s-22.166 12.333 -35.499 15
s-28 4 -44 4h-139l-40 -282c-1.33301 -8 -3.5 -13.167 -6.5 -15.5s-8.16699 -3.5 -15.5 -3.5h-51c-6.66699 0 -11.667 1.16699 -15 3.5s-4.33301 7.5 -3 15.5l89 632c2.66699 17.333 8.16699 30.166 16.5 38.499s21.5 12.5 39.5 12.5h222z" />
    <glyph glyph-name="S" unicode="S" horiz-adv-x="553" 
d="M329 629c-42.667 0 -75.3311 -9.50098 -97.998 -28.501s-34 -43.833 -34 -74.5c0 -25.333 13.5 -47.166 40.5 -65.499s65.833 -38.833 116.5 -61.5c24 -10.667 47 -22 69 -34s41.333 -25.833 58 -41.5s30 -33.667 40 -54s15 -44.5 15 -72.5
c0 -36.667 -7 -68.167 -21 -94.5s-32.833 -47.833 -56.5 -64.5s-51.167 -29 -82.5 -37s-64.333 -12 -99 -12c-38 0 -79.167 3.5 -123.5 10.5s-84.5 20.5 -120.5 40.5c-6 4 -6.66699 10.667 -2 20l26 53c3.33301 7.33301 9 9.33301 17 6c31.333 -16 64 -27.833 98 -35.5
s66 -11.5 96 -11.5c56 0 98.333 9.83301 127 29.5s43 49.834 43 90.501c0 16 -3 30 -9 42s-14.833 23 -26.5 33s-26.334 19.5 -44.001 28.5s-38.167 18.833 -61.5 29.5c-34 16 -63.5 31.167 -88.5 45.5s-45.5 29.166 -61.5 44.499s-28 31.833 -36 49.5s-12 37.5 -12 59.5
c0 60.667 21.167 107.167 63.5 139.5s100.166 48.5 173.499 48.5c32 0 65.833 -3.33301 101.5 -10s67.5 -16.667 95.5 -30c3.33301 -1.33301 5.66602 -3.16602 6.99902 -5.49902s1.33301 -6.16602 0 -11.499l-20 -56c-2.66699 -4.66699 -5 -7.33398 -7 -8.00098
s-4.33301 -0.333984 -7 0.999023c-31.333 13.333 -62.166 22.833 -92.499 28.5s-58.5 8.5 -84.5 8.5z" />
    <glyph glyph-name="T" unicode="T" horiz-adv-x="531" 
d="M278 619h-188.004c-6.66699 0 -10.667 1.16699 -12 3.5s-1.66602 6.5 -0.999023 12.5l8 49c1.33301 5.33301 2.83301 9.33301 4.5 12s5.5 4 11.5 4h475c6 0 9.83301 -1.33301 11.5 -4s1.83398 -6.66699 0.500977 -12l-7 -49c-0.666992 -6 -2 -10.167 -4 -12.5
s-6.33301 -3.5 -13 -3.5h-195l-84 -600c-1.33301 -8 -3.33301 -13.167 -6 -15.5s-7.66699 -3.5 -15 -3.5h-51c-7.33301 0 -12.666 1.16699 -15.999 3.5s-4.66602 7.5 -3.99902 15.5z" />
    <glyph glyph-name="U" unicode="U" horiz-adv-x="660" 
d="M142 681c1.33301 8 3.83203 13.1729 7.49902 15.5059s8.83398 3.5 15.501 3.5h51c7.33301 0 12.333 -1.16699 15 -3.5s3.66699 -7.5 3 -15.5l-53 -374c-6 -40.667 -8.83301 -75.834 -8.5 -105.501s6.33301 -54.334 18 -74.001s30.334 -34.167 56.001 -43.5
s61.167 -14 106.5 -14c11.333 0 29 0.666992 53 2s50.333 4.66602 79 9.99902l85 599c1.33301 8 3.66602 13.167 6.99902 15.5s8.33301 3.5 15 3.5h52c7.33301 0 11.833 -1.16699 13.5 -3.5s1.83398 -7.5 0.500977 -15.5l-83 -593c-3.33301 -23.333 -11.333 -42.5 -24 -57.5
s-33.334 -25.167 -62.001 -30.5c-24.667 -4.66699 -51 -7.83398 -79 -9.50098s-52 -2.5 -72 -2.5c-56 0 -101.833 5.16699 -137.5 15.5s-63 27.666 -82 51.999s-30.5 56.666 -34.5 96.999s-1.66699 90.5 7 150.5z" />
    <glyph glyph-name="V" unicode="V" horiz-adv-x="611" 
d="M352 37c-6.66699 -13.333 -12.835 -22.666 -18.502 -27.999s-15.167 -8.33301 -28.5 -9h-42c-14 0 -24.167 2.33301 -30.5 7s-11.166 14.667 -14.499 30l-131 651c-1.33301 8.66699 2 13 10 13h67c8 0 13 -4 15 -12c0 -1.33301 1.83301 -11.833 5.5 -31.5l13.5 -74
l17.5 -97l18 -101l15.5 -86c4.66699 -25 8 -41.833 10 -50.5c0.666992 -2 2.5 -10.667 5.5 -26l9.5 -50l9.5 -50.5c3 -15.667 4.83301 -24.834 5.5 -27.501h5l68 153l207 441c2.66699 6 5.5 9.5 8.5 10.5s7.16699 1.5 12.5 1.5h70c6.66699 0 8.33398 -4.33301 5.00098 -13z
" />
    <glyph glyph-name="W" unicode="W" horiz-adv-x="807" 
d="M461 597l-54.0029 -154l-144 -399c-5.33301 -13.333 -11.5 -24 -18.5 -32s-17.167 -12 -30.5 -12h-41c-13.333 -0 -24 2.33301 -32 7s-12.667 14.667 -14 30l-40 651c-1.33301 8.66699 1.66699 13 9 13h67c8.66699 0 13.667 -4 15 -12l17 -418l6 -162h5l57 162l138 386
c4 12 10 22.333 18 31s21 13 39 13h41c14.667 0 24.334 -4 29.001 -12s7.66699 -18.667 9 -32l28 -382l10 -166h6l53 167l135 413c2.66699 8 8.66699 12 18 12h70c3.33301 0 5.33301 -1.33301 6 -4s0.333984 -5.66699 -0.999023 -9l-225 -651
c-5.33301 -15.333 -12.333 -25.333 -21 -30s-19.667 -7 -33 -7h-41c-12.667 -0 -21.667 3.83301 -27 11.5s-8.66602 18.5 -9.99902 32.5l-33 400l-7 153h-4z" />
    <glyph glyph-name="X" unicode="X" horiz-adv-x="544" 
d="M508 13c1.33301 -2.66699 1.33203 -5.5 -0.000976562 -8.5s-4 -4.5 -8 -4.5h-65c-8 0 -13.5 1 -16.5 3s-5.83301 5.66699 -8.5 11l-119 275l-196 -275c-4 -5.33301 -7.83301 -9 -11.5 -11s-9.16699 -3 -16.5 -3h-73c-4.66699 -0 -7.33398 1.33301 -8.00098 4
s0 5.66699 2 9l258 348l-149 328c-1.33301 2 -1.16602 4.5 0.500977 7.5s4.83398 4.5 9.50098 4.5h62c8 0 13.5 -0.833008 16.5 -2.5s5.83301 -5.5 8.5 -11.5l110 -251l180 251c4 5.33301 7.83301 9 11.5 11s9.16699 3 16.5 3h69c4.66699 0 7.5 -1.5 8.5 -4.5
s0.166992 -6.16699 -2.5 -9.5l-239 -324l160 -350v0z" />
    <glyph glyph-name="Y" unicode="Y" horiz-adv-x="547" 
d="M333 280l-37.002 -265c-1.33301 -6.66699 -3 -10.834 -5 -12.501s-6 -2.5 -12 -2.5h-56c-5.33301 0 -9.16602 0.833008 -11.499 2.5s-3.16602 5.83398 -2.49902 12.501l37 265l-163 410c-1.33301 2 -1.16602 4.33301 0.500977 7s4.5 4 8.5 4h67
c5.33301 0 9 -0.833008 11 -2.5s4 -5.16699 6 -10.5l65 -172l54 -154h4l101 160l109 166c3.33301 5.33301 6.33301 8.83301 9 10.5s6.66699 2.5 12 2.5h73c3.33301 0 5.16602 -1.33301 5.49902 -4s-0.166992 -5 -1.5 -7z" />
    <glyph glyph-name="Z" unicode="Z" horiz-adv-x="589" 
d="M568 701c16 0 28.002 -3.16602 36.002 -9.49902s10.667 -17.833 8 -34.5l-3 -21c-1.33301 -12 -4.83301 -22.333 -10.5 -31s-12.834 -17.667 -21.501 -27l-459 -493v-6h404c6 0 9.66699 -1.16699 11 -3.5s1.33301 -6.5 0 -12.5l-6 -47
c-1.33301 -5.33301 -2.83301 -9.33301 -4.5 -12s-5.5 -4 -11.5 -4h-462c-14.667 0 -26 3.33301 -34 10s-10.333 17.334 -7 32.001l3 19c2 12.667 5.16699 22.5 9.5 29.5s10.166 14.167 17.499 21.5c4.66699 5.33301 14.667 16.166 30 32.499l55 59l71.5 76.5l80.5 85.5
l80.5 85l71.5 76l55 59c15.333 16.333 25.333 27.166 30 32.499v3h-357c-6.66699 0 -10.667 1.33301 -12 4s-1.33301 6.66699 0 12l7 48c0.666992 5.33301 2 9.33301 4 12s6 4 12 4h402z" />
    <glyph glyph-name="bracketleft" unicode="[" horiz-adv-x="299" 
d="M237 -69c-0.666992 -5.33301 -2.00098 -9.50195 -4.00098 -12.502s-6 -4.5 -12 -4.5h-181c-6 0 -9.66699 1.5 -11 4.5s-1.66602 7.16699 -0.999023 12.5l108 773c1.33301 5.33301 3 9.33301 5 12s6 4 12 4h182c6 0 9.66699 -1.33301 11 -4s1.33301 -6.66699 0 -12l-4 -36
c-1.33301 -5.33301 -3 -9.16602 -5 -11.499s-6 -3.5 -12 -3.5h-112l-95 -671h113c5.33301 0 8.83301 -1.16699 10.5 -3.5s2.16699 -6.16602 1.5 -11.499l-6 -36v0z" />
    <glyph glyph-name="backslash" unicode="\" horiz-adv-x="420" 
d="M372 -82c1.33301 -5.33301 0.499023 -9 -2.50098 -11s-6.5 -3 -10.5 -3h-55c-9.33301 0 -15 4.66699 -17 14l-190 846c-1.33301 5.33301 -0.333008 9 3 11s6.33301 3 9 3h56c8.66699 0 14.334 -4.66699 17.001 -14l190 -846v0z" />
    <glyph glyph-name="bracketright" unicode="]" horiz-adv-x="299" 
d="M223 -69c-0.666992 -5.33301 -2.00195 -9.49805 -4.00195 -12.498s-6 -4.5 -12 -4.5h-181c-6.66699 0 -10.667 1.5 -12 4.5s-1.66602 7.16699 -0.999023 12.5l6 36c1.33301 5.33301 2.83301 9.16602 4.5 11.499s5.5 3.5 11.5 3.5h112l94 671h-111
c-6.66699 0 -10.667 1.16699 -12 3.5s-1.66602 6.16602 -0.999023 11.499l5 36c1.33301 5.33301 3 9.33301 5 12s6 4 12 4h182c6 0 9.66699 -1.33301 11 -4s1.33301 -6.66699 0 -12l-109 -773v0z" />
    <glyph glyph-name="asciicircum" unicode="^" horiz-adv-x="509" 
d="M284 701c5.33301 7.33301 10.498 13.3301 15.498 17.9971s11.167 7 18.5 7h16c9.33301 0 15.5 -1.5 18.5 -4.5s6.16699 -8.83301 9.5 -17.5l137 -310c2.66699 -5.33301 2.83398 -9.16602 0.500977 -11.499s-5.83301 -3.5 -10.5 -3.5h-56
c-11.333 0 -18.333 4.66699 -21 14l-96 226h-3c-2 -3.33301 -7.16699 -10.666 -15.5 -21.999l-28.5 -40l-34.5 -49l-34.5 -49l-28.5 -40.5c-8.33301 -11.667 -13.5 -19.167 -15.5 -22.5c-4.66699 -7.33301 -8.66699 -12.166 -12 -14.499s-8.66602 -3.5 -15.999 -3.5h-60
c-6 0 -9.5 1.5 -10.5 4.5s0.166992 6.83301 3.5 11.5z" />
    <glyph glyph-name="underscore" unicode="_" horiz-adv-x="485" 
d="M-43 -126c-6 0 -9.66602 1.16699 -10.999 3.5s-1.33301 6.5 0 12.5l2 22c1.33301 5.33301 3 9.33301 5 12s6.33301 4 13 4h484c6 0 9.66699 -1.33301 11 -4s1.66602 -6.66699 0.999023 -12l-3 -22c-1.33301 -6 -3 -10.167 -5 -12.5s-6.33301 -3.5 -13 -3.5h-484v0z" />
    <glyph glyph-name="grave" unicode="`" horiz-adv-x="492" 
d="M345 587c-4 -2 -7.49902 -2.66699 -10.499 -2s-6.83301 3.33398 -11.5 8.00098l-128 145c-5.33301 6 -4 11 4 15l63 30c5.33301 2 9.16602 2.16699 11.499 0.5s4.83301 -4.16699 7.5 -7.5l93 -155c2.66699 -5.33301 3.66699 -8.83301 3 -10.5
s-2.66699 -3.83398 -6 -6.50098z" />
    <glyph glyph-name="a" unicode="a" horiz-adv-x="543" 
d="M325 536c22 0 48.5 -1.33105 79.5 -3.99805s64.167 -8.66699 99.5 -18c10.667 -3.33301 16.667 -7.5 18 -12.5s1.33301 -11.167 0 -18.5l-32 -224c-10 -71.333 -19.667 -144.333 -29 -219c-0.666992 -8.66699 -6 -15.334 -16 -20.001c-14.667 -6 -30.667 -11 -48 -15
s-34.833 -7.16699 -52.5 -9.5s-35.167 -4 -52.5 -5s-33 -1.5 -47 -1.5c-36 0 -66.5 5 -91.5 15s-45.167 23.667 -60.5 41s-26.333 37.666 -33 60.999s-10 48.333 -10 75c0 50 5.16699 96.5 15.5 139.5s26.5 80.5 48.5 112.5s50.333 57.167 85 75.5s76.667 27.5 126 27.5z
M270 64.002c7.33301 0 15.8311 0.333008 25.498 1s19.5 1.66699 29.5 3s19.833 3 29.5 5s18.5 4.66699 26.5 8c8 64 16.167 125.667 24.5 185l26.5 181c-16.667 5.33301 -35.167 9 -55.5 11s-38.166 3 -53.499 3c-24 0 -47.167 -4.5 -69.5 -13.5s-42.166 -24 -59.499 -45
s-31.333 -48.833 -42 -83.5s-16 -78 -16 -130c0 -40.667 10.167 -71.667 30.5 -93s54.833 -32 103.5 -32z" />
    <glyph glyph-name="b" unicode="b" horiz-adv-x="543" 
d="M309 460c-12.667 0 -30.333 -1.16895 -53 -3.50195s-46.667 -7.83301 -72 -16.5l-51 -361c19.333 -6.66699 39 -11 59 -13s37.667 -3 53 -3c24 0 46.833 5 68.5 15s41 25.333 58 46s30.5 46.834 40.5 78.501s15 68.834 15 111.501c0 97.333 -39.333 146 -118 146z
M194.001 514.998c21.333 6.66699 44.666 11.833 69.999 15.5s47 5.5 65 5.5c34 0 62.667 -5.16699 86 -15.5s42.166 -25 56.499 -44s24.833 -41.667 31.5 -68s10 -55.833 10 -88.5c0 -48 -6 -92.167 -18 -132.5s-29.667 -75.333 -53 -105s-52.166 -52.667 -86.499 -69
s-74.166 -24.5 -119.499 -24.5c-30 0 -61.167 2.5 -93.5 7.5s-62.166 13.833 -89.499 26.5c-8 2.66699 -11 8.66699 -9 18l94 675c1.33301 6.66699 3.33301 10.834 6 12.501s6.66699 2.5 12 2.5h54c5.33301 0 9.16602 -0.833008 11.499 -2.5s2.83301 -5.83398 1.5 -12.501z
" />
    <glyph glyph-name="c" unicode="c" horiz-adv-x="464" 
d="M302 458c-30 0 -55.5 -7.49902 -76.5 -22.499s-38.167 -34.667 -51.5 -59s-23 -51.833 -29 -82.5s-9 -61.667 -9 -93c0 -20 2.16699 -38.333 6.5 -55s11.333 -31 21 -43s22.334 -21.333 38.001 -28s35.167 -10 58.5 -10c22 0 44.333 2.83301 67 8.5
s41.334 11.5 56.001 17.5c6.66699 3.33301 10.834 4.16602 12.501 2.49902s3.5 -4.16699 5.5 -7.5l19 -42c4 -8.66699 1.33301 -15.667 -8 -21c-26.667 -14 -54.5 -23.167 -83.5 -27.5s-55.5 -6.5 -79.5 -6.5c-62.667 0 -111.167 17.167 -145.5 51.5
s-51.5 86.833 -51.5 157.5c0 50 5.66699 95.667 17 137s27.666 77 48.999 107s47.166 53.167 77.499 69.5s64.833 24.5 103.5 24.5c26 0 53.167 -2.66699 81.5 -8s52.5 -14.333 72.5 -27c6.66699 -4 7.66699 -11 3 -21l-18 -41c-4 -9.33301 -10.667 -11.333 -20 -6
c-14.667 7.33301 -32.334 13.333 -53.001 18s-41.667 7 -63 7z" />
    <glyph glyph-name="d" unicode="d" horiz-adv-x="542" 
d="M469 716c1.33301 6.66699 3.16797 10.834 5.50098 12.501s6.16602 2.5 11.499 2.5h55c5.33301 0 9.16602 -0.833008 11.499 -2.5s2.83301 -5.83398 1.5 -12.501l-94 -673c-1.33301 -4.66699 -2.83301 -8.33398 -4.5 -11.001s-5.16699 -5 -10.5 -7
c-35.333 -15.333 -71 -25.166 -107 -29.499s-68 -6.5 -96 -6.5c-34.667 0 -64.167 5.16699 -88.5 15.5s-44 25 -59 44s-26 41.333 -33 67s-10.5 54.167 -10.5 85.5c0 45.333 5.66699 88.333 17 129s28.5 76.167 51.5 106.5s51.833 54.5 86.5 72.5s75.334 27 122.001 27
c14.667 0 32 -1 52 -3s40.333 -6 61 -12zM431.002 444c-23.333 7.33301 -43.334 12.002 -60.001 14.002s-32.667 3 -48 3c-23.333 0 -46 -4.5 -68 -13.5s-41.667 -23.833 -59 -44.5s-31.166 -47.334 -41.499 -80.001s-15.5 -72.667 -15.5 -120
c0 -50 10.833 -85.667 32.5 -107s53.167 -32 94.5 -32c8 0 17 0.5 27 1.5s20.167 2.16699 30.5 3.5s20.5 3.16602 30.5 5.49902s18.667 4.83301 26 7.5z" />
    <glyph glyph-name="e" unicode="e" horiz-adv-x="491" 
d="M304 463c-44 0 -79.4971 -13.667 -106.497 -41s-44.833 -68.333 -53.5 -123c13.333 -1.33301 27.166 -2.33301 41.499 -3s27.166 -1 38.499 -1c34 0 62.5 2 85.5 6s41.5 9.83301 55.5 17.5s23.833 17.5 29.5 29.5s8.5 26 8.5 42c0 18.667 -7.33301 35.5 -22 50.5
s-40.334 22.5 -77.001 22.5zM238.003 -11c-63.333 0 -110.501 15.999 -141.501 47.999s-46.5 83.333 -46.5 154c0 60 6.66699 111.667 20 155s31.833 79 55.5 107s51.334 48.833 83.001 62.5s65.5 20.5 101.5 20.5c33.333 0 60.833 -4.5 82.5 -13.5s39 -20.167 52 -33.5
s22.167 -28 27.5 -44s8 -31.333 8 -46c0 -59.333 -20.667 -102.5 -62 -129.5s-105.333 -40.5 -192 -40.5c-14 0 -28.667 0.333008 -44 1s-31 2.33398 -47 5.00098c-2 -15.333 -3 -29.333 -3 -42c-0.666992 -44 8.5 -76.333 27.5 -97s50.5 -31 94.5 -31
c21.333 0 42 2.83301 62 8.5s37.667 12.167 53 19.5c5.33301 2 9 2.66699 11 2s4 -3 6 -7l21 -42c3.33301 -8 0.333008 -14.667 -9 -20c-25.333 -14.667 -52 -24.5 -80 -29.5s-54.667 -7.5 -80 -7.5z" />
    <glyph glyph-name="f" unicode="f" horiz-adv-x="330" 
d="M401 664c-1.33301 -4.66699 -3.67285 -7.49902 -7.00586 -8.49902s-6.66602 -1.16699 -9.99902 -0.5c-13.333 2.66699 -25.666 4.33398 -36.999 5.00098s-21.666 1 -30.999 1c-27.333 0 -46.5 -6 -57.5 -18s-18.167 -27.667 -21.5 -47l-10 -71h124
c6 0 9.83301 -1.16699 11.5 -3.5s1.83398 -6.16602 0.500977 -11.499l-5 -40c-1.33301 -4 -3 -7.33301 -5 -10s-6 -4 -12 -4h-124l-82 -614c-0.666992 -6.66699 -2.16699 -11.334 -4.5 -14.001s-6.16602 -5 -11.499 -7l-60 -21c-6 -2.66699 -10.333 -2.5 -13 0.5
s-3.33398 7.83301 -2.00098 14.5l89 641h-73c-9.33301 0 -13 4.33301 -11 13l3 24c0.666992 5.33301 2 9.16602 4 11.499s6 4.16602 12 5.49902c1.33301 0 5.83301 0.833008 13.5 2.5l24 5c8.33301 1.66699 16.333 3.16699 24 4.5s12.167 2 13.5 2l10 67
c6 46 20.833 82.167 44.5 108.5s60.834 39.5 111.501 39.5c9.33301 0 22.833 -0.666992 40.5 -2s35.167 -5.33301 52.5 -12c5.33301 -1.33301 8.33301 -3.33301 9 -6s0.333984 -6 -0.999023 -10z" />
    <glyph glyph-name="g" unicode="g" horiz-adv-x="542" 
d="M454 6c-4 -28 -9.16504 -55.3379 -15.498 -82.0049s-17 -50.5 -32 -71.5s-36 -37.833 -63 -50.5s-63.5 -19 -109.5 -19c-14 0 -28.833 0.833008 -44.5 2.5s-31 3.83398 -46 6.50098s-29.167 5.66699 -42.5 9s-24.333 7 -33 11c-8 3.33301 -12.833 6 -14.5 8
s-0.833984 6 2.49902 12l16 46c2.66699 6.66699 5.5 10 8.5 10s7.5 -0.666992 13.5 -2c9.33301 -3.33301 19.833 -6.5 31.5 -9.5s23.667 -5.66699 36 -8s24.666 -4.16602 36.999 -5.49902s23.833 -2 34.5 -2c24 0 43.833 2.5 59.5 7.5s28.5 13.333 38.5 25
s17.833 27 23.5 46s10.5 42.5 14.5 70.5c-21.333 -6.66699 -44.5 -12 -69.5 -16s-46.5 -6 -64.5 -6c-33.333 0 -61.5 5.16699 -84.5 15.5s-42 25 -57 44s-25.833 41.5 -32.5 67.5s-10 55 -10 87c0 48.667 5.83301 93.334 17.5 134.001s29.167 75.834 52.5 105.501
s52.333 52.667 87 69s75 24.5 121 24.5c30.667 0 62 -2.5 94 -7.5s62 -13.5 90 -25.5c7.33301 -3.33301 10.333 -9.66602 9 -18.999zM321.002 460.995c-24 0 -47.165 -5.16699 -69.498 -15.5s-42 -25.833 -59 -46.5s-30.5 -46.834 -40.5 -78.501s-15 -69.5 -15 -113.5
c0 -46.667 10.167 -82.167 30.5 -106.5s49.833 -36.5 88.5 -36.5c12 0 29.333 1.16699 52 3.5s47 7.83301 73 16.5l6 42l9 63.5l10.5 74.5l10.5 74.5c3.33301 23.667 6.16602 44.834 8.49902 63.501s4.16602 32.667 5.49902 42c-18 6.66699 -37 11.167 -57 13.5
s-37.667 3.5 -53 3.5z" />
    <glyph glyph-name="h" unicode="h" horiz-adv-x="545" 
d="M460 15c-1.33301 -6.66699 -3.34082 -10.832 -6.00781 -12.499s-6.66699 -2.5 -12 -2.5h-54c-5.33301 0 -9.16602 0.833008 -11.499 2.5s-3.16602 5.83398 -2.49902 12.501l40 285c8 54 4.83301 94.167 -9.5 120.5s-45.5 39.5 -93.5 39.5
c-9.33301 0 -19.666 -0.333008 -30.999 -1s-22.666 -1.83398 -33.999 -3.50098s-22.5 -3.83398 -33.5 -6.50098s-20.833 -6 -29.5 -10l-59 -424c-1.33301 -6.66699 -3.16602 -10.834 -5.49902 -12.501s-6.16602 -2.5 -11.499 -2.5h-53c-5.33301 0 -9.33301 0.833008 -12 2.5
s-3.33398 5.83398 -2.00098 12.501l98 701c1.33301 6.66699 3.33301 10.834 6 12.501s6.66699 2.5 12 2.5h53c5.33301 0 9.16602 -0.833008 11.499 -2.5s2.83301 -5.83398 1.5 -12.501l-28 -203c22 8.66699 46.333 14.667 73 18s49.334 5 68.001 5
c36.667 0 66.834 -5.5 90.501 -16.5s41.834 -26.667 54.501 -47s20.334 -45 23.001 -74s1.66699 -61.833 -3 -98.5z" />
    <glyph glyph-name="i" unicode="i" horiz-adv-x="252" 
d="M202 724c14.667 0 26.5 -4.83203 35.5 -14.499s13.5 -21.834 13.5 -36.501c0 -18 -6.83301 -33.5 -20.5 -46.5s-28.834 -19.5 -45.501 -19.5c-13.333 0 -24.666 4.66699 -33.999 14s-14 21 -14 35c0 18 6.5 33.833 19.5 47.5s28.167 20.5 45.5 20.5zM144 15.001
c-1.33301 -6.66699 -3.16699 -10.834 -5.5 -12.501s-6.5 -2.5 -12.5 -2.5h-52c-5.33301 -0 -9.5 0.833008 -12.5 2.5s-3.83301 5.83398 -2.5 12.501l69 495c1.33301 6.66699 3.5 10.834 6.5 12.501s7.16699 2.5 12.5 2.5h52c6 0 10.167 -0.833008 12.5 -2.5
s2.83301 -5.83398 1.5 -12.501z" />
    <glyph glyph-name="j" unicode="j" horiz-adv-x="265" 
d="M213 724c14 0 25.668 -4.83301 35.001 -14.5s14 -21.5 14 -35.5c-0.666992 -18.667 -7.66699 -34.5 -21 -47.5s-28.333 -19.5 -45 -19.5c-14 0 -25.667 4.66699 -35 14s-14 21 -14 35c0 18 6.66699 33.833 20 47.5s28.666 20.5 45.999 20.5zM163.001 70
c-6.66699 -46.667 -15.667 -86.3301 -27 -118.997s-25.833 -60.334 -43.5 -83.001s-38.667 -40.834 -63 -54.501s-52.5 -24.834 -84.5 -33.501c-8 -2.66699 -12.667 0 -14 8l-17 51c-0.666992 8 3.33301 13.667 12 17c28.667 10 52 21.5 70 34.5s32.333 27.667 43 44
s18.667 34.333 24 54s9.66602 41.5 12.999 65.5l64 456c0.666992 6.66699 2.5 10.834 5.5 12.501s7.16699 2.5 12.5 2.5h53c5.33301 0 9.33301 -0.833008 12 -2.5s3.33398 -5.83398 2.00098 -12.501z" />
    <glyph glyph-name="k" unicode="k" horiz-adv-x="479" 
d="M163 274l230.002 243c2.66699 2.66699 5.16699 4.66699 7.5 6s6.16602 2 11.499 2h74c3.33301 0 5.33301 -1.5 6 -4.5s-0.333008 -5.5 -3 -7.5l-152 -161l111 -341c0.666992 -2 0.666992 -4.33301 0 -7s-3 -4 -7 -4h-60c-11.333 0 -18 3.66699 -20 11l-86 277l-133 -135
l-19 -138c-1.33301 -6.66699 -3.16602 -10.834 -5.49902 -12.501s-6.16602 -2.5 -11.499 -2.5h-53c-5.33301 0 -9.33301 0.833008 -12 2.5s-3.33398 5.83398 -2.00098 12.501l98 701c1.33301 6.66699 3.33301 10.834 6 12.501s6.66699 2.5 12 2.5h53
c5.33301 0 9.16602 -0.833008 11.499 -2.5s3.16602 -5.83398 2.49902 -12.501l-63 -440z" />
    <glyph glyph-name="l" unicode="l" horiz-adv-x="264" 
d="M230 20c2 -9.33301 -2.32812 -15.6689 -12.9951 -19.002c-14.667 -5.33301 -29.334 -8.66602 -44.001 -9.99902s-27.334 -2 -38.001 -2c-33.333 0 -55.5 8.16699 -66.5 24.5s-13.833 41.5 -8.5 75.5l88 627c1.33301 6.66699 3.16602 10.834 5.49902 12.501
s6.16602 2.5 11.499 2.5h55c5.33301 0 9.33301 -0.833008 12 -2.5s3.33398 -5.83398 2.00098 -12.501l-85 -602c-2.66699 -19.333 -2.16699 -31.5 1.5 -36.5s12.167 -7.5 25.5 -7.5c5.33301 0 11.166 0.166992 17.499 0.5s12.166 0.833008 17.499 1.5
c6.66699 0.666992 10.667 -2.66602 12 -9.99902z" />
    <glyph glyph-name="m" unicode="m" horiz-adv-x="863" 
d="M776 14c-1.33301 -6 -3.00391 -9.83105 -5.00391 -11.498s-5.66699 -2.5 -11 -2.5h-54c-5.33301 0 -9.33301 0.833008 -12 2.5s-3.33398 5.5 -2.00098 11.5l37 264c4 29.333 5.83301 55.333 5.5 78s-4.33301 41.667 -12 57s-19.667 26.833 -36 34.5
s-38.5 11.5 -66.5 11.5c-10 0 -21.333 -0.833008 -34 -2.5s-25.167 -4 -37.5 -7s-24.5 -6.66699 -36.5 -11s-22.333 -8.83301 -31 -13.5c6.66699 -20 9.66699 -41.833 9 -65.5s-3 -49.167 -7 -76.5l-38 -269c-1.33301 -6 -3.16602 -9.83301 -5.49902 -11.5
s-6.16602 -2.5 -11.499 -2.5h-53c-5.33301 0 -9.16602 0.833008 -11.499 2.5s-3.16602 5.5 -2.49902 11.5l38 269c3.33301 26 5 49.833 5 71.5s-4 40.167 -12 55.5s-20.667 27.333 -38 36s-41.666 13 -72.999 13c-4.66699 0 -11 -0.166992 -19 -0.5
s-16.667 -0.833008 -26 -1.5s-18.666 -1.5 -27.999 -2.5s-17 -2.16699 -23 -3.5l-61 -437c-1.33301 -6 -3.16602 -9.83301 -5.49902 -11.5s-6.16602 -2.5 -11.499 -2.5h-53c-5.33301 0 -9.33301 0.833008 -12 2.5s-3.33398 5.5 -2.00098 11.5l59 431
c3.33301 22.667 10.166 40.667 20.499 54s28.166 22.666 53.499 27.999c4.66699 1.33301 12 2.5 22 3.5s20.667 2 32 3s22.5 1.66699 33.5 2s20.167 0.5 27.5 0.5c38.667 0 70 -4.16699 94 -12.5s44.667 -22.166 62 -41.499c26 17.333 56.667 30.666 92 39.999s71 14 107 14
c40 0 72.333 -6.16699 97 -18.5s43.5 -29.333 56.5 -51s20.5 -47.334 22.5 -77.001s0.666992 -62.167 -4 -97.5l-39 -278v0z" />
    <glyph glyph-name="n" unicode="n" horiz-adv-x="545" 
d="M459 15c-1.33301 -6.66699 -3.1709 -10.835 -5.50391 -12.502s-6.5 -2.5 -12.5 -2.5h-53c-5.33301 0 -9.16602 0.833008 -11.499 2.5s-3.16602 5.83398 -2.49902 12.501l38 265c4 30 5.5 56.167 4.5 78.5s-6.33301 41 -16 56s-24.5 26.167 -44.5 33.5s-46.667 11 -80 11
c-7.33301 0 -18.833 -0.5 -34.5 -1.5s-34.5 -3.16699 -56.5 -6.5l-61 -436c-1.33301 -6.66699 -3.16602 -10.834 -5.49902 -12.501s-6.16602 -2.5 -11.499 -2.5h-53c-5.33301 0 -9.33301 0.833008 -12 2.5s-3.33398 5.83398 -2.00098 12.501l61 436c6 44.667 30 70 72 76
c7.33301 1.33301 16.166 2.5 26.499 3.5l32.5 3c11.333 1 22.333 1.66699 33 2s20 0.5 28 0.5c42 0 77.333 -4.66699 106 -14s51.334 -24.166 68.001 -44.499s27.334 -46.5 32.001 -78.5s3.66699 -70.667 -3 -116l-37 -268v0z" />
    <glyph glyph-name="o" unicode="o" horiz-adv-x="540" 
d="M314 536c64 0 113.167 -18.168 147.5 -54.501s51.5 -88.166 51.5 -155.499c0 -51.333 -6.16699 -97.833 -18.5 -139.5s-30 -77.167 -53 -106.5s-51 -51.833 -84 -67.5s-70.167 -23.5 -111.5 -23.5c-63.333 0 -111.833 17.167 -145.5 51.5s-50.5 84.833 -50.5 151.5
c0 56 7 105.333 21 148s33 78.5 57 107.5s52 51 84 66s66 22.5 102 22.5zM308 462.999c-30.667 0 -56.834 -7.49902 -78.501 -22.499s-39.5 -34.833 -53.5 -59.5s-24.333 -52.834 -31 -84.501s-10 -63.834 -10 -96.501c0 -42 9.33301 -75.5 28 -100.5s49.667 -37.5 93 -37.5
c32.667 0 59.834 8.16699 81.501 24.5s39.167 37.333 52.5 63s22.833 54.167 28.5 85.5s8.5 62 8.5 92c0 18.667 -2 36.334 -6 53.001s-10.5 31.167 -19.5 43.5s-21.167 22 -36.5 29s-34.333 10.5 -57 10.5z" />
    <glyph glyph-name="p" unicode="p" horiz-adv-x="542" 
d="M246 -11c-17.333 0 -36.3359 0.998047 -57.0029 2.99805s-42.667 6.66699 -66 14l-28 -194c-0.666992 -6 -2.16699 -9.83301 -4.5 -11.5s-6.16602 -2.5 -11.499 -2.5h-54c-5.33301 0 -9.33301 0.833008 -12 2.5s-3.33398 5.5 -2.00098 11.5l94 670
c0.666992 8.66699 5.66699 14.334 15 17.001c34 14.667 67.833 24.5 101.5 29.5s65.834 7.5 96.501 7.5c34.667 0 64.334 -5.33301 89.001 -16s44.834 -25.667 60.501 -45s27.167 -42.5 34.5 -69.5s11 -56.5 11 -88.5c0 -47.333 -6 -91 -18 -131s-29.5 -74.667 -52.5 -104
s-51 -52.166 -84 -68.499s-70.5 -24.5 -112.5 -24.5zM133.997 81.998c23.333 -7.33301 43.6689 -12.1699 61.002 -14.5029s33.666 -3.5 48.999 -3.5c23.333 0 46 4.33301 68 13s41.5 22.834 58.5 42.501s30.5 45.334 40.5 77.001s15 70.834 15 117.501
c0 54 -11.333 92 -34 114s-54 33 -94 33c-16.667 0 -35.834 -1.66699 -57.501 -5s-40.167 -8 -55.5 -14z" />
    <glyph glyph-name="q" unicode="q" horiz-adv-x="543" 
d="M326 536c30.667 0 62.6641 -2.5 95.9971 -7.5s63.666 -13.833 90.999 -26.5c8 -3.33301 11 -9.33301 9 -18l-94 -675c-1.33301 -6.66699 -3.16602 -10.834 -5.49902 -12.501s-6.16602 -2.5 -11.499 -2.5h-55c-5.33301 0 -9.16602 0.833008 -11.499 2.5
s-3.16602 5.83398 -2.49902 12.501l29 201c-22 -6.66699 -45.833 -11.834 -71.5 -15.501s-47.167 -5.5 -64.5 -5.5c-32.667 0 -60.5 5.16699 -83.5 15.5s-42 24.833 -57 43.5s-26 40.834 -33 66.501s-10.5 54.167 -10.5 85.5c0 50 5.83301 95.667 17.5 137
s29.167 76.833 52.5 106.5s52 52.5 86 68.5s73.667 24 119 24zM320.997 462c-23.333 0 -46.168 -4.66699 -68.501 -14s-42 -24.333 -59 -45s-30.667 -47.167 -41 -79.5s-15.5 -71.833 -15.5 -118.5c0 -49.333 10.167 -85 30.5 -107s49.5 -33 87.5 -33
c12.667 0 30.5 1.16699 53.5 3.5s47.167 7.83301 72.5 16.5l51 360c-18 6.66699 -37.167 11.167 -57.5 13.5s-38.166 3.5 -53.499 3.5z" />
    <glyph glyph-name="r" unicode="r" horiz-adv-x="353" 
d="M117 454c4 24 10.6641 41.832 19.9971 53.499s26.666 19.167 51.999 22.5c31.333 4.66699 63 7.5 95 8.5s60.667 1.5 86 1.5c8 0 13.667 -1 17 -3s4 -8.33301 2 -19l-9 -52c-2 -9.33301 -4.83301 -14.5 -8.5 -15.5s-8.5 -1.16699 -14.5 -0.5l-77.5 4.5
c-27.667 1.66699 -53.167 2.83398 -76.5 3.50098l-64 -443c-1.33301 -6.66699 -3.16602 -10.834 -5.49902 -12.501s-6.16602 -2.5 -11.499 -2.5h-53c-5.33301 0 -9.16602 0.833008 -11.499 2.5s-3.16602 5.83398 -2.49902 12.501l62 439v0z" />
    <glyph glyph-name="s" unicode="s" horiz-adv-x="450" 
d="M211 -11c-30 0 -61.8369 3 -95.5039 9s-62.5 16.333 -86.5 31c-7.33301 3.33301 -8.66602 10.333 -3.99902 21l18 41c4.66699 10 12 12.333 22 7c24 -12 49.333 -20.833 76 -26.5s51.667 -8.5 75 -8.5c32.667 0 59.334 7 80.001 21s31.334 34.333 32.001 61
c0 21.333 -9.5 38.833 -28.5 52.5s-45.5 27.167 -79.5 40.5c-45.333 18 -79.333 38.167 -102 60.5s-34 50.5 -34 84.5c0 48 16.333 85.5 49 112.5s79 40.5 139 40.5c26 0 51.167 -2.16699 75.5 -6.5s48.166 -11.833 71.499 -22.5c4 -2 6.33301 -4.83301 7 -8.5
s0.333984 -7.16699 -0.999023 -10.5l-19 -46c-2 -4.66699 -4.16699 -7 -6.5 -7s-5.16602 0.666992 -8.49902 2c-24 10 -45.5 16.667 -64.5 20s-39.5 5 -61.5 5c-32 0 -56.167 -7.33301 -72.5 -22s-24.5 -32.667 -24.5 -54c0 -17.333 7.66699 -31.833 23 -43.5
s42 -25.167 80 -40.5c18.667 -8 36.5 -16.5 53.5 -25.5s32 -19.5 45 -31.5s23.5 -26 31.5 -42s12 -34.667 12 -56c0 -28 -5.66699 -51.833 -17 -71.5s-26.333 -36 -45 -49s-40.167 -22.5 -64.5 -28.5s-49.5 -9 -75.5 -9z" />
    <glyph glyph-name="t" unicode="t" horiz-adv-x="359" 
d="M69 456c-6.66699 0 -10.499 1.33691 -11.499 4.00391s-0.833008 6 0.5 10l4 29c0.666992 5.33301 1.83398 9.16602 3.50098 11.499s5.5 4.16602 11.5 5.49902l78 15l30 93c2 7.33301 4.33301 12.333 7 15s7 5.33398 13 8.00098l33 12
c4 1.33301 7.5 1.16602 10.5 -0.500977s3.83301 -5.5 2.5 -11.5l-18 -122h119c6 0 9.66699 -1.33301 11 -4s1.66602 -6.33398 0.999023 -11.001l-6 -40c-1.33301 -5.33301 -2.83301 -9 -4.5 -11s-5.5 -3 -11.5 -3h-118l-46 -324
c-3.33301 -22.667 -0.833008 -39.334 7.5 -50.001s24.5 -16 48.5 -16c8 0 19.667 0.833008 35 2.5l40 4.5c5.33301 1.33301 8.66602 1 9.99902 -1s2.33301 -4.66699 3 -8l7 -44c0.666992 -4 0.666992 -7.33301 0 -10s-3.66699 -5 -9 -7
c-10 -3.33301 -20.5 -5.83301 -31.5 -7.5s-21.5 -3 -31.5 -4s-19.167 -1.66699 -27.5 -2s-14.833 -0.5 -19.5 -0.5c-50 0 -83.667 11.167 -101 33.5s-22.333 56.833 -15 103.5l46 330h-71z" />
    <glyph glyph-name="u" unicode="u" horiz-adv-x="537" 
d="M109 511c1.33301 6.66699 3.33984 10.834 6.00684 12.501s6.66699 2.5 12 2.5h53c5.33301 0 9.16602 -0.833008 11.499 -2.5s2.83301 -5.83398 1.5 -12.501l-37 -267c-4.66699 -32.667 -6.83398 -60.334 -6.50098 -83.001s4.66602 -41 12.999 -55s21.833 -24 40.5 -30
s44 -9 76 -9c7.33301 0 19.666 0.5 36.999 1.5s36.666 3.16699 57.999 6.5l62 436c1.33301 6.66699 3.16602 10.834 5.49902 12.501s6.16602 2.5 11.499 2.5h54c5.33301 0 9.16602 -0.833008 11.499 -2.5s2.83301 -5.83398 1.5 -12.501l-61 -437c-6 -42.667 -30 -68 -72 -76
c-9.33301 -1.33301 -19.666 -2.5 -30.999 -3.5s-22.666 -1.83301 -33.999 -2.5s-22.166 -1.16699 -32.499 -1.5s-19.5 -0.5 -27.5 -0.5c-43.333 0 -78.833 4.5 -106.5 13.5s-48.834 23.333 -63.501 43s-23.334 45.334 -26.001 77.001s-0.666992 70.167 6 115.5l37 272v0z
" />
    <glyph glyph-name="v" unicode="v" horiz-adv-x="486" 
d="M292 39c-7.33301 -16 -14.333 -27.333 -21 -34s-17.667 -10 -33 -10h-38c-11.333 0 -20.5 2.66699 -27.5 8s-12.167 17 -15.5 35l-92 477c-1.33301 6.66699 1.33398 10 8.00098 10h62c7.33301 0 11.666 -3 12.999 -9l52 -276l26 -163h5l69 161l128 278
c2 6 6.66699 9 14 9h66c8 0 10.333 -3.33301 7 -10z" />
    <glyph glyph-name="w" unicode="w" horiz-adv-x="712" 
d="M385 404l-66.002 -165l-90 -203c-5.33301 -12.667 -11.666 -22.667 -18.999 -30s-18.666 -11 -33.999 -11h-36c-11.333 0 -20.5 2.66699 -27.5 8s-11.167 17.666 -12.5 36.999l-35 476c-1.33301 7.33301 1.66699 11 9 11h65c7.33301 0 11.333 -3.33301 12 -10l13 -289
l7 -138h5l54 126l105 251c4.66699 9.33301 10.667 18 18 26s19 12 35 12h30c13.333 0 22.166 -3.66699 26.499 -11s7.5 -17.333 9.5 -30l33 -233l21 -148h6l46 147l95 287c2.66699 6.66699 7.66699 10 15 10h65c6 0 8 -3.66699 6 -11l-170 -476
c-6.66699 -19.333 -14.667 -31.666 -24 -36.999s-19.666 -8 -30.999 -8h-34c-15.333 0 -25.5 2.83301 -30.5 8.5s-8.83301 16.5 -11.5 32.5l-31 208l-20 160h-4z" />
    <glyph glyph-name="x" unicode="x" horiz-adv-x="456" 
d="M289 282l132.001 -268.001c1.33301 -2.66699 1.66602 -5.66699 0.999023 -9s-3.66699 -5 -9 -5h-64c-7.33301 0 -12.333 1.16699 -15 3.5s-5 5.16602 -7 8.49902l-92 201l-153 -200c-3.33301 -4 -6.5 -7.16699 -9.5 -9.5s-7.5 -3.5 -13.5 -3.5h-67
c-4 0 -6.5 1.33301 -7.5 4s0.166992 6.33398 3.5 11.001l204 263l-113 232c-1.33301 2.66699 -1.5 5.83398 -0.5 9.50098s4.16699 5.5 9.5 5.5h58c7.33301 0 12.333 -1.16699 15 -3.5s5 -5.16602 7 -8.49902l79 -171l129 171c2.66699 3.33301 5.5 6.16602 8.5 8.49902
s7.5 3.5 13.5 3.5h67c5.33301 0 8 -1.66699 8 -5s-1 -6 -3 -8z" />
    <glyph glyph-name="y" unicode="y" horiz-adv-x="475" 
d="M71 -216c-19.333 0 -40.334 2.66992 -63.001 8.00293s-43 11.666 -61 18.999c-8 3.33301 -12.833 6 -14.5 8s-1.16699 6.33301 1.5 13l17 42c2.66699 6.66699 5.16699 10.167 7.5 10.5s7.16602 -0.833984 14.499 -3.50098c18.667 -6.66699 37.167 -11.834 55.5 -15.501
s32.5 -5.5 42.5 -5.5c21.333 0 38.833 5.5 52.5 16.5s27.167 31.167 40.5 60.5l31 68h-13c-9.33301 0 -17 1.5 -23 4.5s-10.667 13.167 -14 30.5l-81 474c-1.33301 7.33301 1.33398 11 8.00098 11h60c8 0 12.333 -3.33301 13 -10c0.666992 -3.33301 2 -11.333 4 -24
s4.5 -27.667 7.5 -45s6 -36 9 -56s6 -38.667 9 -56s5.5 -32.333 7.5 -45s3.33301 -20.667 4 -24l30 -192h6c1.33301 2.66699 4.16602 9 8.49902 19l15.5 35l19.5 43l20 43l16.5 35c4.66699 10 7.66699 16.333 9 19l114 248c1.33301 3.33301 3 5.83301 5 7.5
s5.66699 2.5 11 2.5h63c8 0 10.333 -3.66699 7 -11l-279 -605c-19.333 -42.667 -41.166 -74.167 -65.499 -94.5s-56.166 -30.5 -95.499 -30.5z" />
    <glyph glyph-name="z" unicode="z" horiz-adv-x="446" 
d="M425 525c15.333 0 25.832 -2.83594 31.499 -8.50293s7.5 -15.167 5.5 -28.5l-2 -16c-1.33301 -7.33301 -3.66602 -14.833 -6.99902 -22.5s-8.33301 -15.167 -15 -22.5l-339 -354l1 -2h304c6.66699 0 10.834 -1.33301 12.501 -4s1.83398 -6 0.500977 -10l-5 -42
c-1.33301 -5.33301 -3 -9.16602 -5 -11.499s-6 -3.5 -12 -3.5h-364c-14.667 0 -24.334 3.33301 -29.001 10s-6.33398 14.667 -5.00098 24l2 15c1.33301 8.66699 3.83301 17.334 7.5 26.001s9.83398 17 18.501 25l336 351l-1 3h-264c-6.66699 0 -10.834 1 -12.501 3
s-2.16699 5.66699 -1.5 11l7 42c0.666992 4.66699 2 8.33398 4 11.001s6 4 12 4h320z" />
    <glyph glyph-name="braceleft" unicode="{" horiz-adv-x="343" 
d="M248 -93c-1.33301 -5.33301 -4.67285 -7.99707 -10.0059 -7.99707c-21.333 0.666992 -41.166 4 -59.499 10s-33.666 15.333 -45.999 28s-21.166 29 -26.499 49s-6 44.333 -2 73l19 138c4.66699 32 3.66699 55.5 -3 70.5s-19.667 24.833 -39 29.5
c-3.33301 1.33301 -5.66602 2.66602 -6.99902 3.99902s-1.66602 4.33301 -0.999023 9l6 40c0.666992 4.66699 1.83398 7.83398 3.50098 9.50098s5.16699 3.16699 10.5 4.5c19.333 4 34.333 13.5 45 28.5s18.334 38.5 23.001 70.5l13 101c4 28.667 10 53.5 18 74.5
s19 38 33 51s31.333 22.5 52 28.5s46 8.66699 76 8c7.33301 0 10.333 -2.66699 9 -8l-7 -49c-0.666992 -3.33301 -1.66699 -6 -3 -8s-4.33301 -3 -9 -3c-14.667 0 -26.834 -2 -36.501 -6s-17.667 -9.5 -24 -16.5s-11 -14.833 -14 -23.5s-5.16699 -18 -6.5 -28l-17 -123
c-4.66699 -32 -14.5 -59 -29.5 -81s-33.167 -38 -54.5 -48l-1 -4c17.333 -9.33301 30.833 -24.333 40.5 -45s12.167 -47.667 7.5 -81l-22 -157c-1.33301 -10 -1.83301 -19.333 -1.5 -28s2.5 -16.334 6.5 -23.001s10.333 -12.334 19 -17.001s20.667 -8.33398 36 -11.001
c4.66699 -1.33301 7.5 -2.5 8.5 -3.5s1.16699 -3.16699 0.5 -6.5l-7 -49v0z" />
    <glyph glyph-name="bar" unicode="|" horiz-adv-x="213" 
d="M180 -121c0 -6.66699 -1.16699 -10.834 -3.5 -12.501s-6.5 -2.5 -12.5 -2.5h-53c-5.33301 0 -9.33301 0.833008 -12 2.5s-4 5.83398 -4 12.501v884c0 6.66699 1.33301 10.834 4 12.501s6.66699 2.5 12 2.5h53c6 0 10.167 -0.833008 12.5 -2.5s3.5 -5.83398 3.5 -12.501
v-884v0z" />
    <glyph glyph-name="braceright" unicode="}" horiz-adv-x="343" 
d="M133 722c0.666992 2.66699 1.50488 4.66309 2.50488 5.99609s3.5 2 7.5 2c20.667 -0.666992 40 -4.16699 58 -10.5s33.333 -16 46 -29s21.667 -29.667 27 -50s6 -45.5 2 -75.5l-15 -102c-4.66699 -32.667 -3.5 -56.5 3.5 -71.5s19.833 -24.167 38.5 -27.5
c3.33301 -1.33301 5.83301 -2.66602 7.5 -3.99902s2.16699 -4.66602 1.5 -9.99902l-6 -40c-0.666992 -4.66699 -1.83398 -7.66699 -3.50098 -9s-5.16699 -2.66602 -10.5 -3.99902c-19.333 -4.66699 -34.333 -14.5 -45 -29.5s-18.334 -38.5 -23.001 -70.5l-18 -132
c-4 -29.333 -10 -54.333 -18 -75s-18.833 -37.5 -32.5 -50.5s-31 -22.5 -52 -28.5s-46.5 -8.66699 -76.5 -8c-6.66699 0 -9.33398 2.66699 -8.00098 8l6 49c0.666992 3.33301 1.66699 6 3 8s4.33301 3 9 3c15.333 0.666992 28 3.16699 38 7.5s18 10 24 17
s10.5 15.167 13.5 24.5s5.16699 19 6.5 29l21 154c4.66699 32 14.667 58.5 30 79.5s33.333 36.167 54 45.5v4c-17.333 9.33301 -30.833 24.333 -40.5 45s-12.167 47.334 -7.5 80.001l18 125c1.33301 10 1.66602 19.333 0.999023 28s-3 16.5 -7 23.5s-10.333 13 -19 18
s-20.334 8.83301 -35.001 11.5c-4 1.33301 -6.5 2.5 -7.5 3.5s-1.16699 3.16699 -0.5 6.5l7 49v0z" />
    <glyph glyph-name="asciitilde" unicode="~" horiz-adv-x="572" 
d="M527 316c-19.333 -28 -39.833 -49.168 -61.5 -63.501s-46.834 -21.5 -75.501 -21.5c-16.667 0 -33.167 3.33301 -49.5 10s-32.166 13.834 -47.499 21.501l-45 21.5c-14.667 6.66699 -29 10 -43 10c-15.333 0 -30 -3.83301 -44 -11.5s-28 -18.167 -42 -31.5
c-7.33301 -6 -13.333 -6.66699 -18 -2l-23 20c-5.33301 5.33301 -5.33301 11 0 17c24 27.333 47.167 47.333 69.5 60s45.5 19 69.5 19c17.333 0 34.333 -3.5 51 -10.5s33 -14.5 49 -22.5l46.5 -22.5c15 -7 29.167 -10.5 42.5 -10.5c15.333 0 28.833 4.66699 40.5 14
s24.167 22.333 37.5 39c5.33301 6 11.333 6.66699 18 2l24 -18c6 -5.33301 6.33301 -12 1 -20z" />
    <glyph glyph-name="exclamdown" unicode="&#xa1;" horiz-adv-x="262" 
d="M182 526c16.667 0 30.332 -5.33203 40.999 -15.999s16 -24.334 16 -41.001c0 -10 -2 -19.667 -6 -29s-9.5 -17.5 -16.5 -24.5s-14.833 -12.5 -23.5 -16.5s-18 -6 -28 -6c-17.333 0 -31.166 5.16699 -41.499 15.5s-15.5 23.833 -15.5 40.5c0 10.667 2 20.667 6 30
s9.5 17.5 16.5 24.5s14.833 12.5 23.5 16.5s18 6 28 6zM121.998 300.001c1.33301 6 3.66699 10.167 7 12.5s9 3.5 17 3.5h19c6.66699 0 11 -1 13 -3s3 -5.33301 3 -10l-48 -471c0 -3.33301 -1.33301 -6.83301 -4 -10.5s-6.66699 -5.5 -12 -5.5h-66
c-6.66699 0 -11 1.83301 -13 5.5s-2.33301 7.16699 -1 10.5z" />
    <glyph glyph-name="cent" unicode="&#xa2;" horiz-adv-x="572" 
d="M353 624c1.33301 5.33301 3.16699 8.83105 5.5 10.498s5.5 2.5 9.5 2.5h19c4.66699 0 7.83398 -0.833008 9.50098 -2.5s1.83398 -5.16699 0.500977 -10.5l-13 -90c21.333 -2 42.5 -5.66699 63.5 -11s39.5 -12.666 55.5 -21.999c6 -4 6.66699 -11 2 -21l-17 -41
c-2 -4.66699 -4.5 -7.66699 -7.5 -9s-7.5 -0.333008 -13.5 3c-12 5.33301 -26.167 10.333 -42.5 15s-33.5 7.66699 -51.5 9l-54 -392c21.333 0.666992 42.166 3.83398 62.499 9.50098s37.5 11.167 51.5 16.5c6 3.33301 9.83301 4.16602 11.5 2.49902s3.5 -4.16699 5.5 -7.5
l20 -42c4 -8.66699 1 -15.667 -9 -21c-24 -13.333 -49.5 -22.166 -76.5 -26.499s-52.5 -6.83301 -76.5 -7.5l-13 -89c-0.666992 -5.33301 -1.83398 -8.83301 -3.50098 -10.5s-4.83398 -2.5 -9.50098 -2.5h-20c-4 0 -7 0.833008 -9 2.5s-2.33301 5.16699 -1 10.5l13 91
c-53.333 6 -94 26 -122 60s-42 83 -42 147c0 48.667 5.5 93.5 16.5 134.5s26.833 76.167 47.5 105.5s45.834 52.5 75.501 69.5s63.167 26.167 100.5 27.5zM185.001 200.998c0 -34 6.49805 -63 19.498 -87s36.5 -39.667 70.5 -47l54 389c-26 -3.33301 -48.167 -13 -66.5 -29
s-33.166 -35.833 -44.499 -59.5s-19.666 -50 -24.999 -79s-8 -58.167 -8 -87.5z" />
    <glyph glyph-name="sterling" unicode="&#xa3;" horiz-adv-x="572" 
d="M184 384l-3.00391 63.0029c-3.33301 152.667 70.334 229 221.001 229c25.333 0 51.166 -2.5 77.499 -7.5s49.833 -13.5 70.5 -25.5c4 -2.66699 5.83301 -5.5 5.5 -8.5s-1.5 -7.16699 -3.5 -12.5l-16 -39c-3.33301 -8 -10 -9.66699 -20 -5
c-15.333 7.33301 -32.833 13.166 -52.5 17.499s-39.167 6.5 -58.5 6.5c-37.333 0 -65.666 -5.33301 -84.999 -16s-33.166 -25.667 -41.499 -45s-12.666 -42.333 -12.999 -69s-0.166016 -56 0.500977 -88h192c6 0 9.66699 -1.16699 11 -3.5s1.33301 -6.16602 0 -11.499
l-5 -33c-0.666992 -5.33301 -2 -9.33301 -4 -12s-6 -4 -12 -4h-182c-0.666992 -14 -2.16699 -31.333 -4.5 -52s-6.5 -42.334 -12.5 -65.001s-14.5 -45 -25.5 -67s-25.5 -41.333 -43.5 -58h304c7.33301 0 11.333 -1.33301 12 -4s0.666992 -6.66699 0 -12l-6 -46
c-1.33301 -6 -2.83301 -10.167 -4.5 -12.5s-5.83398 -3.5 -12.501 -3.5h-393c-12 0 -20.167 2.16699 -24.5 6.5s-6.16602 10.166 -5.49902 17.499c0 1.33301 0.333008 3.33301 1 6c0 2.66699 0.666992 6.66699 2 12c2 12.667 5.5 21.667 10.5 27s12.167 11.666 21.5 18.999
c20.667 16 37.5 33.5 50.5 52.5s23 38.5 30 58.5s11.5 40.167 13.5 60.5s3 40.5 3 60.5h-79c-6 0 -9.5 1.33301 -10.5 4s-1.16699 6.66699 -0.5 12l5 32c0.666992 5.33301 2 9.33301 4 12s6 4 12 4h71z" />
    <glyph glyph-name="currency" unicode="&#xa4;" horiz-adv-x="574" 
d="M104 285c0 23.333 3.49609 45.168 10.4961 65.501s17.167 39.166 30.5 56.499l-47 48c-7.33301 6.66699 -7.66602 13.334 -0.999023 20.001l28 28c4.66699 4.66699 8.33398 6.66699 11.001 6s5.66699 -2.66699 9 -6l48 -50c16.667 11.333 34.834 20.333 54.501 27
s40.167 10 61.5 10c22 0 43 -3.33301 63 -10s38.333 -15.667 55 -27l54 53c6.66699 6.66699 13.334 7 20.001 1l28 -28c4.66699 -4.66699 6.66699 -8.33398 6 -11.001s-2.66699 -6 -6 -10l-54 -53c12.667 -17.333 22.334 -36.166 29.001 -56.499s10 -41.5 10 -63.5
c0 -46 -13 -86.667 -39 -122l52 -51c5.33301 -4.66699 8.33301 -8.5 9 -11.5s-1.33301 -6.83301 -6 -11.5l-28 -29c-6.66699 -5.33301 -13.667 -4 -21 4l-53 53c-34.667 -24.667 -74.334 -37 -119.001 -37c-42 0 -79.333 10.667 -112 32l-53 -54
c-4 -4.66699 -7.66699 -7.33398 -11 -8.00098s-7 1.33301 -11 6l-29 28c-6 6 -4.66699 13 4 21l51 52c-29.333 35.333 -44 78 -44 128zM184.996 284.002c0 -17.333 3.33301 -33.666 10 -48.999s15.667 -28.666 27 -39.999s24.5 -20.166 39.5 -26.499s31.167 -9.5 48.5 -9.5
s33.666 3.16699 48.999 9.5s28.666 15.166 39.999 26.499s20.166 24.666 26.499 39.999s9.5 31.666 9.5 48.999c0 16.667 -3.16699 32.667 -9.5 48s-15.166 28.5 -26.499 39.5s-24.666 19.833 -39.999 26.5s-31.666 10 -48.999 10s-33.5 -3.33301 -48.5 -10
s-28.167 -15.5 -39.5 -26.5s-20.333 -24.167 -27 -39.5s-10 -31.333 -10 -48z" />
    <glyph glyph-name="yen" unicode="&#xa5;" horiz-adv-x="572" 
d="M107 301c-6 0 -9.66895 1.16602 -11.002 3.49902s-2 6.5 -2 12.5l5 27c0.666992 5.33301 2 9.33301 4 12s6 4 12 4h107l-100 301c-1.33301 2 -1.16602 4.33301 0.500977 7s4.83398 4 9.50098 4h62c4 0 7.33301 -0.666992 10 -2s4.66699 -4.66602 6 -9.99902l54 -172
l39 -140h4l76 140l100 172c4.66699 8 11.667 12 21 12h68c4 0 6.16699 -1.33301 6.5 -4s-0.166992 -5 -1.5 -7l-183 -301h121c5.33301 0 8.83301 -1.33301 10.5 -4s2.16699 -6.66699 1.5 -12l-4 -27c-0.666992 -10.667 -6 -16 -16 -16h-400zM498.998 246.999
c6 0 9.83203 -1.33301 11.499 -4s1.83398 -6.66699 0.500977 -12l-4 -28c-1.33301 -6 -2.83301 -10.167 -4.5 -12.5s-5.5 -3.5 -11.5 -3.5h-163l-25 -173c-1.33301 -6 -3 -9.83301 -5 -11.5s-6 -2.5 -12 -2.5h-54c-5.33301 0 -9 0.833008 -11 2.5s-2.33301 5.5 -1 11.5
l24 173h-153c-10 0 -14 5.33301 -12 16l3 28c1.33301 5.33301 3 9.33301 5 12s6 4 12 4h400z" />
    <glyph glyph-name="brokenbar" unicode="&#xa6;" horiz-adv-x="213" 
d="M180 -121c0 -6.66699 -1.16699 -10.834 -3.5 -12.501s-6.5 -2.5 -12.5 -2.5h-53c-5.33301 0 -9.33301 0.833008 -12 2.5s-4 5.83398 -4 12.501v400c0 6 1.33301 9.83301 4 11.5s6.66699 2.5 12 2.5h53c6 0 10.167 -0.833008 12.5 -2.5s3.5 -5.5 3.5 -11.5v-400zM180 359
c0 -6 -1.16699 -9.83301 -3.5 -11.5s-6.5 -2.5 -12.5 -2.5h-53c-5.33301 0 -9.33301 0.833008 -12 2.5s-4 5.5 -4 11.5v400c0 6 1.33301 9.83301 4 11.5s6.66699 2.5 12 2.5h53c6 0 10.167 -0.833008 12.5 -2.5s3.5 -5.5 3.5 -11.5v-400z" />
    <glyph glyph-name="section" unicode="&#xa7;" horiz-adv-x="536" 
d="M287 398c-10.667 11.333 -20.999 21.667 -30.999 31s-17.667 17.666 -23 24.999c-16.667 -9.33301 -30.834 -22 -42.501 -38s-17.5 -32.667 -17.5 -50c0 -11.333 2.5 -22.166 7.5 -32.499s12.5 -21.5 22.5 -33.5s22.167 -25.167 36.5 -39.5l49.5 -49.5
c8.66699 -9.33301 19 -19.666 31 -30.999s21.667 -19.666 29 -24.999c16 10.667 28.5 23.667 37.5 39s13.5 30.666 13.5 45.999c0 13.333 -2.5 25.666 -7.5 36.999s-12.333 23 -22 35s-21.5 24.833 -35.5 38.5zM214.001 -128.999
c-11.333 0 -23.8301 0.831055 -37.4971 2.49805s-27.167 4 -40.5 7s-26.166 6.5 -38.499 10.5s-22.833 8.33301 -31.5 13c-4 2 -6.16699 4.16699 -6.5 6.5s0.5 6.16602 2.5 11.499l17 39c1.33301 3.33301 3.16602 5.66602 5.49902 6.99902s6.16602 0.666016 11.499 -2.00098
c13.333 -6 30.166 -11.833 50.499 -17.5s39.166 -8.5 56.499 -8.5c24 0 43.833 2.33301 59.5 7s28.167 10.834 37.5 18.501s16 16.5 20 26.5s6 20.667 6 32c0 17.333 -8.33301 36 -25 56s-36.667 40.667 -60 62c-19.333 16.667 -38 33.667 -56 51s-34 34.833 -48 52.5
s-25.333 35.5 -34 53.5s-13 36.667 -13 56c0 27.333 9.16699 54.5 27.5 81.5s41.5 49.167 69.5 66.5c-7.33301 10.667 -13.166 23.334 -17.499 38.001s-6.5 28.667 -6.5 42c0 22 4 42.167 12 60.5s20 34.333 36 48s36.5 24.334 61.5 32.001s54.5 11.5 88.5 11.5
c22 0 45.667 -2.16699 71 -6.5s46.666 -11.166 63.999 -20.499c4.66699 -2 5.66699 -7 3 -15l-18 -42c-2.66699 -5.33301 -8 -6.66602 -16 -3.99902c-15.333 6 -32.166 11.167 -50.499 15.5s-38.166 6.5 -59.499 6.5c-34.667 0 -61.334 -7.16699 -80.001 -21.5
s-28 -33.166 -28 -56.499c0 -20 8.83301 -40 26.5 -60s40.167 -42.333 67.5 -67l57.5 -55.5c17.667 -17 33 -33.833 46 -50.5s23 -33 30 -49s10.5 -33 10.5 -51c0 -26 -8.66699 -52.5 -26 -79.5s-41 -49.5 -71 -67.5c8 -12.667 14 -26.167 18 -40.5s6 -28.5 6 -42.5
c0 -20 -4 -39.333 -12 -58s-20.333 -35.334 -37 -50.001s-37.334 -26.5 -62.001 -35.5s-53.667 -13.5 -87 -13.5z" />
    <glyph glyph-name="dieresis" unicode="&#xa8;" horiz-adv-x="545" 
d="M433 723c12.667 0 23.5 -4.66699 32.5 -14s13.5 -20.333 13.5 -33c0 -7.33301 -1.83301 -14.666 -5.5 -21.999s-8.5 -13.833 -14.5 -19.5s-12.667 -10.167 -20 -13.5s-14.333 -5 -21 -5c-13.333 0 -24.5 4.66699 -33.5 14s-13.5 20.333 -13.5 33
c0 15.333 6.5 29.166 19.5 41.499s27.167 18.5 42.5 18.5zM258 723c12 0 22.667 -4.66602 32 -13.999s14 -20.333 14 -33c0 -8 -2 -15.5 -6 -22.5s-9 -13.333 -15 -19s-12.667 -10.167 -20 -13.5s-14.333 -5 -21 -5c-12.667 0 -23.5 4.66699 -32.5 14
s-13.167 20.333 -12.5 33c0 7.33301 1.66699 14.666 5 21.999s7.83301 13.833 13.5 19.5s12.167 10.167 19.5 13.5s15 5 23 5z" />
    <glyph glyph-name="copyright" unicode="&#xa9;" horiz-adv-x="821" 
d="M452 106c-30 0 -56.9951 5.8291 -80.9951 17.4961s-44.333 27.834 -61 48.501s-29.5 45.5 -38.5 74.5s-13.5 60.833 -13.5 95.5c0 35.333 4.5 67.5 13.5 96.5s22 53.667 39 74s37.5 36.166 61.5 47.499s50.667 17 80 17c28 0 53.333 -4.33301 76 -13
s42.667 -22.667 60 -42c1.33301 -2.66699 2.33301 -5.33398 3 -8.00098s-1 -6 -5 -10c-0.666992 0 -2.5 -1.5 -5.5 -4.5s-6.33301 -6.16699 -10 -9.5l-10 -9l-4.5 -4c-4.66699 -3.33301 -10.334 -2 -17.001 4c-11.333 11.333 -24 20 -38 26s-30 9 -48 9
c-22 0 -41 -4.33301 -57 -13s-29.333 -20.667 -40 -36s-18.667 -33.666 -24 -54.999s-8 -44.666 -8 -69.999s2.66699 -48.666 8 -69.999s13.333 -39.666 24 -54.999s24.167 -27.333 40.5 -36s35.166 -13 56.499 -13c18.667 0 35.167 3.33301 49.5 10
s27.166 15.667 38.499 27c5.33301 5.33301 10.666 6 15.999 2l30 -25c4.66699 -3.33301 6.5 -6.33301 5.5 -9s-2.16699 -5 -3.5 -7c-17.333 -19.333 -36.833 -34.166 -58.5 -44.499s-47.834 -15.5 -78.501 -15.5zM812.005 349.996c0 -51.333 -9.16699 -99 -27.5 -143
s-43.666 -82.167 -75.999 -114.5s-70.5 -57.666 -114.5 -75.999s-91.667 -27.5 -143 -27.5s-99.166 9.16699 -143.499 27.5s-82.666 43.666 -114.999 75.999s-57.666 70.5 -75.999 114.5s-27.5 91.667 -27.5 143s9.16699 99 27.5 143s43.666 82.167 75.999 114.5
s70.666 57.666 114.999 75.999s92.166 27.5 143.499 27.5s99 -9.16699 143 -27.5s82.167 -43.666 114.5 -75.999s57.666 -70.5 75.999 -114.5s27.5 -91.667 27.5 -143zM762.005 349.996c0 45.333 -7.83301 87.166 -23.5 125.499s-37.5 71.5 -65.5 99.5s-61 49.833 -99 65.5
s-79 23.5 -123 23.5c-44.667 0 -86 -7.83301 -124 -23.5s-71 -37.5 -99 -65.5s-49.833 -61.167 -65.5 -99.5s-23.5 -80.166 -23.5 -125.499s7.83301 -87.333 23.5 -126s37.5 -72 65.5 -100s61 -49.833 99 -65.5s79.333 -23.5 124 -23.5c44 0 85 7.83301 123 23.5
s71 37.5 99 65.5s49.833 61.333 65.5 100s23.5 80.667 23.5 126z" />
    <glyph glyph-name="ordfeminine" unicode="&#xaa;" horiz-adv-x="375" 
d="M218 322c9.33301 0 20.166 0.668945 32.499 2.00195s23.833 3.66602 34.5 6.99902c4.66699 38 9.66699 75.333 15 112s11 73.334 17 110.001c-12.667 3.33301 -24.667 5.33301 -36 6s-21.666 1 -30.999 1c-15.333 0 -30 -2.5 -44 -7.5s-26.5 -13.333 -37.5 -25
s-19.667 -27.334 -26 -47.001s-9.5 -43.834 -9.5 -72.501c0 -30.667 7.16699 -52.667 21.5 -66s35.5 -20 63.5 -20zM199 260.002c-50 0 -85.835 12.3291 -107.502 36.9961s-32.5 58.334 -32.5 101.001c0 70.667 16.833 125.834 50.5 165.501s82.167 59.5 145.5 59.5
c15.333 0 33.333 -0.833008 54 -2.5s42.667 -5.5 66 -11.5c9.33301 -3.33301 14.666 -7.16602 15.999 -11.499s1.33301 -9.5 0 -15.5c-15.333 -93.333 -28.333 -186.333 -39 -279c-0.666992 -5.33301 -2.16699 -9.16602 -4.5 -11.499s-6.16602 -4.83301 -11.499 -7.5
c-23.333 -10 -47.666 -16.5 -72.999 -19.5s-46.666 -4.5 -63.999 -4.5z" />
    <glyph glyph-name="guillemotleft" unicode="&#xab;" horiz-adv-x="469" 
d="M153 242l92 -191.996c4 -12.667 -1 -19 -15 -19h-50c-10 0 -16.5 1.66699 -19.5 5s-6.16699 7.66602 -9.5 12.999l-74 157c-2.66699 5.33301 -5 11.666 -7 18.999s-2.33301 13.666 -1 18.999c0.666992 8 3.5 15.5 8.5 22.5s9.16699 13.167 12.5 18.5l116 157
c4 5.33301 8.16699 9.66602 12.5 12.999s11.833 5 22.5 5h48c6 0 9.66699 -2 11 -6s0 -8.66699 -4 -14zM311 242.004l92 -191.996c2 -6 1.5 -10.667 -1.5 -14s-7.5 -5 -13.5 -5h-50c-10 0 -16.667 1.66699 -20 5s-6.33301 7.66602 -9 12.999l-74 157
c-2.66699 5.33301 -5 11.666 -7 18.999s-2.33301 13.666 -1 18.999c1.33301 8 4.33301 15.5 9 22.5l12 18.5l116 157c4 5.33301 8.16699 9.66602 12.5 12.999s11.5 5 21.5 5h48c6.66699 0 10.5 -2 11.5 -6s-0.166992 -8.66699 -3.5 -14z" />
    <glyph glyph-name="logicalnot" unicode="&#xac;" horiz-adv-x="572" 
d="M82 302c-6.66699 0 -10.6689 1.16699 -12.002 3.5s-1.66602 6.5 -0.999023 12.5l8 52c1.33301 5.33301 3 9.5 5 12.5s6 4.5 12 4.5h442c6 0 9.66699 -1.5 11 -4.5s1.66602 -7.16699 0.999023 -12.5l-37 -259c-1.33301 -6.66699 -3.16602 -10.834 -5.49902 -12.501
s-6.5 -2.5 -12.5 -2.5h-53c-5.33301 0 -9.16602 0.833008 -11.499 2.5s-2.83301 5.83398 -1.5 12.501l26 191h-371v0z" />
    <glyph glyph-name="sfthyphen" unicode="&#xad;" horiz-adv-x="320" 
d="M51 236c-6.66699 0 -10.8311 1.33301 -12.498 4s-1.83398 6.66699 -0.500977 12l10 68c0.666992 5.33301 2 9.33301 4 12s6 4 12 4h225c5.33301 0 8.83301 -1.33301 10.5 -4s2.16699 -6.66699 1.5 -12l-11 -68c-0.666992 -5.33301 -1.83398 -9.33301 -3.50098 -12
s-5.5 -4 -11.5 -4h-224v0z" />
    <glyph glyph-name="registered" unicode="&#xae;" horiz-adv-x="552" 
d="M540 480c0 -32 -6.00098 -61.667 -18.001 -89s-28.167 -51.333 -48.5 -72s-44.166 -36.834 -71.499 -48.501s-56.333 -17.5 -87 -17.5c-32 0 -61.667 5.83301 -89 17.5s-51.166 27.834 -71.499 48.501s-36.166 44.667 -47.499 72s-17 57 -17 89s5.66699 62 17 90
s27.166 52.333 47.499 73s44.166 36.834 71.499 48.501s57 17.5 89 17.5s61.667 -5.83301 89 -17.5s51 -27.834 71 -48.501s35.833 -45 47.5 -73s17.5 -58 17.5 -90zM498.999 480c0 26.667 -4.66797 51.667 -14.001 75s-22.166 43.666 -38.499 60.999
s-35.833 30.833 -58.5 40.5s-47 14.5 -73 14.5c-26.667 0 -51.334 -4.83301 -74.001 -14.5s-42.167 -23.167 -58.5 -40.5s-29.166 -37.666 -38.499 -60.999s-14 -48.333 -14 -75c0 -26 4.66699 -50.5 14 -73.5s22.166 -43 38.499 -60s35.833 -30.5 58.5 -40.5
s47.334 -15 74.001 -15c26 0 50.167 5 72.5 15s41.833 23.5 58.5 40.5s29.667 37 39 60s14 47.5 14 73.5zM261.998 354c0 -4 -0.667969 -6.5 -2.00098 -7.5s-4 -1.5 -8 -1.5h-24c-3.33301 0 -5.5 0.5 -6.5 1.5s-1.5 3.5 -1.5 7.5v242c0 8 1.5 14 4.5 18s8.83301 6 17.5 6h89
c26 0 46.667 -7.5 62 -22.5s23 -34.167 23 -57.5c0 -14 -3.83301 -27 -11.5 -39s-17.5 -21.667 -29.5 -29c10 -4 17 -9.5 21 -16.5s7.33301 -14.833 10 -23.5l22 -76c1.33301 -1.33301 1.33301 -3.5 0 -6.5s-4 -4.5 -8 -4.5h-26c-5.33301 0 -8.33301 2.66699 -9 8l-22 72
c-3.33301 13.333 -9.16602 22.5 -17.499 27.5s-18.5 7.5 -30.5 7.5h-53v-106zM372.997 538c0 10 -3.33301 19.5 -10 28.5s-18.667 13.5 -36 13.5h-65v-83h62c17.333 0 29.833 4 37.5 12s11.5 17.667 11.5 29z" />
    <glyph glyph-name="macron" unicode="&#xaf;" horiz-adv-x="320" 
d="M101 581c-6.66699 0 -10.832 1.33301 -12.499 4s-1.83398 6.66699 -0.500977 12l5 38c1.33301 5.33301 3 9.33301 5 12s6 4 12 4h233c6 0 9.66699 -1.33301 11 -4s1.33301 -6.66699 0 -12l-5 -38c-1.33301 -5.33301 -2.83301 -9.33301 -4.5 -12s-5.5 -4 -11.5 -4h-232v0z
" />
    <glyph glyph-name="degree" unicode="&#xb0;" horiz-adv-x="371" 
d="M358 562c0 -20.667 -3.66992 -39.5 -11.0029 -56.5s-17.166 -31.667 -29.499 -44s-27 -21.833 -44 -28.5s-35.5 -10 -55.5 -10s-38.5 3.33301 -55.5 10s-31.667 16.167 -44 28.5s-22.166 27 -29.499 44s-11 35.833 -11 56.5c0 20 3.66699 38.5 11 55.5
s17.333 31.5 30 43.5s27.5 21.5 44.5 28.5s35.5 10.5 55.5 10.5s38.333 -3.5 55 -10.5s31.334 -16.5 44.001 -28.5s22.5 -26.5 29.5 -43.5s10.5 -35.5 10.5 -55.5zM305.997 562c0 24.667 -8.33301 45.5 -25 62.5s-37.334 25.5 -62.001 25.5
c-25.333 0 -46.166 -8.5 -62.499 -25.5s-24.5 -37.833 -24.5 -62.5c0 -26 8.16699 -47.667 24.5 -65s36.833 -26 61.5 -26c25.333 0 46.333 8.66699 63 26s25 39 25 65z" />
    <glyph glyph-name="plusminus" unicode="&#xb1;" horiz-adv-x="572" 
d="M38 -1c-6.66699 0 -10.501 1 -11.501 3s-1.16699 5.66699 -0.5 11l9 57c0.666992 4.66699 1.83398 8 3.50098 10s5.83398 3 12.501 3h442c6 0 9.66699 -1 11 -3s1.66602 -5.33301 0.999023 -10l-9 -57c0 -5.33301 -1 -9 -3 -11s-6.33301 -3 -13 -3h-442zM89.999 336
c-6.66699 0 -10.832 1.33301 -12.499 4s-2.16699 6.66699 -1.5 12l9 52c0.666992 5.33301 2 9.33301 4 12s6 4 12 4h179l27 191c0.666992 6.66699 2.33398 10.834 5.00098 12.501s6.66699 2.5 12 2.5h54c5.33301 0 9.16602 -0.833008 11.499 -2.5
s3.16602 -5.83398 2.49902 -12.501l-27 -191h178c6 0 9.66699 -1.33301 11 -4s2 -6.66699 2 -12l-8 -52c-0.666992 -5.33301 -2 -9.33301 -4 -12s-6.33301 -4 -13 -4h-178l-27 -191c-0.666992 -6 -2.33398 -9.83301 -5.00098 -11.5s-7 -2.5 -13 -2.5h-53
c-5.33301 0 -9.16602 0.833008 -11.499 2.5s-2.83301 5.5 -1.5 11.5l26 191h-178z" />
    <glyph glyph-name="twosuperior" unicode="&#xb2;" horiz-adv-x="387" 
d="M257 704c-14.667 0 -30.8301 -2.66602 -48.4971 -7.99902s-34.167 -12.333 -49.5 -21c-5.33301 -2.66699 -10 -4.66699 -14 -6s-7.66699 0.666992 -11 6l-19 31c-1.33301 4.66699 -1.5 8.66699 -0.5 12s4.16699 7 9.5 11c20 12.667 42.5 22.667 67.5 30
s48.833 11 71.5 11c38 0 69.667 -7.83301 95 -23.5s38 -40.5 38 -74.5c0 -19.333 -3.5 -36.166 -10.5 -50.499s-16.333 -27 -28 -38s-25.167 -21.167 -40.5 -30.5l-48 -28c-22.667 -13.333 -45.834 -28.166 -69.501 -44.499s-41.834 -36.5 -54.501 -60.5h202
c8.66699 0 13.167 -1.33301 13.5 -4s0.166016 -6.33398 -0.500977 -11.001l-4 -32c-0.666992 -3.33301 -2.16699 -6.83301 -4.5 -10.5s-6.5 -5.5 -12.5 -5.5h-229c-17.333 0 -29.333 3.66699 -36 11s-10 16.666 -10 27.999c0 16 6 32.833 18 50.5s27 35 45 52
s37.333 32.667 58 47s39.667 26.166 57 35.499c28.667 16 49.5 29.333 62.5 40s19.5 24 19.5 40c0 14 -6 24.667 -18 32s-28.333 11 -49 11z" />
    <glyph glyph-name="threesuperior" unicode="&#xb3;" horiz-adv-x="387" 
d="M200 351c-25.333 0 -49.9961 3.16699 -73.9961 9.5s-44.667 16.166 -62 29.499c-4.66699 4 -7 8 -7 12c0 2.66699 1 5 3 7l10 15.5l10 14.5c2.66699 4 5.66699 6 9 6c2 0 6.33301 -1.66699 13 -5c12 -7.33301 26.833 -13.666 44.5 -18.999s35.167 -8 52.5 -8
c33.333 0 58.166 7.33301 74.499 22s24.5 32 24.5 52c0 14.667 -6.33301 27.334 -19 38.001s-32.334 16 -59.001 16h-22c-8.66699 0 -14.167 1.16699 -16.5 3.5s-2.83301 6.5 -1.5 12.5l5 31c1.33301 5.33301 3.16602 9.16602 5.49902 11.499s6.83301 3.5 13.5 3.5h20
c24.667 0 44.334 5.16699 59.001 15.5s22 24.833 22 43.5c0 16 -6.83301 27 -20.5 33s-28.834 9 -45.501 9c-17.333 0 -34.333 -2.33301 -51 -7s-32 -10 -46 -16c-3.33301 -1.33301 -6.5 -2.66602 -9.5 -3.99902s-5.83301 -2 -8.5 -2s-5 2 -7 6l-15 32
c-1.33301 4 -2 6.66699 -2 8c0 4 3.33301 8 10 12c21.333 12.667 44.5 21.667 69.5 27s49.5 8 73.5 8c17.333 0 33.666 -2.16699 48.999 -6.5s28.666 -10.5 39.999 -18.5s20.333 -17.833 27 -29.5s10 -25.167 10 -40.5c0 -22 -5.66699 -41.333 -17 -58
s-26.666 -30 -45.999 -40c0 -0.666992 -0.166992 -1 -0.5 -1s-0.5 -0.333008 -0.5 -1v-1c18.667 -6.66699 32.5 -17.5 41.5 -32.5s13.5 -32.5 13.5 -52.5c0 -18.667 -4.16699 -36.334 -12.5 -53.001s-20 -31.167 -35 -43.5s-32.833 -22 -53.5 -29s-43.667 -10.5 -69 -10.5z
" />
    <glyph glyph-name="acute" unicode="&#xb4;" horiz-adv-x="451" 
d="M262 595c-8 2.66699 -9.33105 8.33496 -3.99805 17.002l86 154c2 3.33301 4.5 6.16602 7.5 8.49902s7.16699 2.83301 12.5 1.5l64 -18c5.33301 -1.33301 8.16602 -3.5 8.49902 -6.5s-0.833984 -6.16699 -3.50098 -9.5l-125 -150c-4 -5.33301 -7.5 -8.33301 -10.5 -9
s-6.5 -0.333984 -10.5 0.999023z" />
    <glyph glyph-name="mu" unicode="&#xb5;" horiz-adv-x="537" 
d="M109 511c1.33301 6.66699 3.33789 10.834 6.00488 12.501s6.66699 2.5 12 2.5h53c5.33301 0 9.16602 -0.833008 11.499 -2.5s2.83301 -5.83398 1.5 -12.501l-47 -338c-2.66699 -18 -3.33398 -33.667 -2.00098 -47s6.5 -24.333 15.5 -33s23.167 -15.167 42.5 -19.5
s45.666 -6.5 78.999 -6.5c8.66699 0 20.834 0.333008 36.501 1s34.5 3 56.5 7l62 436c1.33301 6.66699 3.16602 10.834 5.49902 12.501s6.16602 2.5 11.499 2.5h54c5.33301 0 9.16602 -0.833008 11.499 -2.5s2.83301 -5.83398 1.5 -12.501l-61 -436
c-6 -44 -30 -69.333 -72 -76c-18.667 -3.33301 -39.834 -5.66602 -63.501 -6.99902s-44.167 -2 -61.5 -2c-12 0 -24.667 0.5 -38 1.5s-26.333 2.66699 -39 5s-24.5 5.16602 -35.5 8.49902s-19.833 7.33301 -26.5 12l-29 -205c-1.33301 -6 -3.16602 -9.83301 -5.49902 -11.5
s-6.16602 -2.5 -11.499 -2.5h-52c-5.33301 0 -9.33301 0.833008 -12 2.5s-3.33398 5.5 -2.00098 11.5l98 699v0z" />
    <glyph glyph-name="mu" unicode="&#x3bc;" horiz-adv-x="537" 
d="M109 511c1.33301 6.66699 3.33789 10.834 6.00488 12.501s6.66699 2.5 12 2.5h53c5.33301 0 9.16602 -0.833008 11.499 -2.5s2.83301 -5.83398 1.5 -12.501l-47 -338c-2.66699 -18 -3.33398 -33.667 -2.00098 -47s6.5 -24.333 15.5 -33s23.167 -15.167 42.5 -19.5
s45.666 -6.5 78.999 -6.5c8.66699 0 20.834 0.333008 36.501 1s34.5 3 56.5 7l62 436c1.33301 6.66699 3.16602 10.834 5.49902 12.501s6.16602 2.5 11.499 2.5h54c5.33301 0 9.16602 -0.833008 11.499 -2.5s2.83301 -5.83398 1.5 -12.501l-61 -436
c-6 -44 -30 -69.333 -72 -76c-18.667 -3.33301 -39.834 -5.66602 -63.501 -6.99902s-44.167 -2 -61.5 -2c-12 0 -24.667 0.5 -38 1.5s-26.333 2.66699 -39 5s-24.5 5.16602 -35.5 8.49902s-19.833 7.33301 -26.5 12l-29 -205c-1.33301 -6 -3.16602 -9.83301 -5.49902 -11.5
s-6.16602 -2.5 -11.499 -2.5h-52c-5.33301 0 -9.33301 0.833008 -12 2.5s-3.33398 5.5 -2.00098 11.5l98 699v0z" />
    <glyph glyph-name="paragraph" unicode="&#xb6;" horiz-adv-x="488" 
d="M224 337c-24 0 -45.501 3.99902 -64.501 11.999s-35.167 19 -48.5 33s-23.5 30.667 -30.5 50s-10.5 40 -10.5 62c0 33.333 5.66699 62.833 17 88.5s26.5 47.334 45.5 65.001s40.833 31 65.5 40s50.334 13.5 77.001 13.5h84c6 0 9 -3.33301 9 -10l-49 -344
c0 -6.66699 -3.66699 -10 -11 -10h-84zM391.999 57.999c-4.66699 -32 -10.5 -60.334 -17.5 -85.001s-18 -45.667 -33 -63s-35.333 -30.833 -61 -40.5s-59.5 -15.5 -101.5 -17.5c-2.66699 0 -4.83398 0.5 -6.50098 1.5s-2.5 3.5 -2.5 7.5l3 44v1c0 6 3 9.66699 9 11
c28 2.66699 50.667 7.33398 68 14.001s31.333 15.5 42 26.5s18.5 24 23.5 39s8.83301 32.167 11.5 51.5l90 643c0 3.33301 1.33301 5.83301 4 7.5s5.33398 2.5 8.00098 2.5h44c6 0 9 -3 9 -9v-1z" />
    <glyph glyph-name="periodcentered" unicode="&#xb7;" horiz-adv-x="256" 
d="M152 368c18.667 0 33.501 -5.66797 44.501 -17.001s16.5 -25.666 16.5 -42.999c0 -11.333 -2.16699 -21.833 -6.5 -31.5s-10.333 -18.167 -18 -25.5s-16.334 -13.166 -26.001 -17.499s-19.834 -6.5 -30.501 -6.5c-17.333 0 -31.5 5.5 -42.5 16.5s-16.5 25.167 -16.5 42.5
c0 11.333 2.16699 22 6.5 32s10 18.667 17 26s15.333 13.166 25 17.499s19.834 6.5 30.501 6.5z" />
    <glyph glyph-name="cedilla" unicode="&#xb8;" horiz-adv-x="473" 
d="M209 -165c17.333 0 30.6641 3.16699 39.9971 9.5s14 15.5 14 27.5c0 11.333 -5 19.5 -15 24.5s-22.333 7.5 -37 7.5h-16.5c-3.66699 0 -6.5 1.33301 -8.5 4c-3.33301 3.33301 -4.66602 6.83301 -3.99902 10.5s2.33398 7.83398 5.00098 12.501l36 79
c1.33301 2 2.66602 3.66699 3.99902 5s4 2 8 2h30c3.33301 0 5 -0.833008 5 -2.5s-0.333008 -3.16699 -1 -4.5l-30 -65c32.667 -2 55.334 -10.5 68.001 -25.5s19 -31.167 19 -48.5c0 -10 -2.5 -20 -7.5 -30s-12.5 -19 -22.5 -27s-22 -14.5 -36 -19.5s-30 -7.5 -48 -7.5
c-16 0 -31.667 1.66699 -47 5s-27.666 7.66602 -36.999 12.999c-3.33301 1.33301 -5.33301 3 -6 5s0.333008 5.33301 3 10l9 20c3.33301 5.33301 6 8 8 8s5 -0.666992 9 -2c9.33301 -3.33301 19 -6 29 -8s19.667 -3 29 -3z" />
    <glyph glyph-name="onesuperior" unicode="&#xb9;" horiz-adv-x="387" 
d="M337 374c-1.33301 -6.66699 -3.16602 -11.167 -5.49902 -13.5s-7.16602 -3.5 -14.499 -3.5h-202c-7.33301 0 -11.666 1.16699 -12.999 3.5s-1.33301 6.83301 0 13.5l4 31c0.666992 6 2.16699 10 4.5 12s7.16602 3 14.499 3h64l39 274l-66 -12
c-4.66699 -0.666992 -8.33398 -0.333984 -11.001 0.999023s-3.33398 5.33301 -2.00098 12l3 27c1.33301 6 2.83301 10.333 4.5 13s5.5 5 11.5 7l96 24c12 3.33301 22.333 3.33301 31 0s12 -11.666 10 -24.999l-45 -321h66c7.33301 0 12 -1 14 -3s2.33301 -6 1 -12z" />
    <glyph glyph-name="ordmasculine" unicode="&#xba;" horiz-adv-x="372" 
d="M245 622c46.667 0 81.501 -12.832 104.501 -38.499s34.5 -62.167 34.5 -109.5c0 -34 -4.83301 -64.167 -14.5 -90.5s-22.667 -48.833 -39 -67.5s-35.833 -32.834 -58.5 -42.501s-47 -14.5 -73 -14.5c-44.667 0 -79.167 11.667 -103.5 35s-36.5 57.333 -36.5 102
c0 36.667 5 69 15 97s23.5 51.5 40.5 70.5s36.667 33.5 59 43.5s46.166 15 71.499 15zM241.001 561.001c-18.667 0 -35.001 -4.33105 -49.001 -12.998s-25.5 -20.334 -34.5 -35.001s-15.833 -31.334 -20.5 -50.001s-7 -38 -7 -58c0 -25.333 5.5 -45.833 16.5 -61.5
s30.5 -23.5 58.5 -23.5c20 0 37 4.66699 51 14s25.5 21.333 34.5 36s15.5 31 19.5 49s6 35.667 6 53c0 24.667 -5.66699 45.667 -17 63s-30.666 26 -57.999 26z" />
    <glyph glyph-name="guillemotright" unicode="&#xbb;" horiz-adv-x="469" 
d="M245 440c-1.33301 5.33301 -0.667969 9.99805 1.99902 13.998s7 6 13 6h48c10 0 16.5 -1.66699 19.5 -5s6.16699 -7.66602 9.5 -12.999l71 -157l7 -18c2.66699 -6.66699 3.33398 -14.334 2.00098 -23.001c-1.33301 -5.33301 -4 -11.666 -8 -18.999
s-7.66699 -13.333 -11 -18l-118 -158c-3.33301 -5.33301 -7.5 -9.66602 -12.5 -12.999s-12.5 -5 -22.5 -5h-50c-5.33301 0 -8.83301 1.66699 -10.5 5s-0.5 8 3.5 14l145 193zM86.998 439.998c-2.66699 5.33301 -2.5 9.99805 0.5 13.998s7.5 6 13.5 6h49
c9.33301 0 15.666 -1.66699 18.999 -5s6.33301 -7.66602 9 -12.999l72 -157l7 -18c2.66699 -6.66699 3.33398 -14.334 2.00098 -23.001c-1.33301 -5.33301 -4 -11.666 -8 -18.999s-7.66699 -13.333 -11 -18l-119 -158c-3.33301 -5.33301 -7.33301 -9.66602 -12 -12.999
s-12 -5 -22 -5h-51c-6 0 -9.83301 1.66699 -11.5 5s-0.166992 8 4.5 14l145 193z" />
    <glyph glyph-name="onequarter" unicode="&#xbc;" horiz-adv-x="870" 
d="M486 87c-8.66699 0 -16.333 1.49805 -23 4.49805s-9 11.167 -7 24.5c0 0.666992 0.333008 2.83398 1 6.50098s1 5.83398 1 6.50098c1.33301 7.33301 3.33301 13.5 6 18.5s7 10.5 13 16.5l213 223c6.66699 6.66699 13.167 12.5 19.5 17.5s14.166 7.5 23.499 7.5h22
c12 0 20.333 -2.33301 25 -7s6.33398 -13.334 5.00098 -26.001l-33 -231h39c7.33301 0 11.5 -1.66699 12.5 -5s1.16699 -7.66602 0.5 -12.999l-4 -25c-1.33301 -5.33301 -2.83301 -9.5 -4.5 -12.5s-6.16699 -4.5 -13.5 -4.5h-39l-10 -72
c-1.33301 -7.33301 -3.33301 -11.833 -6 -13.5s-7.66699 -2.5 -15 -2.5h-34c-6 -0 -10.333 0.833008 -13 2.5s-3.66699 6.16699 -3 13.5l11 71h-187zM360.001 283.998c-1.33301 -6.66699 -3.16602 -11.167 -5.49902 -13.5s-7.16602 -3.5 -14.499 -3.5h-202
c-7.33301 0 -11.666 1.16699 -12.999 3.5s-1.33301 6.83301 0 13.5l4 31c0.666992 6 2.16699 10 4.5 12s7.16602 3 14.499 3h64l39 274l-66 -12c-4.66699 -0.666992 -8.33398 -0.333984 -11.001 0.999023s-3.33398 5.33301 -2.00098 12l3 27
c1.33301 6 2.83301 10.333 4.5 13s5.5 5 11.5 7l96 24c12 3.33301 22.333 3.33301 31 0s12 -11.666 10 -24.999l-45 -321h66c7.33301 0 12 -1 14 -3s2.33301 -6 1 -12zM268.001 -8.00195c-3.33301 -5.33301 -6.66602 -9 -9.99902 -11s-7.66602 -3 -12.999 -3h-30
c-10 0 -12.333 4.66699 -7 14l494 690c3.33301 5.33301 6.16602 9 8.49902 11s6.16602 3 11.499 3h34c3.33301 0 6 -1 8 -3s1.33301 -5.66699 -2 -11zM552.001 147.998h130l24 166h-2c-0.666992 0 -1 0.333008 -1 1l-152 -164z" />
    <glyph glyph-name="onehalf" unicode="&#xbd;" horiz-adv-x="870" 
d="M338 284c-1.33301 -6.66699 -3.16602 -11.167 -5.49902 -13.5s-7.16602 -3.5 -14.499 -3.5h-202c-7.33301 0 -11.666 1.16699 -12.999 3.5s-1.33301 6.83301 0 13.5l4 31c0.666992 6 2.16699 10 4.5 12s7.16602 3 14.499 3h64l39 274l-66 -12
c-4.66699 -0.666992 -8.33398 -0.333984 -11.001 0.999023s-3.33398 5.33301 -2.00098 12l3 27c1.33301 6 2.83301 10.333 4.5 13s5.5 5 11.5 7l96 24c12 3.33301 22.333 3.33301 31 0s12 -11.666 10 -24.999l-45 -321h66c7.33301 0 12 -1 14 -3s2.33301 -6 1 -12zM237 -8
c-3.33301 -5.33301 -6.66602 -9 -9.99902 -11s-7.66602 -3 -12.999 -3h-30c-10 0 -12.333 4.66699 -7 14l494 690c3.33301 5.33301 6.16602 9 8.49902 11s6.16602 3 11.499 3h34c3.33301 0 6 -1 8 -3s1.33301 -5.66699 -2 -11zM688 347
c-14.667 0 -30.9971 -2.6709 -48.9971 -8.00391s-34.667 -12.666 -50 -21.999c-4.66699 -2.66699 -9 -4.5 -13 -5.5s-7.66699 1.16699 -11 6.5l-19 31c-2 4.66699 -2.33301 8.5 -1 11.5s4.66602 6.5 9.99902 10.5c20 13.333 42.333 23.666 67 30.999s48.334 11 71.001 11
c38.667 0 70.667 -7.83301 96 -23.5s38 -40.5 38 -74.5c0 -19.333 -3.5 -36.166 -10.5 -50.499s-16.333 -27.166 -28 -38.499s-25.334 -21.666 -41.001 -30.999l-48.5 -28c-22.667 -12.667 -45.834 -27.167 -69.501 -43.5s-41.834 -36.5 -54.501 -60.5h203
c8 0 12.333 -1.33301 13 -4s0.666992 -6.66699 0 -12l-5 -31c-0.666992 -4 -2 -7.66699 -4 -11s-6.33301 -5 -13 -5h-228c-17.333 0 -29.5 3.66699 -36.5 11s-10.5 16.666 -10.5 27.999c0 16 6 32.833 18 50.5s27 34.834 45 51.501s37.333 32.334 58 47.001
s39.667 26.667 57 36c29.333 15.333 50.5 28.5 63.5 39.5s19.5 24.167 19.5 39.5c0 14.667 -6.16699 25.667 -18.5 33s-28.5 11 -48.5 11z" />
    <glyph glyph-name="threequarters" unicode="&#xbe;" horiz-adv-x="870" 
d="M513 87c-8.66699 0 -16.333 1.49805 -23 4.49805s-9 11.167 -7 24.5c0 0.666992 0.333008 2.83398 1 6.50098s1 5.83398 1 6.50098c1.33301 7.33301 3.33301 13.5 6 18.5s7 10.5 13 16.5l213 223c6.66699 6.66699 13.167 12.5 19.5 17.5s14.166 7.5 23.499 7.5h22
c12 0 20.333 -2.33301 25 -7s6.33398 -13.334 5.00098 -26.001l-33 -231h39c7.33301 0 11.5 -1.66699 12.5 -5s1.16699 -7.66602 0.5 -12.999l-4 -25c-1.33301 -5.33301 -2.83301 -9.5 -4.5 -12.5s-6.16699 -4.5 -13.5 -4.5h-39l-10 -72
c-1.33301 -7.33301 -3.33301 -11.833 -6 -13.5s-7.66699 -2.5 -15 -2.5h-34c-6 -0 -10.333 0.833008 -13 2.5s-3.66699 6.16699 -3 13.5l11 71h-187zM240.001 260.998c-25.333 0 -49.9961 3.16699 -73.9961 9.5s-44.667 16.166 -62 29.499c-4.66699 4 -7 8 -7 12
c0 2.66699 1 5 3 7l10 15.5l10 14.5c2.66699 4 5.66699 6 9 6c2 0 6.33301 -1.66699 13 -5c12 -7.33301 26.833 -13.666 44.5 -18.999s35.167 -8 52.5 -8c33.333 0 58.166 7.33301 74.499 22s24.5 32 24.5 52c0 14.667 -6.33301 27.334 -19 38.001s-32.334 16 -59.001 16
h-22c-8.66699 0 -14.167 1.16699 -16.5 3.5s-2.83301 6.5 -1.5 12.5l5 31c1.33301 5.33301 3.16602 9.16602 5.49902 11.499s6.83301 3.5 13.5 3.5h20c24.667 0 44.334 5.16699 59.001 15.5s22 24.833 22 43.5c0 16 -6.83301 27 -20.5 33s-28.834 9 -45.501 9
c-17.333 0 -34.333 -2.33301 -51 -7s-32 -10 -46 -16c-3.33301 -1.33301 -6.5 -2.66602 -9.5 -3.99902s-5.83301 -2 -8.5 -2s-5 2 -7 6l-15 32c-1.33301 4 -2 6.66699 -2 8c0 4 3.33301 8 10 12c21.333 12.667 44.5 21.667 69.5 27s49.5 8 73.5 8
c17.333 0 33.666 -2.16699 48.999 -6.5s28.666 -10.5 39.999 -18.5s20.333 -17.833 27 -29.5s10 -25.167 10 -40.5c0 -22 -5.66699 -41.333 -17 -58s-26.666 -30 -45.999 -40c0 -0.666992 -0.166992 -1 -0.5 -1s-0.5 -0.333008 -0.5 -1v-1
c18.667 -6.66699 32.5 -17.5 41.5 -32.5s13.5 -32.5 13.5 -52.5c0 -18.667 -4.16699 -36.334 -12.5 -53.001s-20 -31.167 -35 -43.5s-32.833 -22 -53.5 -29s-43.667 -10.5 -69 -10.5zM280.005 -8.00195c-3.33301 -5.33301 -6.66602 -9 -9.99902 -11s-7.66602 -3 -12.999 -3
h-30c-10 0 -12.333 4.66699 -7 14l494 690c3.33301 5.33301 6.16602 9 8.49902 11s6.16602 3 11.499 3h34c3.33301 0 6 -1 8 -3s1.33301 -5.66699 -2 -11zM579.005 147.998h130l24 166h-2c-0.666992 0 -1 0.333008 -1 1l-152 -164z" />
    <glyph glyph-name="questiondown" unicode="&#xbf;" horiz-adv-x="490" 
d="M328 390c-5.33301 0 -11.1689 0.833008 -17.502 2.5s-12.5 4.83398 -18.5 9.50098s-10.833 10.5 -14.5 17.5s-5.5 16.167 -5.5 27.5c0 22 7.5 40.833 22.5 56.5s33.167 23.5 54.5 23.5c17.333 0 31.333 -5.33301 42 -16s16 -24.667 16 -42
c0 -10.667 -2.16699 -20.834 -6.5 -30.501s-10.166 -18 -17.499 -25s-15.666 -12.667 -24.999 -17s-19.333 -6.5 -30 -6.5zM222.997 -112c10.667 0 22.6709 1.16602 36.0039 3.49902s27.166 5.83301 41.499 10.5s28.666 10.334 42.999 17.001s27.833 14 40.5 22
c4.66699 3.33301 9.16699 5 13.5 5s7.5 -2 9.5 -6l26 -41c4.66699 -8 2 -15 -8 -21c-16 -12 -33 -22.333 -51 -31s-36.167 -15.834 -54.5 -21.501s-36.5 -9.83398 -54.5 -12.501s-34.333 -4 -49 -4c-28 0 -53.833 3 -77.5 9s-44.167 15.333 -61.5 28
s-30.833 28.667 -40.5 48s-14.5 42 -14.5 68c0 22.667 3.66699 43.167 11 61.5s17 35.5 29 51.5s25.667 30.667 41 44l47 39l42 33c14 10.667 26.667 21.667 38 33s20.833 23.166 28.5 35.499s12.834 25.5 15.501 39.5l3 28c1.33301 6 2.66602 9.66699 3.99902 11
s4.33301 2 9 2h61c4.66699 0 8.16699 -0.833008 10.5 -2.5s2.83301 -5.16699 1.5 -10.5l-5 -31c-3.33301 -22.667 -10 -42.667 -20 -60s-22 -33.166 -36 -47.499s-29.167 -27.666 -45.5 -39.999l-48.5 -36.5c-28 -21.333 -51.167 -43.666 -69.5 -66.999s-27.5 -47 -27.5 -71
c0 -10.667 1.66699 -21.167 5 -31.5s9.16602 -19.5 17.499 -27.5s19.666 -14.5 33.999 -19.5s32.833 -7.5 55.5 -7.5z" />
    <glyph glyph-name="Agrave" unicode="&#xc0;" horiz-adv-x="600" 
d="M489 0c-6 0 -10.8311 0.666992 -14.498 2s-6.16699 5.66602 -7.5 12.999l-27 147h-274l-69 -147c-3.33301 -5.33301 -6.5 -9.16602 -9.5 -11.499s-7.5 -3.5 -13.5 -3.5h-71c-6.66699 -0 -10.5 1.83301 -11.5 5.5s-0.833008 8.16699 0.5 13.5l311 643
c7.33301 16 14.5 26.5 21.5 31.5s18.167 7.83301 33.5 8.5h28c17.333 0 28.666 -2.83301 33.999 -8.5s9.66602 -16.167 12.999 -31.5l128 -643c1.33301 -4.66699 1 -9 -1 -13s-6 -6 -12 -6h-59zM390.002 451l-25 146h-5l-64 -141l-96 -213h225zM407.002 749
c-4.66699 -6.66699 -11.334 -7.33203 -20.001 -1.99902l-157 90c-7.33301 4 -7.66602 9.66699 -0.999023 17l40 54c4 4 7.66699 5.66699 11 5s6 -2.33398 8 -5.00098l133 -115c4.66699 -4 7 -7.16699 7 -9.5s-1.33301 -5.5 -4 -9.5z" />
    <glyph glyph-name="Aacute" unicode="&#xc1;" horiz-adv-x="600" 
d="M489 0c-6 0 -10.8311 0.666992 -14.498 2s-6.16699 5.66602 -7.5 12.999l-27 147h-274l-69 -147c-3.33301 -5.33301 -6.5 -9.16602 -9.5 -11.499s-7.5 -3.5 -13.5 -3.5h-71c-6.66699 -0 -10.5 1.83301 -11.5 5.5s-0.833008 8.16699 0.5 13.5l311 643
c7.33301 16 14.5 26.5 21.5 31.5s18.167 7.83301 33.5 8.5h28c17.333 0 28.666 -2.83301 33.999 -8.5s9.66602 -16.167 12.999 -31.5l128 -643c1.33301 -4.66699 1 -9 -1 -13s-6 -6 -12 -6h-59zM390.002 451l-25 146h-5l-64 -141l-96 -213h225zM341.002 776
c-2 4 -3.00195 7.33301 -3.00195 10s2.66699 5.66699 8 9l152 101c3.33301 2 6.66602 3.5 9.99902 4.5s6.33301 -0.833008 9 -5.5l32 -57c4.66699 -7.33301 3.33398 -12.666 -3.99902 -15.999l-175 -78c-5.33301 -2 -9.16602 -2.33301 -11.499 -1
s-4.16602 3.66602 -5.49902 6.99902z" />
    <glyph glyph-name="Acircumflex" unicode="&#xc2;" horiz-adv-x="600" 
d="M489 0c-6 0 -10.8311 0.666992 -14.498 2s-6.16699 5.66602 -7.5 12.999l-27 147h-274l-69 -147c-3.33301 -5.33301 -6.5 -9.16602 -9.5 -11.499s-7.5 -3.5 -13.5 -3.5h-71c-6.66699 -0 -10.5 1.83301 -11.5 5.5s-0.833008 8.16699 0.5 13.5l311 643
c7.33301 16 14.5 26.5 21.5 31.5s18.167 7.83301 33.5 8.5h28c17.333 0 28.666 -2.83301 33.999 -8.5s9.66602 -16.167 12.999 -31.5l128 -643c1.33301 -4.66699 1 -9 -1 -13s-6 -6 -12 -6h-59zM390.002 451l-25 146h-5l-64 -141l-96 -213h225zM522.002 745
c-3.33301 -3.33301 -6.16895 -4.5 -8.50195 -3.5s-6.16602 2.5 -11.499 4.5l-116 66l-134 -67c-7.33301 -4 -12.666 -3 -15.999 3l-14 18c-4 5.33301 -3.33301 10.333 2 15l134 100c16 11.333 29.667 17 41 17c5.33301 0 11 -0.833008 17 -2.5s13 -6.5 21 -14.5l102 -100
c6 -6 5.66699 -12.333 -1 -19z" />
    <glyph glyph-name="Atilde" unicode="&#xc3;" horiz-adv-x="600" 
d="M489 0c-6 0 -10.8311 0.666992 -14.498 2s-6.16699 5.66602 -7.5 12.999l-27 147h-274l-69 -147c-3.33301 -5.33301 -6.5 -9.16602 -9.5 -11.499s-7.5 -3.5 -13.5 -3.5h-71c-6.66699 -0 -10.5 1.83301 -11.5 5.5s-0.833008 8.16699 0.5 13.5l311 643
c7.33301 16 14.5 26.5 21.5 31.5s18.167 7.83301 33.5 8.5h28c17.333 0 28.666 -2.83301 33.999 -8.5s9.66602 -16.167 12.999 -31.5l128 -643c1.33301 -4.66699 1 -9 -1 -13s-6 -6 -12 -6h-59zM390.002 451l-25 146h-5l-64 -141l-96 -213h225zM432.002 752
c-11.333 0 -21.9961 1.82617 -31.9961 5.49316s-19.833 7.66699 -29.5 12s-19.334 8.33301 -29.001 12s-19.834 5.5 -30.501 5.5c-17.333 0 -34.666 -9.66699 -51.999 -29c-2.66699 -3.33301 -5 -5.66602 -7 -6.99902s-5 -0.666016 -9 2.00098l-34 17
c-4 2.66699 -6.5 4.83398 -7.5 6.50098s0.166992 4.83398 3.5 9.50098c13.333 20.667 29.166 37.334 47.499 50.001s39.166 19 62.499 19c11.333 0 21.833 -1.83301 31.5 -5.5s19 -7.66699 28 -12l26 -12c8.33301 -3.66699 17.166 -5.5 26.499 -5.5
c20.667 0 37.667 9.66699 51 29c3.33301 4.66699 5.83301 7.33398 7.5 8.00098s4.16699 0.333984 7.5 -0.999023l39 -14c8 -2.66699 10.667 -7.66699 8 -15c-24.667 -50 -60.667 -75 -108 -75z" />
    <glyph glyph-name="Adieresis" unicode="&#xc4;" horiz-adv-x="600" 
d="M489 0c-6 0 -10.8311 0.666992 -14.498 2s-6.16699 5.66602 -7.5 12.999l-27 147h-274l-69 -147c-3.33301 -5.33301 -6.5 -9.16602 -9.5 -11.499s-7.5 -3.5 -13.5 -3.5h-71c-6.66699 -0 -10.5 1.83301 -11.5 5.5s-0.833008 8.16699 0.5 13.5l311 643
c7.33301 16 14.5 26.5 21.5 31.5s18.167 7.83301 33.5 8.5h28c17.333 0 28.666 -2.83301 33.999 -8.5s9.66602 -16.167 12.999 -31.5l128 -643c1.33301 -4.66699 1 -9 -1 -13s-6 -6 -12 -6h-59zM390.002 451l-25 146h-5l-64 -141l-96 -213h225zM467.002 853
c12.667 0 23.5 -4.66699 32.5 -14s13.5 -20.333 13.5 -33c0 -7.33301 -1.83301 -14.666 -5.5 -21.999s-8.5 -13.833 -14.5 -19.5s-12.667 -10.167 -20 -13.5s-14.333 -5 -21 -5c-13.333 0 -24.5 4.66699 -33.5 14s-13.5 20.333 -13.5 33c0 15.333 6.5 29.166 19.5 41.499
s27.167 18.5 42.5 18.5zM292.002 853c12 0 22.667 -4.66602 32 -13.999s14 -20.333 14 -33c0 -8 -2 -15.5 -6 -22.5s-9 -13.333 -15 -19s-12.667 -10.167 -20 -13.5s-14.333 -5 -21 -5c-12.667 0 -23.5 4.66699 -32.5 14s-13.167 20.333 -12.5 33
c0 7.33301 1.66699 14.666 5 21.999s7.83301 13.833 13.5 19.5s12.167 10.167 19.5 13.5s15 5 23 5z" />
    <glyph glyph-name="Aring" unicode="&#xc5;" horiz-adv-x="600" 
d="M489 0c-6 0 -10.8311 0.666992 -14.498 2s-6.16699 5.66602 -7.5 12.999l-27 147h-274l-69 -147c-3.33301 -5.33301 -6.5 -9.16602 -9.5 -11.499s-7.5 -3.5 -13.5 -3.5h-71c-6.66699 -0 -10.5 1.83301 -11.5 5.5s-0.833008 8.16699 0.5 13.5l311 643
c7.33301 16 14.5 26.5 21.5 31.5s18.167 7.83301 33.5 8.5h28c17.333 0 28.666 -2.83301 33.999 -8.5s9.66602 -16.167 12.999 -31.5l128 -643c1.33301 -4.66699 1 -9 -1 -13s-6 -6 -12 -6h-59zM390.002 451l-25 146h-5l-64 -141l-96 -213h225zM398.002 908
c24 0 43.667 -7.33203 59 -21.999s23 -34 23 -58c0 -15.333 -3 -29.333 -9 -42s-14 -23.834 -24 -33.501s-21.5 -17.167 -34.5 -22.5s-26.5 -8 -40.5 -8c-24 0 -43.667 7 -59 21s-23 32.667 -23 56c0 15.333 2.83301 29.666 8.5 42.999s13.5 24.833 23.5 34.5
s21.5 17.334 34.5 23.001s26.833 8.5 41.5 8.5zM392.002 867.001c-16.667 0 -30.667 -6 -42 -18s-17 -26.667 -17 -44c0 -12.667 4 -23 12 -31s18.667 -12 32 -12c15.333 0 29 5.83301 41 17.5s18 26.167 18 43.5c0 13.333 -4 24 -12 32s-18.667 12 -32 12z" />
    <glyph glyph-name="AE" unicode="&#xc6;" horiz-adv-x="828" 
d="M470 331l-12 -84c-4 -28 -7.66699 -56 -11 -84c-2 -11.333 -2.5 -21.833 -1.5 -31.5s4 -18 9 -25s12.333 -12.667 22 -17s22.834 -6.5 39.501 -6.5h258c6 0 9.5 -1.5 10.5 -4.5s1.16699 -6.83301 0.5 -11.5l-7 -52
c-0.666992 -5.33301 -1.83398 -9.16602 -3.50098 -11.499s-5.5 -3.5 -11.5 -3.5h-266c-50.667 0 -86.667 11.333 -108 34s-32 54 -32 94c0 5.33301 0.166992 11 0.5 17s0.833008 12 1.5 18h-203l-35 -76l-36 -76c-4 -7.33301 -9.66699 -11 -17 -11h-68
c-5.33301 0 -8 2.33301 -8 7c0 2 0.333008 3.33301 1 4l135.5 288l136.5 288c15.333 33.333 37 60.666 65 81.999s65.333 32 112 32h391c6.66699 0 10.5 -1.66699 11.5 -5s1.16699 -7.33301 0.5 -12l-7 -50c-0.666992 -6 -2 -10.167 -4 -12.5s-6.33301 -3.5 -13 -3.5h-230
c-28.667 0 -50.167 -6.5 -64.5 -19.5s-23.5 -33.5 -27.5 -61.5c-3.33301 -21.333 -6.33301 -42.333 -9 -63s-5.66699 -41.667 -9 -63h289c7.33301 0 11.333 -1.5 12 -4.5s0.666992 -7.16699 0 -12.5l-6 -46c-0.666992 -5.33301 -2 -9.5 -4 -12.5s-6.33301 -4.5 -13 -4.5
h-289zM188 237l181 -0.000976562l21 146.5l20 146.5c3.33301 19.333 7.5 37.333 12.5 54s11.5 29.334 19.5 38.001c-28 0 -50.167 -4.33301 -66.5 -13s-28.833 -22.667 -37.5 -42l-22.5 -46.5l-21.5 -46.5z" />
    <glyph glyph-name="Ccedilla" unicode="&#xc7;" horiz-adv-x="580" 
d="M273 -165c17.333 0 30.666 3.16309 39.999 9.49609s14 15.5 14 27.5c0 11.333 -5 19.5 -15 24.5s-22.333 7.5 -37 7.5h-16.5c-3.66699 0 -6.5 1.33301 -8.5 4c-3.33301 3.33301 -4.66602 6.83301 -3.99902 10.5s2.33398 7.83398 5.00098 12.501l27 60
c-139.333 12.667 -209 106 -209 280c0 68.667 8.16699 130.334 24.5 185.001s39.333 100.667 69 138s65 66 106 86s86.167 30 135.5 30c12 0 25.5 -0.5 40.5 -1.5s30.667 -3 47 -6s32.833 -7.16699 49.5 -12.5s32.667 -12.333 48 -21c3.33301 -2 5.16602 -4.5 5.49902 -7.5
s-1.16699 -8.16699 -4.5 -15.5l-18 -43c-4 -9.33301 -10.333 -11.666 -19 -6.99902c-22.667 11.333 -47.334 19.166 -74.001 23.499s-50.334 6.5 -71.001 6.5c-47.333 0 -86.833 -10.333 -118.5 -31s-57 -47.834 -76 -81.501s-32.333 -71.667 -40 -114
s-11.5 -85.166 -11.5 -128.499c0 -29.333 2.66699 -56.166 8 -80.499s14.666 -45.166 27.999 -62.499s31.333 -31 54 -41s51.334 -15 86.001 -15c28.667 0 57.334 3.83301 86.001 11.5s55 16.834 79 27.501c7.33301 3.33301 12.166 3.83301 14.499 1.5s4.5 -5.5 6.5 -9.5
l21 -42c3.33301 -7.33301 4 -12.833 2 -16.5s-5.33301 -6.83398 -10 -9.50098c-35.333 -17.333 -72 -29.166 -110 -35.499s-72.667 -9.83301 -104 -10.5l-20 -44c32.667 -2 55.334 -10.5 68.001 -25.5s19 -31.167 19 -48.5c0 -10 -2.5 -20 -7.5 -30s-12.5 -19 -22.5 -27
s-22 -14.5 -36 -19.5s-30 -7.5 -48 -7.5c-16 0 -31.667 1.66699 -47 5s-27.666 7.66602 -36.999 12.999c-3.33301 1.33301 -5.33301 3 -6 5s0.333008 5.33301 3 10l9 20c3.33301 5.33301 6 8 8 8s5 -0.666992 9 -2c9.33301 -3.33301 19 -6 29 -8s19.667 -3 29 -3z" />
    <glyph glyph-name="Egrave" unicode="&#xc8;" horiz-adv-x="561" 
d="M508 21c-1.33301 -7.33301 -3.33398 -12.668 -6.00098 -16.001s-7.66699 -5 -15 -5h-275c-33.333 0 -59.833 4.66699 -79.5 14s-34.5 21.666 -44.5 36.999s-16 33.333 -18 54s-1.33301 42.667 2 66l49 358c3.33301 22.667 8.33301 44.5 15 65.5s16.667 39.333 30 55
s30.5 28.167 51.5 37.5s47.5 14 79.5 14h268c7.33301 0 12 -1.66699 14 -5s2.66699 -8.66602 2 -15.999l-7 -42c-0.666992 -7.33301 -2.33398 -12.5 -5.00098 -15.5s-8 -4.5 -16 -4.5h-254c-27.333 0 -47.666 -6.16699 -60.999 -18.5s-22 -31.5 -26 -57.5l-18 -130h308
c7.33301 0 11.833 -1.66699 13.5 -5s2.16699 -8.66602 1.5 -15.999l-6 -38c-0.666992 -6.66699 -2.33398 -11.667 -5.00098 -15s-7.66699 -5 -15 -5h-308l-25 -174c-3.33301 -22.667 -0.166016 -40.834 9.50098 -54.501s28.5 -20.5 56.5 -20.5h274
c8 0 12.833 -1.66699 14.5 -5s1.83398 -8.66602 0.500977 -15.999zM442.999 748.998c-4.66699 -6.66699 -11.334 -7.33203 -20.001 -1.99902l-157 90c-7.33301 4 -7.66602 9.66699 -0.999023 17l40 54c4 4 7.66699 5.66699 11 5s6 -2.33398 8 -5.00098l133 -115
c4.66699 -4 7 -7.16699 7 -9.5s-1.33301 -5.5 -4 -9.5z" />
    <glyph glyph-name="Eacute" unicode="&#xc9;" horiz-adv-x="561" 
d="M508 21c-1.33301 -7.33301 -3.33398 -12.668 -6.00098 -16.001s-7.66699 -5 -15 -5h-275c-33.333 0 -59.833 4.66699 -79.5 14s-34.5 21.666 -44.5 36.999s-16 33.333 -18 54s-1.33301 42.667 2 66l49 358c3.33301 22.667 8.33301 44.5 15 65.5s16.667 39.333 30 55
s30.5 28.167 51.5 37.5s47.5 14 79.5 14h268c7.33301 0 12 -1.66699 14 -5s2.66699 -8.66602 2 -15.999l-7 -42c-0.666992 -7.33301 -2.33398 -12.5 -5.00098 -15.5s-8 -4.5 -16 -4.5h-254c-27.333 0 -47.666 -6.16699 -60.999 -18.5s-22 -31.5 -26 -57.5l-18 -130h308
c7.33301 0 11.833 -1.66699 13.5 -5s2.16699 -8.66602 1.5 -15.999l-6 -38c-0.666992 -6.66699 -2.33398 -11.667 -5.00098 -15s-7.66699 -5 -15 -5h-308l-25 -174c-3.33301 -22.667 -0.166016 -40.834 9.50098 -54.501s28.5 -20.5 56.5 -20.5h274
c8 0 12.833 -1.66699 14.5 -5s1.83398 -8.66602 0.500977 -15.999zM340.999 775.998c-2 4 -3.00195 7.33301 -3.00195 10s2.66699 5.66699 8 9l152 101c3.33301 2 6.66602 3.5 9.99902 4.5s6.33301 -0.833008 9 -5.5l32 -57
c4.66699 -7.33301 3.33398 -12.666 -3.99902 -15.999l-175 -78c-5.33301 -2 -9.16602 -2.33301 -11.499 -1s-4.16602 3.66602 -5.49902 6.99902z" />
    <glyph glyph-name="Ecircumflex" unicode="&#xca;" horiz-adv-x="561" 
d="M508 21c-1.33301 -7.33301 -3.33398 -12.668 -6.00098 -16.001s-7.66699 -5 -15 -5h-275c-33.333 0 -59.833 4.66699 -79.5 14s-34.5 21.666 -44.5 36.999s-16 33.333 -18 54s-1.33301 42.667 2 66l49 358c3.33301 22.667 8.33301 44.5 15 65.5s16.667 39.333 30 55
s30.5 28.167 51.5 37.5s47.5 14 79.5 14h268c7.33301 0 12 -1.66699 14 -5s2.66699 -8.66602 2 -15.999l-7 -42c-0.666992 -7.33301 -2.33398 -12.5 -5.00098 -15.5s-8 -4.5 -16 -4.5h-254c-27.333 0 -47.666 -6.16699 -60.999 -18.5s-22 -31.5 -26 -57.5l-18 -130h308
c7.33301 0 11.833 -1.66699 13.5 -5s2.16699 -8.66602 1.5 -15.999l-6 -38c-0.666992 -6.66699 -2.33398 -11.667 -5.00098 -15s-7.66699 -5 -15 -5h-308l-25 -174c-3.33301 -22.667 -0.166016 -40.834 9.50098 -54.501s28.5 -20.5 56.5 -20.5h274
c8 0 12.833 -1.66699 14.5 -5s1.83398 -8.66602 0.500977 -15.999zM538.999 744.998c-3.33301 -3.33301 -6.16895 -4.5 -8.50195 -3.5s-6.16602 2.5 -11.499 4.5l-116 66l-134 -67c-7.33301 -4 -12.666 -3 -15.999 3l-14 18c-4 5.33301 -3.33301 10.333 2 15l134 100
c16 11.333 29.667 17 41 17c5.33301 0 11 -0.833008 17 -2.5s13 -6.5 21 -14.5l102 -100c6 -6 5.66699 -12.333 -1 -19z" />
    <glyph glyph-name="Edieresis" unicode="&#xcb;" horiz-adv-x="561" 
d="M508 21c-1.33301 -7.33301 -3.33398 -12.668 -6.00098 -16.001s-7.66699 -5 -15 -5h-275c-33.333 0 -59.833 4.66699 -79.5 14s-34.5 21.666 -44.5 36.999s-16 33.333 -18 54s-1.33301 42.667 2 66l49 358c3.33301 22.667 8.33301 44.5 15 65.5s16.667 39.333 30 55
s30.5 28.167 51.5 37.5s47.5 14 79.5 14h268c7.33301 0 12 -1.66699 14 -5s2.66699 -8.66602 2 -15.999l-7 -42c-0.666992 -7.33301 -2.33398 -12.5 -5.00098 -15.5s-8 -4.5 -16 -4.5h-254c-27.333 0 -47.666 -6.16699 -60.999 -18.5s-22 -31.5 -26 -57.5l-18 -130h308
c7.33301 0 11.833 -1.66699 13.5 -5s2.16699 -8.66602 1.5 -15.999l-6 -38c-0.666992 -6.66699 -2.33398 -11.667 -5.00098 -15s-7.66699 -5 -15 -5h-308l-25 -174c-3.33301 -22.667 -0.166016 -40.834 9.50098 -54.501s28.5 -20.5 56.5 -20.5h274
c8 0 12.833 -1.66699 14.5 -5s1.83398 -8.66602 0.500977 -15.999zM481.999 851.998c12.667 0 23.5 -4.66699 32.5 -14s13.5 -20.333 13.5 -33c0 -7.33301 -1.83301 -14.666 -5.5 -21.999s-8.5 -13.833 -14.5 -19.5s-12.667 -10.167 -20 -13.5s-14.333 -5 -21 -5
c-13.333 0 -24.5 4.66699 -33.5 14s-13.5 20.333 -13.5 33c0 15.333 6.5 29.166 19.5 41.499s27.167 18.5 42.5 18.5zM306.999 851.998c12 0 22.667 -4.66602 32 -13.999s14 -20.333 14 -33c0 -8 -2 -15.5 -6 -22.5s-9 -13.333 -15 -19s-12.667 -10.167 -20 -13.5
s-14.333 -5 -21 -5c-12.667 0 -23.5 4.66699 -32.5 14s-13.167 20.333 -12.5 33c0 7.33301 1.66699 14.666 5 21.999s7.83301 13.833 13.5 19.5s12.167 10.167 19.5 13.5s15 5 23 5z" />
    <glyph glyph-name="Igrave" unicode="&#xcc;" horiz-adv-x="260" 
d="M155 681c1.33301 8 3.83105 13.167 7.49805 15.5s9.16699 3.5 16.5 3.5h49c7.33301 0 12.333 -1.16699 15 -3.5s3.33398 -7.5 2.00098 -15.5l-94 -662c-0.666992 -8 -2.5 -13.167 -5.5 -15.5s-8.16699 -3.5 -15.5 -3.5h-49c-7.33301 0 -12.666 1.16699 -15.999 3.5
s-4.33301 7.5 -3 15.5zM224.998 749c-4.66699 -6.66699 -11.334 -7.33203 -20.001 -1.99902l-157 90c-7.33301 4 -7.66602 9.66699 -0.999023 17l40 54c4 4 7.66699 5.66699 11 5s6 -2.33398 8 -5.00098l133 -115c4.66699 -4 7 -7.16699 7 -9.5s-1.33301 -5.5 -4 -9.5z" />
    <glyph glyph-name="Iacute" unicode="&#xcd;" horiz-adv-x="260" 
d="M155 681c1.33301 8 3.83105 13.167 7.49805 15.5s9.16699 3.5 16.5 3.5h49c7.33301 0 12.333 -1.16699 15 -3.5s3.33398 -7.5 2.00098 -15.5l-94 -662c-0.666992 -8 -2.5 -13.167 -5.5 -15.5s-8.16699 -3.5 -15.5 -3.5h-49c-7.33301 0 -12.666 1.16699 -15.999 3.5
s-4.33301 7.5 -3 15.5zM184.998 776c-2 4 -3.00195 7.33301 -3.00195 10s2.66699 5.66699 8 9l152 101c3.33301 2 6.66602 3.5 9.99902 4.5s6.33301 -0.833008 9 -5.5l32 -57c4.66699 -7.33301 3.33398 -12.666 -3.99902 -15.999l-175 -78
c-5.33301 -2 -9.16602 -2.33301 -11.499 -1s-4.16602 3.66602 -5.49902 6.99902z" />
    <glyph glyph-name="Icircumflex" unicode="&#xce;" horiz-adv-x="260" 
d="M155 681c1.33301 8 3.83105 13.167 7.49805 15.5s9.16699 3.5 16.5 3.5h49c7.33301 0 12.333 -1.16699 15 -3.5s3.33398 -7.5 2.00098 -15.5l-94 -662c-0.666992 -8 -2.5 -13.167 -5.5 -15.5s-8.16699 -3.5 -15.5 -3.5h-49c-7.33301 0 -12.666 1.16699 -15.999 3.5
s-4.33301 7.5 -3 15.5zM351.998 745c-3.33301 -3.33301 -6.16895 -4.5 -8.50195 -3.5s-6.16602 2.5 -11.499 4.5l-116 66l-134 -67c-7.33301 -4 -12.666 -3 -15.999 3l-14 18c-4 5.33301 -3.33301 10.333 2 15l134 100c16 11.333 29.667 17 41 17
c5.33301 0 11 -0.833008 17 -2.5s13 -6.5 21 -14.5l102 -100c6 -6 5.66699 -12.333 -1 -19z" />
    <glyph glyph-name="Idieresis" unicode="&#xcf;" horiz-adv-x="260" 
d="M155 681c1.33301 8 3.83105 13.167 7.49805 15.5s9.16699 3.5 16.5 3.5h49c7.33301 0 12.333 -1.16699 15 -3.5s3.33398 -7.5 2.00098 -15.5l-94 -662c-0.666992 -8 -2.5 -13.167 -5.5 -15.5s-8.16699 -3.5 -15.5 -3.5h-49c-7.33301 0 -12.666 1.16699 -15.999 3.5
s-4.33301 7.5 -3 15.5zM316.998 855c12.667 0 23.5 -4.66699 32.5 -14s13.5 -20.333 13.5 -33c0 -7.33301 -1.83301 -14.666 -5.5 -21.999s-8.5 -13.833 -14.5 -19.5s-12.667 -10.167 -20 -13.5s-14.333 -5 -21 -5c-13.333 0 -24.5 4.66699 -33.5 14s-13.5 20.333 -13.5 33
c0 15.333 6.5 29.166 19.5 41.499s27.167 18.5 42.5 18.5zM141.998 855c12 0 22.667 -4.66602 32 -13.999s14 -20.333 14 -33c0 -8 -2 -15.5 -6 -22.5s-9 -13.333 -15 -19s-12.667 -10.167 -20 -13.5s-14.333 -5 -21 -5c-12.667 0 -23.5 4.66699 -32.5 14
s-13.167 20.333 -12.5 33c0 7.33301 1.66699 14.666 5 21.999s7.83301 13.833 13.5 19.5s12.167 10.167 19.5 13.5s15 5 23 5z" />
    <glyph glyph-name="Eth" unicode="&#xd0;" horiz-adv-x="655" 
d="M95 0c-18 0 -30.168 4.33301 -36.501 13s-8.16602 21 -5.49902 37l38 270h-49c-6.66699 0 -10.5 1.5 -11.5 4.5s-1.16699 6.83301 -0.5 11.5l6 42c0.666992 5.33301 2 9.16602 4 11.499s6 3.5 12 3.5h49l36 256c2.66699 17.333 8.16699 30.166 16.5 38.499
s21.5 12.5 39.5 12.5c30 0 59.333 0.166992 88 0.5s57.667 0.5 87 0.5c89.333 0 155 -24.833 197 -74.5s63 -118.5 63 -206.5c0 -61.333 -7.33301 -117.666 -22 -168.999s-36.5 -95.666 -65.5 -132.999s-65.167 -66.333 -108.5 -87s-94 -31 -152 -31h-185zM222.999 618
l-15.998 -112.498l-16 -112.5h160c6.66699 0 10.5 -1.33301 11.5 -4s1.16699 -6.33398 0.5 -11.001l-6 -42c-0.666992 -6 -2 -10.167 -4 -12.5s-6 -3.5 -12 -3.5h-160l-33 -237h134c46.667 0 86.167 9.16699 118.5 27.5s58.666 42.666 78.999 72.999s35 65.5 44 105.5
s13.5 81.667 13.5 125c0 30 -2.83301 57.5 -8.5 82.5s-15.5 46.5 -29.5 64.5s-32.833 32 -56.5 42s-53.834 15 -90.501 15h-129z" />
    <glyph glyph-name="Ntilde" unicode="&#xd1;" horiz-adv-x="670" 
d="M580 682c1.33301 8 3.83496 13.167 7.50195 15.5s9.16699 3.5 16.5 3.5h47c7.33301 0 12.166 -1.16699 14.499 -3.5s2.83301 -7.5 1.5 -15.5l-88 -632c-2.66699 -16.667 -7.66699 -29.167 -15 -37.5s-20.333 -12.5 -39 -12.5h-25c-14.667 0 -24.834 3 -30.501 9
s-11.5 16.333 -17.5 31l-182 420l-52 122h-3l-78 -563c-1.33301 -8 -3.5 -13.167 -6.5 -15.5s-8.5 -3.5 -16.5 -3.5h-46c-6.66699 0 -11.667 1.16699 -15 3.5s-4.33301 7.5 -3 15.5l88 632c2.66699 16.667 8 29.167 16 37.5s21 12.5 39 12.5h25c14.667 0 24.667 -3 30 -9
s11.333 -16.333 18 -31l172 -399l60 -144h3zM484.002 762c-11.333 0 -21.9961 1.82617 -31.9961 5.49316s-19.833 7.66699 -29.5 12s-19.334 8.33301 -29.001 12s-19.834 5.5 -30.501 5.5c-17.333 0 -34.666 -9.66699 -51.999 -29
c-2.66699 -3.33301 -5 -5.66602 -7 -6.99902s-5 -0.666016 -9 2.00098l-34 17c-4 2.66699 -6.5 4.83398 -7.5 6.50098s0.166992 4.83398 3.5 9.50098c13.333 20.667 29.166 37.334 47.499 50.001s39.166 19 62.499 19c11.333 0 21.833 -1.83301 31.5 -5.5
s19 -7.66699 28 -12l26 -12c8.33301 -3.66699 17.166 -5.5 26.499 -5.5c20.667 0 37.667 9.66699 51 29c3.33301 4.66699 5.83301 7.33398 7.5 8.00098s4.16699 0.333984 7.5 -0.999023l39 -14c8 -2.66699 10.667 -7.66699 8 -15c-24.667 -50 -60.667 -75 -108 -75z" />
    <glyph glyph-name="Ograve" unicode="&#xd2;" horiz-adv-x="684" 
d="M412 711c82 0 144.001 -23.667 186.001 -71s63 -114 63 -200c0 -61.333 -7.5 -119.333 -22.5 -174s-37.167 -102.5 -66.5 -143.5s-65.333 -73.5 -108 -97.5s-91.667 -36 -147 -36c-80.667 0 -142 22.833 -184 68.5s-63 110.5 -63 194.5c0 72.667 9 137.5 27 194.5
s42.5 105 73.5 144s67.167 68.833 108.5 89.5s85.666 31 132.999 31zM407.001 629c-42.667 0 -79.6699 -10.4971 -111.003 -31.4971s-57.166 -48.667 -77.499 -83s-35.333 -73.5 -45 -117.5s-14.5 -89 -14.5 -135c0 -28.667 3 -54.834 9 -78.501s15.5 -43.834 28.5 -60.501
s30 -29.5 51 -38.5s46.833 -13.5 77.5 -13.5c42.667 0 79.834 10.333 111.501 31s57.834 48.167 78.501 82.5s36 73.5 46 117.5s15 89.333 15 136c0 26.667 -2.83301 51.667 -8.5 75s-15.167 43.666 -28.5 60.999s-30.833 30.833 -52.5 40.5s-48.167 14.5 -79.5 14.5z
M468.998 749.003c-4.66699 -6.66699 -11.334 -7.33203 -20.001 -1.99902l-157 90c-7.33301 4 -7.66602 9.66699 -0.999023 17l40 54c4 4 7.66699 5.66699 11 5s6 -2.33398 8 -5.00098l133 -115c4.66699 -4 7 -7.16699 7 -9.5s-1.33301 -5.5 -4 -9.5z" />
    <glyph glyph-name="Oacute" unicode="&#xd3;" horiz-adv-x="684" 
d="M412 711c82 0 144.001 -23.667 186.001 -71s63 -114 63 -200c0 -61.333 -7.5 -119.333 -22.5 -174s-37.167 -102.5 -66.5 -143.5s-65.333 -73.5 -108 -97.5s-91.667 -36 -147 -36c-80.667 0 -142 22.833 -184 68.5s-63 110.5 -63 194.5c0 72.667 9 137.5 27 194.5
s42.5 105 73.5 144s67.167 68.833 108.5 89.5s85.666 31 132.999 31zM407.001 629c-42.667 0 -79.6699 -10.4971 -111.003 -31.4971s-57.166 -48.667 -77.499 -83s-35.333 -73.5 -45 -117.5s-14.5 -89 -14.5 -135c0 -28.667 3 -54.834 9 -78.501s15.5 -43.834 28.5 -60.501
s30 -29.5 51 -38.5s46.833 -13.5 77.5 -13.5c42.667 0 79.834 10.333 111.501 31s57.834 48.167 78.501 82.5s36 73.5 46 117.5s15 89.333 15 136c0 26.667 -2.83301 51.667 -8.5 75s-15.167 43.666 -28.5 60.999s-30.833 30.833 -52.5 40.5s-48.167 14.5 -79.5 14.5z
M382.998 776.003c-2 4 -3.00195 7.33301 -3.00195 10s2.66699 5.66699 8 9l152 101c3.33301 2 6.66602 3.5 9.99902 4.5s6.33301 -0.833008 9 -5.5l32 -57c4.66699 -7.33301 3.33398 -12.666 -3.99902 -15.999l-175 -78c-5.33301 -2 -9.16602 -2.33301 -11.499 -1
s-4.16602 3.66602 -5.49902 6.99902z" />
    <glyph glyph-name="Ocircumflex" unicode="&#xd4;" horiz-adv-x="684" 
d="M412 711c82 0 144.001 -23.667 186.001 -71s63 -114 63 -200c0 -61.333 -7.5 -119.333 -22.5 -174s-37.167 -102.5 -66.5 -143.5s-65.333 -73.5 -108 -97.5s-91.667 -36 -147 -36c-80.667 0 -142 22.833 -184 68.5s-63 110.5 -63 194.5c0 72.667 9 137.5 27 194.5
s42.5 105 73.5 144s67.167 68.833 108.5 89.5s85.666 31 132.999 31zM407.001 629c-42.667 0 -79.6699 -10.4971 -111.003 -31.4971s-57.166 -48.667 -77.499 -83s-35.333 -73.5 -45 -117.5s-14.5 -89 -14.5 -135c0 -28.667 3 -54.834 9 -78.501s15.5 -43.834 28.5 -60.501
s30 -29.5 51 -38.5s46.833 -13.5 77.5 -13.5c42.667 0 79.834 10.333 111.501 31s57.834 48.167 78.501 82.5s36 73.5 46 117.5s15 89.333 15 136c0 26.667 -2.83301 51.667 -8.5 75s-15.167 43.666 -28.5 60.999s-30.833 30.833 -52.5 40.5s-48.167 14.5 -79.5 14.5z
M567.998 745.003c-3.33301 -3.33301 -6.16895 -4.5 -8.50195 -3.5s-6.16602 2.5 -11.499 4.5l-116 66l-134 -67c-7.33301 -4 -12.666 -3 -15.999 3l-14 18c-4 5.33301 -3.33301 10.333 2 15l134 100c16 11.333 29.667 17 41 17c5.33301 0 11 -0.833008 17 -2.5
s13 -6.5 21 -14.5l102 -100c6 -6 5.66699 -12.333 -1 -19z" />
    <glyph glyph-name="Otilde" unicode="&#xd5;" horiz-adv-x="684" 
d="M412 711c82 0 144.001 -23.667 186.001 -71s63 -114 63 -200c0 -61.333 -7.5 -119.333 -22.5 -174s-37.167 -102.5 -66.5 -143.5s-65.333 -73.5 -108 -97.5s-91.667 -36 -147 -36c-80.667 0 -142 22.833 -184 68.5s-63 110.5 -63 194.5c0 72.667 9 137.5 27 194.5
s42.5 105 73.5 144s67.167 68.833 108.5 89.5s85.666 31 132.999 31zM407.001 629c-42.667 0 -79.6699 -10.4971 -111.003 -31.4971s-57.166 -48.667 -77.499 -83s-35.333 -73.5 -45 -117.5s-14.5 -89 -14.5 -135c0 -28.667 3 -54.834 9 -78.501s15.5 -43.834 28.5 -60.501
s30 -29.5 51 -38.5s46.833 -13.5 77.5 -13.5c42.667 0 79.834 10.333 111.501 31s57.834 48.167 78.501 82.5s36 73.5 46 117.5s15 89.333 15 136c0 26.667 -2.83301 51.667 -8.5 75s-15.167 43.666 -28.5 60.999s-30.833 30.833 -52.5 40.5s-48.167 14.5 -79.5 14.5z
M499.998 765.003c-11.333 0 -21.9961 1.82617 -31.9961 5.49316s-19.833 7.66699 -29.5 12s-19.334 8.33301 -29.001 12s-19.834 5.5 -30.501 5.5c-17.333 0 -34.666 -9.66699 -51.999 -29c-2.66699 -3.33301 -5 -5.66602 -7 -6.99902s-5 -0.666016 -9 2.00098l-34 17
c-4 2.66699 -6.5 4.83398 -7.5 6.50098s0.166992 4.83398 3.5 9.50098c13.333 20.667 29.166 37.334 47.499 50.001s39.166 19 62.499 19c11.333 0 21.833 -1.83301 31.5 -5.5s19 -7.66699 28 -12l26 -12c8.33301 -3.66699 17.166 -5.5 26.499 -5.5
c20.667 0 37.667 9.66699 51 29c3.33301 4.66699 5.83301 7.33398 7.5 8.00098s4.16699 0.333984 7.5 -0.999023l39 -14c8 -2.66699 10.667 -7.66699 8 -15c-24.667 -50 -60.667 -75 -108 -75z" />
    <glyph glyph-name="Odieresis" unicode="&#xd6;" horiz-adv-x="684" 
d="M412 711c82 0 144.001 -23.667 186.001 -71s63 -114 63 -200c0 -61.333 -7.5 -119.333 -22.5 -174s-37.167 -102.5 -66.5 -143.5s-65.333 -73.5 -108 -97.5s-91.667 -36 -147 -36c-80.667 0 -142 22.833 -184 68.5s-63 110.5 -63 194.5c0 72.667 9 137.5 27 194.5
s42.5 105 73.5 144s67.167 68.833 108.5 89.5s85.666 31 132.999 31zM407.001 629c-42.667 0 -79.6699 -10.4971 -111.003 -31.4971s-57.166 -48.667 -77.499 -83s-35.333 -73.5 -45 -117.5s-14.5 -89 -14.5 -135c0 -28.667 3 -54.834 9 -78.501s15.5 -43.834 28.5 -60.501
s30 -29.5 51 -38.5s46.833 -13.5 77.5 -13.5c42.667 0 79.834 10.333 111.501 31s57.834 48.167 78.501 82.5s36 73.5 46 117.5s15 89.333 15 136c0 26.667 -2.83301 51.667 -8.5 75s-15.167 43.666 -28.5 60.999s-30.833 30.833 -52.5 40.5s-48.167 14.5 -79.5 14.5z
M531.998 859.003c12.667 0 23.5 -4.66699 32.5 -14s13.5 -20.333 13.5 -33c0 -7.33301 -1.83301 -14.666 -5.5 -21.999s-8.5 -13.833 -14.5 -19.5s-12.667 -10.167 -20 -13.5s-14.333 -5 -21 -5c-13.333 0 -24.5 4.66699 -33.5 14s-13.5 20.333 -13.5 33
c0 15.333 6.5 29.166 19.5 41.499s27.167 18.5 42.5 18.5zM356.998 859.003c12 0 22.667 -4.66602 32 -13.999s14 -20.333 14 -33c0 -8 -2 -15.5 -6 -22.5s-9 -13.333 -15 -19s-12.667 -10.167 -20 -13.5s-14.333 -5 -21 -5c-12.667 0 -23.5 4.66699 -32.5 14
s-13.167 20.333 -12.5 33c0 7.33301 1.66699 14.666 5 21.999s7.83301 13.833 13.5 19.5s12.167 10.167 19.5 13.5s15 5 23 5z" />
    <glyph glyph-name="multiply" unicode="&#xd7;" horiz-adv-x="572" 
d="M117 505c-3.33301 4.66699 -4.66797 8.33398 -4.00098 11.001s3.33398 6 8.00098 10l41 38c4 3.33301 7.66699 5.5 11 6.5s6.66602 -0.833008 9.99902 -5.5l133 -161l181 163c5.33301 4.66699 9.5 6.66699 12.5 6s6.16699 -3 9.5 -7l33 -40
c3.33301 -4 5.16602 -7.5 5.49902 -10.5s-2.16699 -6.83301 -7.5 -11.5l-181 -163l131 -158c6 -8 4.33301 -15.333 -5 -22l-39 -37c-5.33301 -4 -9.5 -6.33301 -12.5 -7s-6.16699 1.33301 -9.5 6l-131 158l-182 -163c-5.33301 -4.66699 -9.16602 -6.83398 -11.499 -6.50098
s-5.16602 2.83301 -8.49902 7.5l-35 40c-3.33301 4 -5 7.5 -5 10.5s2.66699 6.83301 8 11.5l181 164l-133 160v0z" />
    <glyph glyph-name="Oslash" unicode="&#xd8;" horiz-adv-x="684" 
d="M412 711c77.333 0 137.33 -21.999 179.997 -65.999l57 66c7.33301 7.33301 14 8 20 2l16 -13c2.66699 -3.33301 3.83398 -6 3.50098 -8s-2.16602 -5.33301 -5.49902 -10l-63 -71c27.333 -44.667 41 -101.667 41 -171c0 -61.333 -7.5 -119.333 -22.5 -174
s-37.167 -102.5 -66.5 -143.5s-65.333 -73.5 -108 -97.5s-91.667 -36 -147 -36c-79.333 0 -140.333 22.333 -183 67l-50 -57c-3.33301 -4.66699 -6.16602 -6.83398 -8.49902 -6.50098s-5.16602 1.83301 -8.49902 4.5l-16 12c-6 4 -5.33301 10 2 18l55 63
c-25.333 43.333 -38 97.333 -38 162c0 72.667 9 137.5 27 194.5s42.5 105 73.5 144s67.167 68.833 108.5 89.5s85.666 31 132.999 31zM575.997 438.001c0 19.333 -1.33398 37.499 -4.00098 54.499s-7.33398 32.833 -14.001 47.5l-364 -415
c13.333 -17.333 30.5 -30.666 51.5 -39.999s47.5 -14 79.5 -14c42.667 0 79.834 10.333 111.501 31s57.834 48.167 78.501 82.5s36 73.5 46 117.5s15 89.333 15 136zM406.996 629c-42.667 0 -79.668 -10.5 -111.001 -31.5s-57.166 -48.667 -77.499 -83
s-35.333 -73.5 -45 -117.5s-14.5 -89 -14.5 -135c0 -18 1 -35.333 3 -52s5.66699 -31.667 11 -45l361 413c-13.333 16 -30.333 28.5 -51 37.5s-46 13.5 -76 13.5z" />
    <glyph glyph-name="Ugrave" unicode="&#xd9;" horiz-adv-x="660" 
d="M142 681c1.33301 8 3.83203 13.1729 7.49902 15.5059s8.83398 3.5 15.501 3.5h51c7.33301 0 12.333 -1.16699 15 -3.5s3.66699 -7.5 3 -15.5l-53 -374c-6 -40.667 -8.83301 -75.834 -8.5 -105.501s6.33301 -54.334 18 -74.001s30.334 -34.167 56.001 -43.5
s61.167 -14 106.5 -14c11.333 0 29 0.666992 53 2s50.333 4.66602 79 9.99902l85 599c1.33301 8 3.66602 13.167 6.99902 15.5s8.33301 3.5 15 3.5h52c7.33301 0 11.833 -1.16699 13.5 -3.5s1.83398 -7.5 0.500977 -15.5l-83 -593c-3.33301 -23.333 -11.333 -42.5 -24 -57.5
s-33.334 -25.167 -62.001 -30.5c-24.667 -4.66699 -51 -7.83398 -79 -9.50098s-52 -2.5 -72 -2.5c-56 0 -101.833 5.16699 -137.5 15.5s-63 27.666 -82 51.999s-30.5 56.666 -34.5 96.999s-1.66699 90.5 7 150.5zM465.999 749.006
c-4.66699 -6.66699 -11.334 -7.33203 -20.001 -1.99902l-157 90c-7.33301 4 -7.66602 9.66699 -0.999023 17l40 54c4 4 7.66699 5.66699 11 5s6 -2.33398 8 -5.00098l133 -115c4.66699 -4 7 -7.16699 7 -9.5s-1.33301 -5.5 -4 -9.5z" />
    <glyph glyph-name="Uacute" unicode="&#xda;" horiz-adv-x="660" 
d="M142 681c1.33301 8 3.83203 13.1729 7.49902 15.5059s8.83398 3.5 15.501 3.5h51c7.33301 0 12.333 -1.16699 15 -3.5s3.66699 -7.5 3 -15.5l-53 -374c-6 -40.667 -8.83301 -75.834 -8.5 -105.501s6.33301 -54.334 18 -74.001s30.334 -34.167 56.001 -43.5
s61.167 -14 106.5 -14c11.333 0 29 0.666992 53 2s50.333 4.66602 79 9.99902l85 599c1.33301 8 3.66602 13.167 6.99902 15.5s8.33301 3.5 15 3.5h52c7.33301 0 11.833 -1.16699 13.5 -3.5s1.83398 -7.5 0.500977 -15.5l-83 -593c-3.33301 -23.333 -11.333 -42.5 -24 -57.5
s-33.334 -25.167 -62.001 -30.5c-24.667 -4.66699 -51 -7.83398 -79 -9.50098s-52 -2.5 -72 -2.5c-56 0 -101.833 5.16699 -137.5 15.5s-63 27.666 -82 51.999s-30.5 56.666 -34.5 96.999s-1.66699 90.5 7 150.5zM359.999 776.006c-2 4 -3.00195 7.33301 -3.00195 10
s2.66699 5.66699 8 9l152 101c3.33301 2 6.66602 3.5 9.99902 4.5s6.33301 -0.833008 9 -5.5l32 -57c4.66699 -7.33301 3.33398 -12.666 -3.99902 -15.999l-175 -78c-5.33301 -2 -9.16602 -2.33301 -11.499 -1s-4.16602 3.66602 -5.49902 6.99902z" />
    <glyph glyph-name="Ucircumflex" unicode="&#xdb;" horiz-adv-x="660" 
d="M142 681c1.33301 8 3.83203 13.1729 7.49902 15.5059s8.83398 3.5 15.501 3.5h51c7.33301 0 12.333 -1.16699 15 -3.5s3.66699 -7.5 3 -15.5l-53 -374c-6 -40.667 -8.83301 -75.834 -8.5 -105.501s6.33301 -54.334 18 -74.001s30.334 -34.167 56.001 -43.5
s61.167 -14 106.5 -14c11.333 0 29 0.666992 53 2s50.333 4.66602 79 9.99902l85 599c1.33301 8 3.66602 13.167 6.99902 15.5s8.33301 3.5 15 3.5h52c7.33301 0 11.833 -1.16699 13.5 -3.5s1.83398 -7.5 0.500977 -15.5l-83 -593c-3.33301 -23.333 -11.333 -42.5 -24 -57.5
s-33.334 -25.167 -62.001 -30.5c-24.667 -4.66699 -51 -7.83398 -79 -9.50098s-52 -2.5 -72 -2.5c-56 0 -101.833 5.16699 -137.5 15.5s-63 27.666 -82 51.999s-30.5 56.666 -34.5 96.999s-1.66699 90.5 7 150.5zM555.999 745.006
c-3.33301 -3.33301 -6.16895 -4.5 -8.50195 -3.5s-6.16602 2.5 -11.499 4.5l-116 66l-134 -67c-7.33301 -4 -12.666 -3 -15.999 3l-14 18c-4 5.33301 -3.33301 10.333 2 15l134 100c16 11.333 29.667 17 41 17c5.33301 0 11 -0.833008 17 -2.5s13 -6.5 21 -14.5l102 -100
c6 -6 5.66699 -12.333 -1 -19z" />
    <glyph glyph-name="Udieresis" unicode="&#xdc;" horiz-adv-x="660" 
d="M142 681c1.33301 8 3.83203 13.1729 7.49902 15.5059s8.83398 3.5 15.501 3.5h51c7.33301 0 12.333 -1.16699 15 -3.5s3.66699 -7.5 3 -15.5l-53 -374c-6 -40.667 -8.83301 -75.834 -8.5 -105.501s6.33301 -54.334 18 -74.001s30.334 -34.167 56.001 -43.5
s61.167 -14 106.5 -14c11.333 0 29 0.666992 53 2s50.333 4.66602 79 9.99902l85 599c1.33301 8 3.66602 13.167 6.99902 15.5s8.33301 3.5 15 3.5h52c7.33301 0 11.833 -1.16699 13.5 -3.5s1.83398 -7.5 0.500977 -15.5l-83 -593c-3.33301 -23.333 -11.333 -42.5 -24 -57.5
s-33.334 -25.167 -62.001 -30.5c-24.667 -4.66699 -51 -7.83398 -79 -9.50098s-52 -2.5 -72 -2.5c-56 0 -101.833 5.16699 -137.5 15.5s-63 27.666 -82 51.999s-30.5 56.666 -34.5 96.999s-1.66699 90.5 7 150.5zM511.999 847.006c12.667 0 23.5 -4.66699 32.5 -14
s13.5 -20.333 13.5 -33c0 -7.33301 -1.83301 -14.666 -5.5 -21.999s-8.5 -13.833 -14.5 -19.5s-12.667 -10.167 -20 -13.5s-14.333 -5 -21 -5c-13.333 0 -24.5 4.66699 -33.5 14s-13.5 20.333 -13.5 33c0 15.333 6.5 29.166 19.5 41.499s27.167 18.5 42.5 18.5z
M336.999 847.006c12 0 22.667 -4.66602 32 -13.999s14 -20.333 14 -33c0 -8 -2 -15.5 -6 -22.5s-9 -13.333 -15 -19s-12.667 -10.167 -20 -13.5s-14.333 -5 -21 -5c-12.667 0 -23.5 4.66699 -32.5 14s-13.167 20.333 -12.5 33c0 7.33301 1.66699 14.666 5 21.999
s7.83301 13.833 13.5 19.5s12.167 10.167 19.5 13.5s15 5 23 5z" />
    <glyph glyph-name="Yacute" unicode="&#xdd;" horiz-adv-x="547" 
d="M333 280l-37.002 -265c-1.33301 -6.66699 -3 -10.834 -5 -12.501s-6 -2.5 -12 -2.5h-56c-5.33301 0 -9.16602 0.833008 -11.499 2.5s-3.16602 5.83398 -2.49902 12.501l37 265l-163 410c-1.33301 2 -1.16602 4.33301 0.500977 7s4.5 4 8.5 4h67
c5.33301 0 9 -0.833008 11 -2.5s4 -5.16699 6 -10.5l65 -172l54 -154h4l101 160l109 166c3.33301 5.33301 6.33301 8.83301 9 10.5s6.66699 2.5 12 2.5h73c3.33301 0 5.16602 -1.33301 5.49902 -4s-0.166992 -5 -1.5 -7zM296.998 776c-2 4 -3.00195 7.33301 -3.00195 10
s2.66699 5.66699 8 9l152 101c3.33301 2 6.66602 3.5 9.99902 4.5s6.33301 -0.833008 9 -5.5l32 -57c4.66699 -7.33301 3.33398 -12.666 -3.99902 -15.999l-175 -78c-5.33301 -2 -9.16602 -2.33301 -11.499 -1s-4.16602 3.66602 -5.49902 6.99902z" />
    <glyph glyph-name="Thorn" unicode="&#xde;" horiz-adv-x="587" 
d="M395 571c28.667 0 54.6709 -4.5 78.0039 -13.5s43 -21.833 59 -38.5s28.333 -36.667 37 -60s13 -49 13 -77c0 -24 -3.66699 -49.667 -11 -77s-20.333 -52.5 -39 -75.5s-43.834 -42.167 -75.501 -57.5s-71.834 -23 -120.501 -23h-180l-19 -130
c-0.666992 -8 -2.5 -13.167 -5.5 -15.5s-8.5 -3.5 -16.5 -3.5h-47c-6.66699 0 -11.667 1.16699 -15 3.5s-4.33301 7.5 -3 15.5l94 666c1.33301 6.66699 3.16602 10.834 5.49902 12.501s6.16602 2.5 11.499 2.5h59c6 0 10.167 -0.833008 12.5 -2.5
s2.83301 -5.83398 1.5 -12.501l-16 -114h177zM205.004 488l-37 -257.001h166c50.667 0 89.167 13.333 115.5 40s39.5 62 39.5 106c0 12.667 -1.83301 25.667 -5.5 39s-10 25.333 -19 36s-21.333 19.334 -37 26.001s-35.5 10 -59.5 10h-163z" />
    <glyph glyph-name="germandbls" unicode="&#xdf;" horiz-adv-x="538" 
d="M303 360c-10 0 -18.335 1.34277 -25.002 4.00977s-8.66699 10.334 -6 23.001l3 20c2 9.33301 5.16699 15.666 9.5 18.999s11.166 5 20.499 5c19.333 0 36.333 3.66699 51 11s27 16.666 37 27.999s17.5 24.333 22.5 39s7.5 29.667 7.5 45c0 12 -1.66699 23.667 -5 35
s-8.83301 21.5 -16.5 30.5s-17.5 16.333 -29.5 22s-27 8.5 -45 8.5c-22.667 0 -41.834 -4.33301 -57.501 -13s-28.667 -19.834 -39 -33.501s-18.333 -28.834 -24 -45.501s-9.5 -32.667 -11.5 -48l-70 -495c-0.666992 -6.66699 -2.16699 -10.834 -4.5 -12.501
s-6.16602 -2.5 -11.499 -2.5h-54c-5.33301 0 -9.16602 0.833008 -11.499 2.5s-2.83301 5.83398 -1.5 12.501l66 481c9.33301 71.333 33 126.666 71 165.999s87.333 59 148 59c33.333 0 61.5 -4.5 84.5 -13.5s41.5 -21 55.5 -36s24.167 -32.167 30.5 -51.5
s9.5 -39.333 9.5 -60c0 -12.667 -1.66699 -26.334 -5 -41.001s-9 -29 -17 -43s-18.5 -27.167 -31.5 -39.5s-28.833 -22.5 -47.5 -30.5l-1 -3c32 -12.667 55.833 -33.834 71.5 -63.501s23.5 -63.834 23.5 -102.501c0 -34.667 -5.16699 -68 -15.5 -100s-26.833 -60 -49.5 -84
s-51.5 -42.833 -86.5 -56.5s-76.833 -19.834 -125.5 -18.501c-4.66699 0.666992 -7.5 1.33398 -8.5 2.00098s-1.5 3.66699 -1.5 9l6 44c0.666992 8 5 12 13 12c34 1.33301 62.833 7.16602 86.5 17.499s42.834 24.166 57.501 41.499s25.334 37.166 32.001 59.499
s10 46.166 10 71.499c0 16.667 -1.83301 32.5 -5.5 47.5s-10 28.333 -19 40s-20.833 20.834 -35.5 27.501s-33 10 -55 10z" />
    <glyph glyph-name="agrave" unicode="&#xe0;" horiz-adv-x="543" 
d="M325 536c22 0 48.5 -1.33105 79.5 -3.99805s64.167 -8.66699 99.5 -18c10.667 -3.33301 16.667 -7.5 18 -12.5s1.33301 -11.167 0 -18.5l-32 -224c-10 -71.333 -19.667 -144.333 -29 -219c-0.666992 -8.66699 -6 -15.334 -16 -20.001c-14.667 -6 -30.667 -11 -48 -15
s-34.833 -7.16699 -52.5 -9.5s-35.167 -4 -52.5 -5s-33 -1.5 -47 -1.5c-36 0 -66.5 5 -91.5 15s-45.167 23.667 -60.5 41s-26.333 37.666 -33 60.999s-10 48.333 -10 75c0 50 5.16699 96.5 15.5 139.5s26.5 80.5 48.5 112.5s50.333 57.167 85 75.5s76.667 27.5 126 27.5z
M270 64.002c7.33301 0 15.8311 0.333008 25.498 1s19.5 1.66699 29.5 3s19.833 3 29.5 5s18.5 4.66699 26.5 8c8 64 16.167 125.667 24.5 185l26.5 181c-16.667 5.33301 -35.167 9 -55.5 11s-38.166 3 -53.499 3c-24 0 -47.167 -4.5 -69.5 -13.5s-42.166 -24 -59.499 -45
s-31.333 -48.833 -42 -83.5s-16 -78 -16 -130c0 -40.667 10.167 -71.667 30.5 -93s54.833 -32 103.5 -32zM356.998 587.002c-4 -2 -7.49902 -2.66699 -10.499 -2s-6.83301 3.33398 -11.5 8.00098l-128 145c-5.33301 6 -4 11 4 15l63 30
c5.33301 2 9.16602 2.16699 11.499 0.5s4.83301 -4.16699 7.5 -7.5l93 -155c2.66699 -5.33301 3.66699 -8.83301 3 -10.5s-2.66699 -3.83398 -6 -6.50098z" />
    <glyph glyph-name="aacute" unicode="&#xe1;" horiz-adv-x="543" 
d="M325 536c22 0 48.5 -1.33105 79.5 -3.99805s64.167 -8.66699 99.5 -18c10.667 -3.33301 16.667 -7.5 18 -12.5s1.33301 -11.167 0 -18.5l-32 -224c-10 -71.333 -19.667 -144.333 -29 -219c-0.666992 -8.66699 -6 -15.334 -16 -20.001c-14.667 -6 -30.667 -11 -48 -15
s-34.833 -7.16699 -52.5 -9.5s-35.167 -4 -52.5 -5s-33 -1.5 -47 -1.5c-36 0 -66.5 5 -91.5 15s-45.167 23.667 -60.5 41s-26.333 37.666 -33 60.999s-10 48.333 -10 75c0 50 5.16699 96.5 15.5 139.5s26.5 80.5 48.5 112.5s50.333 57.167 85 75.5s76.667 27.5 126 27.5z
M270 64.002c7.33301 0 15.8311 0.333008 25.498 1s19.5 1.66699 29.5 3s19.833 3 29.5 5s18.5 4.66699 26.5 8c8 64 16.167 125.667 24.5 185l26.5 181c-16.667 5.33301 -35.167 9 -55.5 11s-38.166 3 -53.499 3c-24 0 -47.167 -4.5 -69.5 -13.5s-42.166 -24 -59.499 -45
s-31.333 -48.833 -42 -83.5s-16 -78 -16 -130c0 -40.667 10.167 -71.667 30.5 -93s54.833 -32 103.5 -32zM285.998 595.002c-8 2.66699 -9.33105 8.33496 -3.99805 17.002l86 154c2 3.33301 4.5 6.16602 7.5 8.49902s7.16699 2.83301 12.5 1.5l64 -18
c5.33301 -1.33301 8.16602 -3.5 8.49902 -6.5s-0.833984 -6.16699 -3.50098 -9.5l-125 -150c-4 -5.33301 -7.5 -8.33301 -10.5 -9s-6.5 -0.333984 -10.5 0.999023z" />
    <glyph glyph-name="acircumflex" unicode="&#xe2;" horiz-adv-x="543" 
d="M325 536c22 0 48.5 -1.33105 79.5 -3.99805s64.167 -8.66699 99.5 -18c10.667 -3.33301 16.667 -7.5 18 -12.5s1.33301 -11.167 0 -18.5l-32 -224c-10 -71.333 -19.667 -144.333 -29 -219c-0.666992 -8.66699 -6 -15.334 -16 -20.001c-14.667 -6 -30.667 -11 -48 -15
s-34.833 -7.16699 -52.5 -9.5s-35.167 -4 -52.5 -5s-33 -1.5 -47 -1.5c-36 0 -66.5 5 -91.5 15s-45.167 23.667 -60.5 41s-26.333 37.666 -33 60.999s-10 48.333 -10 75c0 50 5.16699 96.5 15.5 139.5s26.5 80.5 48.5 112.5s50.333 57.167 85 75.5s76.667 27.5 126 27.5z
M270 64.002c7.33301 0 15.8311 0.333008 25.498 1s19.5 1.66699 29.5 3s19.833 3 29.5 5s18.5 4.66699 26.5 8c8 64 16.167 125.667 24.5 185l26.5 181c-16.667 5.33301 -35.167 9 -55.5 11s-38.166 3 -53.499 3c-24 0 -47.167 -4.5 -69.5 -13.5s-42.166 -24 -59.499 -45
s-31.333 -48.833 -42 -83.5s-16 -78 -16 -130c0 -40.667 10.167 -71.667 30.5 -93s54.833 -32 103.5 -32zM479.998 580.002c-6 -4 -12.333 -3.33496 -19 1.99805l-112 94l-139 -96c-6.66699 -5.33301 -12.667 -4.66602 -18 2.00098l-15 19c-4 4 -3.66699 8.66699 1 14
l143 130c14 12 27.333 18 40 18c8 0 14.833 -1.16699 20.5 -3.5s11.5 -7.16602 17.5 -14.499l101 -128c4 -5.33301 5.66699 -9.5 5 -12.5s-3 -6.16699 -7 -9.5z" />
    <glyph glyph-name="atilde" unicode="&#xe3;" horiz-adv-x="543" 
d="M325 536c22 0 48.5 -1.33105 79.5 -3.99805s64.167 -8.66699 99.5 -18c10.667 -3.33301 16.667 -7.5 18 -12.5s1.33301 -11.167 0 -18.5l-32 -224c-10 -71.333 -19.667 -144.333 -29 -219c-0.666992 -8.66699 -6 -15.334 -16 -20.001c-14.667 -6 -30.667 -11 -48 -15
s-34.833 -7.16699 -52.5 -9.5s-35.167 -4 -52.5 -5s-33 -1.5 -47 -1.5c-36 0 -66.5 5 -91.5 15s-45.167 23.667 -60.5 41s-26.333 37.666 -33 60.999s-10 48.333 -10 75c0 50 5.16699 96.5 15.5 139.5s26.5 80.5 48.5 112.5s50.333 57.167 85 75.5s76.667 27.5 126 27.5z
M270 64.002c7.33301 0 15.8311 0.333008 25.498 1s19.5 1.66699 29.5 3s19.833 3 29.5 5s18.5 4.66699 26.5 8c8 64 16.167 125.667 24.5 185l26.5 181c-16.667 5.33301 -35.167 9 -55.5 11s-38.166 3 -53.499 3c-24 0 -47.167 -4.5 -69.5 -13.5s-42.166 -24 -59.499 -45
s-31.333 -48.833 -42 -83.5s-16 -78 -16 -130c0 -40.667 10.167 -71.667 30.5 -93s54.833 -32 103.5 -32zM404.998 622.002c-11.333 0 -21.9961 1.82617 -31.9961 5.49316s-19.833 7.66699 -29.5 12s-19.334 8.33301 -29.001 12s-19.834 5.5 -30.501 5.5
c-17.333 0 -34.666 -9.66699 -51.999 -29c-2.66699 -3.33301 -5 -5.66602 -7 -6.99902s-5 -0.666016 -9 2.00098l-34 17c-4 2.66699 -6.5 4.83398 -7.5 6.50098s0.166992 4.83398 3.5 9.50098c13.333 20.667 29.166 37.334 47.499 50.001s39.166 19 62.499 19
c11.333 0 21.833 -1.83301 31.5 -5.5s19 -7.66699 28 -12l26 -12c8.33301 -3.66699 17.166 -5.5 26.499 -5.5c20.667 0 37.667 9.66699 51 29c3.33301 4.66699 5.83301 7.33398 7.5 8.00098s4.16699 0.333984 7.5 -0.999023l39 -14c8 -2.66699 10.667 -7.66699 8 -15
c-24.667 -50 -60.667 -75 -108 -75z" />
    <glyph glyph-name="adieresis" unicode="&#xe4;" horiz-adv-x="543" 
d="M325 536c22 0 48.5 -1.33105 79.5 -3.99805s64.167 -8.66699 99.5 -18c10.667 -3.33301 16.667 -7.5 18 -12.5s1.33301 -11.167 0 -18.5l-32 -224c-10 -71.333 -19.667 -144.333 -29 -219c-0.666992 -8.66699 -6 -15.334 -16 -20.001c-14.667 -6 -30.667 -11 -48 -15
s-34.833 -7.16699 -52.5 -9.5s-35.167 -4 -52.5 -5s-33 -1.5 -47 -1.5c-36 0 -66.5 5 -91.5 15s-45.167 23.667 -60.5 41s-26.333 37.666 -33 60.999s-10 48.333 -10 75c0 50 5.16699 96.5 15.5 139.5s26.5 80.5 48.5 112.5s50.333 57.167 85 75.5s76.667 27.5 126 27.5z
M270 64.002c7.33301 0 15.8311 0.333008 25.498 1s19.5 1.66699 29.5 3s19.833 3 29.5 5s18.5 4.66699 26.5 8c8 64 16.167 125.667 24.5 185l26.5 181c-16.667 5.33301 -35.167 9 -55.5 11s-38.166 3 -53.499 3c-24 0 -47.167 -4.5 -69.5 -13.5s-42.166 -24 -59.499 -45
s-31.333 -48.833 -42 -83.5s-16 -78 -16 -130c0 -40.667 10.167 -71.667 30.5 -93s54.833 -32 103.5 -32zM445.998 724.002c12.667 0 23.5 -4.66699 32.5 -14s13.5 -20.333 13.5 -33c0 -7.33301 -1.83301 -14.666 -5.5 -21.999s-8.5 -13.833 -14.5 -19.5
s-12.667 -10.167 -20 -13.5s-14.333 -5 -21 -5c-13.333 0 -24.5 4.66699 -33.5 14s-13.5 20.333 -13.5 33c0 15.333 6.5 29.166 19.5 41.499s27.167 18.5 42.5 18.5zM270.998 724.002c12 0 22.667 -4.66602 32 -13.999s14 -20.333 14 -33c0 -8 -2 -15.5 -6 -22.5
s-9 -13.333 -15 -19s-12.667 -10.167 -20 -13.5s-14.333 -5 -21 -5c-12.667 0 -23.5 4.66699 -32.5 14s-13.167 20.333 -12.5 33c0 7.33301 1.66699 14.666 5 21.999s7.83301 13.833 13.5 19.5s12.167 10.167 19.5 13.5s15 5 23 5z" />
    <glyph glyph-name="aring" unicode="&#xe5;" horiz-adv-x="543" 
d="M325 536c22 0 48.5 -1.33105 79.5 -3.99805s64.167 -8.66699 99.5 -18c10.667 -3.33301 16.667 -7.5 18 -12.5s1.33301 -11.167 0 -18.5l-32 -224c-10 -71.333 -19.667 -144.333 -29 -219c-0.666992 -8.66699 -6 -15.334 -16 -20.001c-14.667 -6 -30.667 -11 -48 -15
s-34.833 -7.16699 -52.5 -9.5s-35.167 -4 -52.5 -5s-33 -1.5 -47 -1.5c-36 0 -66.5 5 -91.5 15s-45.167 23.667 -60.5 41s-26.333 37.666 -33 60.999s-10 48.333 -10 75c0 50 5.16699 96.5 15.5 139.5s26.5 80.5 48.5 112.5s50.333 57.167 85 75.5s76.667 27.5 126 27.5z
M270 64.002c7.33301 0 15.8311 0.333008 25.498 1s19.5 1.66699 29.5 3s19.833 3 29.5 5s18.5 4.66699 26.5 8c8 64 16.167 125.667 24.5 185l26.5 181c-16.667 5.33301 -35.167 9 -55.5 11s-38.166 3 -53.499 3c-24 0 -47.167 -4.5 -69.5 -13.5s-42.166 -24 -59.499 -45
s-31.333 -48.833 -42 -83.5s-16 -78 -16 -130c0 -40.667 10.167 -71.667 30.5 -93s54.833 -32 103.5 -32zM377.998 771.002c24 0 43.667 -7.33203 59 -21.999s23 -34 23 -58c0 -15.333 -3 -29.333 -9 -42s-14 -23.834 -24 -33.501s-21.5 -17.167 -34.5 -22.5
s-26.5 -8 -40.5 -8c-24 0 -43.667 7 -59 21s-23 32.667 -23 56c0 15.333 2.83301 29.666 8.5 42.999s13.5 24.833 23.5 34.5s21.5 17.334 34.5 23.001s26.833 8.5 41.5 8.5zM371.998 730.003c-16.667 0 -30.667 -6 -42 -18s-17 -26.667 -17 -44c0 -12.667 4 -23 12 -31
s18.667 -12 32 -12c15.333 0 29 5.83301 41 17.5s18 26.167 18 43.5c0 13.333 -4 24 -12 32s-18.667 12 -32 12z" />
    <glyph glyph-name="ae" unicode="&#xe6;" horiz-adv-x="809" 
d="M555 -11c-63.333 0 -110.001 16.001 -140.001 48.001c-34 -17.333 -70.167 -29.666 -108.5 -36.999s-72.5 -11 -102.5 -11c-36.667 0 -66 4.16699 -88 12.5s-38.833 19 -50.5 32s-19.334 27.5 -23.001 43.5s-5.5 31.333 -5.5 46c0 27.333 4.33301 53.166 13 77.499
s22.5 45.5 41.5 63.5s44 32.333 75 43s68.833 16 113.5 16c15.333 0 30.833 -0.666992 46.5 -2s32.834 -3.66602 51.501 -6.99902c3.33301 12 6.33301 23.5 9 34.5s4 20.5 4 28.5c0 29.333 -9 50.5 -27 63.5s-44.667 19.5 -80 19.5c-22 0 -45.667 -2 -71 -6
s-46.666 -8.66699 -63.999 -14c-5.33301 -2 -9.33301 -2.66699 -12 -2s-4.66699 3.66699 -6 9l-11 43c-2 7.33301 1.66699 13 11 17c26.667 10.667 55.667 18.167 87 22.5s60.333 6.5 87 6.5c39.333 0 71.666 -6.33301 96.999 -19s43.333 -30.667 54 -54
c22.667 24.667 48.5 43 77.5 55s60.5 18 94.5 18c32.667 0 60 -4.5 82 -13.5s39.5 -20.167 52.5 -33.5s22.167 -28 27.5 -44s8 -31.333 8 -46c0 -60.667 -21.333 -104.167 -64 -130.5s-106.667 -39.5 -192 -39.5c-28 0 -58 2 -90 6c-2 -15.333 -3 -29.333 -3 -42
c0 -46 9.66699 -78.833 29 -98.5s50.666 -29.5 93.999 -29.5c21.333 0 42 2.83301 62 8.5s37.667 12.167 53 19.5c7.33301 3.33301 13 1.66602 17 -5.00098l21 -42c4 -8.66699 1 -15.334 -9 -20.001c-25.333 -14.667 -52.166 -24.5 -80.499 -29.5s-55.166 -7.5 -80.499 -7.5
zM215.999 62.001c6 0 15.333 0.500977 28 1.50098s26.667 2.66699 42 5s31.166 6 47.499 11s31.833 11.5 46.5 19.5c0 1.33301 -0.333008 2.33301 -1 3c-5.33301 13.333 -9 26.833 -11 40.5s-3 29.5 -3 47.5c0 17.333 1 36.666 3 57.999c-16 2 -31.667 3.66699 -47 5
s-29.666 2 -42.999 2c-46.667 0 -84.167 -8.83301 -112.5 -26.5s-42.5 -49.167 -42.5 -94.5c0 -24 7.5 -42 22.5 -54s38.5 -18 70.5 -18zM621.999 463.002c-44 0 -79.6631 -13.667 -106.996 -41s-45.333 -68 -54 -122c13.333 -1.33301 27.166 -2.33301 41.499 -3
s27.166 -1 38.499 -1c33.333 0 61.333 1.83301 84 5.5s41 9.16699 55 16.5s24.167 16.833 30.5 28.5s9.5 25.5 9.5 41.5c0 9.33301 -1.5 18.5 -4.5 27.5s-8.33301 17 -16 24s-17.834 12.667 -30.501 17s-28.334 6.5 -47.001 6.5z" />
    <glyph glyph-name="ccedilla" unicode="&#xe7;" horiz-adv-x="464" 
d="M207 -165c17.333 0 30.6611 3.16797 39.9941 9.50098s14 15.5 14 27.5c0 11.333 -5 19.5 -15 24.5s-22.333 7.5 -37 7.5h-16.5c-3.66699 0 -6.5 1.33301 -8.5 4c-3.33301 3.33301 -4.66602 6.83301 -3.99902 10.5s2.33398 7.83398 5.00098 12.501l27 60
c-51.333 6 -90.833 26.167 -118.5 60.5s-41.5 83.166 -41.5 146.499c0 50 5.66699 95.667 17 137s27.666 77 48.999 107s47.166 53.167 77.499 69.5s64.833 24.5 103.5 24.5c26 0 53.167 -2.66699 81.5 -8s52.5 -14.333 72.5 -27c6.66699 -4 7.66699 -11 3 -21l-18 -41
c-4 -9.33301 -10.667 -11.333 -20 -6c-14.667 7.33301 -32.334 13.333 -53.001 18s-41.667 7 -63 7c-30 0 -55.5 -7.5 -76.5 -22.5s-38.167 -34.667 -51.5 -59s-23 -51.833 -29 -82.5s-9 -61.667 -9 -93c0 -20 2.16699 -38.333 6.5 -55s11.333 -31 21 -43
s22.334 -21.333 38.001 -28s35.167 -10 58.5 -10c22 0 44.333 2.83301 67 8.5s41.334 11.5 56.001 17.5c6.66699 3.33301 10.834 4.16602 12.501 2.49902s3.5 -4.16699 5.5 -7.5l19 -42c4 -8.66699 1.33301 -15.667 -8 -21c-25.333 -13.333 -51.666 -22.166 -78.999 -26.499
s-52.666 -6.83301 -75.999 -7.5l-20 -44c32.667 -2 55.334 -10.5 68.001 -25.5s19 -31.167 19 -48.5c0 -10 -2.5 -20 -7.5 -30s-12.5 -19 -22.5 -27s-22 -14.5 -36 -19.5s-30 -7.5 -48 -7.5c-16 0 -31.667 1.66699 -47 5s-27.666 7.66602 -36.999 12.999
c-3.33301 1.33301 -5.33301 3 -6 5s0.333008 5.33301 3 10l9 20c3.33301 5.33301 6 8 8 8s5 -0.666992 9 -2c9.33301 -3.33301 19 -6 29 -8s19.667 -3 29 -3z" />
    <glyph glyph-name="egrave" unicode="&#xe8;" horiz-adv-x="491" 
d="M304 463c-44 0 -79.4971 -13.667 -106.497 -41s-44.833 -68.333 -53.5 -123c13.333 -1.33301 27.166 -2.33301 41.499 -3s27.166 -1 38.499 -1c34 0 62.5 2 85.5 6s41.5 9.83301 55.5 17.5s23.833 17.5 29.5 29.5s8.5 26 8.5 42c0 18.667 -7.33301 35.5 -22 50.5
s-40.334 22.5 -77.001 22.5zM238.003 -11c-63.333 0 -110.501 15.999 -141.501 47.999s-46.5 83.333 -46.5 154c0 60 6.66699 111.667 20 155s31.833 79 55.5 107s51.334 48.833 83.001 62.5s65.5 20.5 101.5 20.5c33.333 0 60.833 -4.5 82.5 -13.5s39 -20.167 52 -33.5
s22.167 -28 27.5 -44s8 -31.333 8 -46c0 -59.333 -20.667 -102.5 -62 -129.5s-105.333 -40.5 -192 -40.5c-14 0 -28.667 0.333008 -44 1s-31 2.33398 -47 5.00098c-2 -15.333 -3 -29.333 -3 -42c-0.666992 -44 8.5 -76.333 27.5 -97s50.5 -31 94.5 -31
c21.333 0 42 2.83301 62 8.5s37.667 12.167 53 19.5c5.33301 2 9 2.66699 11 2s4 -3 6 -7l21 -42c3.33301 -8 0.333008 -14.667 -9 -20c-25.333 -14.667 -52 -24.5 -80 -29.5s-54.667 -7.5 -80 -7.5zM345.002 586.999c-4 -2 -7.49902 -2.66699 -10.499 -2
s-6.83301 3.33398 -11.5 8.00098l-128 145c-5.33301 6 -4 11 4 15l63 30c5.33301 2 9.16602 2.16699 11.499 0.5s4.83301 -4.16699 7.5 -7.5l93 -155c2.66699 -5.33301 3.66699 -8.83301 3 -10.5s-2.66699 -3.83398 -6 -6.50098z" />
    <glyph glyph-name="eacute" unicode="&#xe9;" horiz-adv-x="491" 
d="M304 463c-44 0 -79.4971 -13.667 -106.497 -41s-44.833 -68.333 -53.5 -123c13.333 -1.33301 27.166 -2.33301 41.499 -3s27.166 -1 38.499 -1c34 0 62.5 2 85.5 6s41.5 9.83301 55.5 17.5s23.833 17.5 29.5 29.5s8.5 26 8.5 42c0 18.667 -7.33301 35.5 -22 50.5
s-40.334 22.5 -77.001 22.5zM238.003 -11c-63.333 0 -110.501 15.999 -141.501 47.999s-46.5 83.333 -46.5 154c0 60 6.66699 111.667 20 155s31.833 79 55.5 107s51.334 48.833 83.001 62.5s65.5 20.5 101.5 20.5c33.333 0 60.833 -4.5 82.5 -13.5s39 -20.167 52 -33.5
s22.167 -28 27.5 -44s8 -31.333 8 -46c0 -59.333 -20.667 -102.5 -62 -129.5s-105.333 -40.5 -192 -40.5c-14 0 -28.667 0.333008 -44 1s-31 2.33398 -47 5.00098c-2 -15.333 -3 -29.333 -3 -42c-0.666992 -44 8.5 -76.333 27.5 -97s50.5 -31 94.5 -31
c21.333 0 42 2.83301 62 8.5s37.667 12.167 53 19.5c5.33301 2 9 2.66699 11 2s4 -3 6 -7l21 -42c3.33301 -8 0.333008 -14.667 -9 -20c-25.333 -14.667 -52 -24.5 -80 -29.5s-54.667 -7.5 -80 -7.5zM287.002 594.999c-8 2.66699 -9.33105 8.33496 -3.99805 17.002l86 154
c2 3.33301 4.5 6.16602 7.5 8.49902s7.16699 2.83301 12.5 1.5l64 -18c5.33301 -1.33301 8.16602 -3.5 8.49902 -6.5s-0.833984 -6.16699 -3.50098 -9.5l-125 -150c-4 -5.33301 -7.5 -8.33301 -10.5 -9s-6.5 -0.333984 -10.5 0.999023z" />
    <glyph glyph-name="ecircumflex" unicode="&#xea;" horiz-adv-x="491" 
d="M304 463c-44 0 -79.4971 -13.667 -106.497 -41s-44.833 -68.333 -53.5 -123c13.333 -1.33301 27.166 -2.33301 41.499 -3s27.166 -1 38.499 -1c34 0 62.5 2 85.5 6s41.5 9.83301 55.5 17.5s23.833 17.5 29.5 29.5s8.5 26 8.5 42c0 18.667 -7.33301 35.5 -22 50.5
s-40.334 22.5 -77.001 22.5zM238.003 -11c-63.333 0 -110.501 15.999 -141.501 47.999s-46.5 83.333 -46.5 154c0 60 6.66699 111.667 20 155s31.833 79 55.5 107s51.334 48.833 83.001 62.5s65.5 20.5 101.5 20.5c33.333 0 60.833 -4.5 82.5 -13.5s39 -20.167 52 -33.5
s22.167 -28 27.5 -44s8 -31.333 8 -46c0 -59.333 -20.667 -102.5 -62 -129.5s-105.333 -40.5 -192 -40.5c-14 0 -28.667 0.333008 -44 1s-31 2.33398 -47 5.00098c-2 -15.333 -3 -29.333 -3 -42c-0.666992 -44 8.5 -76.333 27.5 -97s50.5 -31 94.5 -31
c21.333 0 42 2.83301 62 8.5s37.667 12.167 53 19.5c5.33301 2 9 2.66699 11 2s4 -3 6 -7l21 -42c3.33301 -8 0.333008 -14.667 -9 -20c-25.333 -14.667 -52 -24.5 -80 -29.5s-54.667 -7.5 -80 -7.5zM472.002 579.999c-6 -4 -12.333 -3.33496 -19 1.99805l-112 94l-139 -96
c-6.66699 -5.33301 -12.667 -4.66602 -18 2.00098l-15 19c-4 4 -3.66699 8.66699 1 14l143 130c14 12 27.333 18 40 18c8 0 14.833 -1.16699 20.5 -3.5s11.5 -7.16602 17.5 -14.499l101 -128c4 -5.33301 5.66699 -9.5 5 -12.5s-3 -6.16699 -7 -9.5z" />
    <glyph glyph-name="edieresis" unicode="&#xeb;" horiz-adv-x="491" 
d="M304 463c-44 0 -79.4971 -13.667 -106.497 -41s-44.833 -68.333 -53.5 -123c13.333 -1.33301 27.166 -2.33301 41.499 -3s27.166 -1 38.499 -1c34 0 62.5 2 85.5 6s41.5 9.83301 55.5 17.5s23.833 17.5 29.5 29.5s8.5 26 8.5 42c0 18.667 -7.33301 35.5 -22 50.5
s-40.334 22.5 -77.001 22.5zM238.003 -11c-63.333 0 -110.501 15.999 -141.501 47.999s-46.5 83.333 -46.5 154c0 60 6.66699 111.667 20 155s31.833 79 55.5 107s51.334 48.833 83.001 62.5s65.5 20.5 101.5 20.5c33.333 0 60.833 -4.5 82.5 -13.5s39 -20.167 52 -33.5
s22.167 -28 27.5 -44s8 -31.333 8 -46c0 -59.333 -20.667 -102.5 -62 -129.5s-105.333 -40.5 -192 -40.5c-14 0 -28.667 0.333008 -44 1s-31 2.33398 -47 5.00098c-2 -15.333 -3 -29.333 -3 -42c-0.666992 -44 8.5 -76.333 27.5 -97s50.5 -31 94.5 -31
c21.333 0 42 2.83301 62 8.5s37.667 12.167 53 19.5c5.33301 2 9 2.66699 11 2s4 -3 6 -7l21 -42c3.33301 -8 0.333008 -14.667 -9 -20c-25.333 -14.667 -52 -24.5 -80 -29.5s-54.667 -7.5 -80 -7.5zM437.002 722.999c12.667 0 23.5 -4.66699 32.5 -14
s13.5 -20.333 13.5 -33c0 -7.33301 -1.83301 -14.666 -5.5 -21.999s-8.5 -13.833 -14.5 -19.5s-12.667 -10.167 -20 -13.5s-14.333 -5 -21 -5c-13.333 0 -24.5 4.66699 -33.5 14s-13.5 20.333 -13.5 33c0 15.333 6.5 29.166 19.5 41.499s27.167 18.5 42.5 18.5z
M262.002 722.999c12 0 22.667 -4.66602 32 -13.999s14 -20.333 14 -33c0 -8 -2 -15.5 -6 -22.5s-9 -13.333 -15 -19s-12.667 -10.167 -20 -13.5s-14.333 -5 -21 -5c-12.667 0 -23.5 4.66699 -32.5 14s-13.167 20.333 -12.5 33c0 7.33301 1.66699 14.666 5 21.999
s7.83301 13.833 13.5 19.5s12.167 10.167 19.5 13.5s15 5 23 5z" />
    <glyph glyph-name="igrave" unicode="&#xec;" horiz-adv-x="252" 
d="M144 15c-1.33301 -6.66699 -3.16699 -10.834 -5.5 -12.501s-6.5 -2.5 -12.5 -2.5h-52c-5.33301 0 -9.5 0.833008 -12.5 2.5s-3.83301 5.83398 -2.5 12.501l69 495c1.33301 6.66699 3.5 10.834 6.5 12.501s7.16699 2.5 12.5 2.5h52c6 0 10.167 -0.833008 12.5 -2.5
s2.83301 -5.83398 1.5 -12.501zM194.999 587c-4 -2 -7.49902 -2.66699 -10.499 -2s-6.83301 3.33398 -11.5 8.00098l-128 145c-5.33301 6 -4 11 4 15l63 30c5.33301 2 9.16602 2.16699 11.499 0.5s4.83301 -4.16699 7.5 -7.5l93 -155
c2.66699 -5.33301 3.66699 -8.83301 3 -10.5s-2.66699 -3.83398 -6 -6.50098z" />
    <glyph glyph-name="iacute" unicode="&#xed;" horiz-adv-x="252" 
d="M144 15c-1.33301 -6.66699 -3.16699 -10.834 -5.5 -12.501s-6.5 -2.5 -12.5 -2.5h-52c-5.33301 0 -9.5 0.833008 -12.5 2.5s-3.83301 5.83398 -2.5 12.501l69 495c1.33301 6.66699 3.5 10.834 6.5 12.501s7.16699 2.5 12.5 2.5h52c6 0 10.167 -0.833008 12.5 -2.5
s2.83301 -5.83398 1.5 -12.501zM160.999 595c-8 2.66699 -9.33105 8.33496 -3.99805 17.002l86 154c2 3.33301 4.5 6.16602 7.5 8.49902s7.16699 2.83301 12.5 1.5l64 -18c5.33301 -1.33301 8.16602 -3.5 8.49902 -6.5s-0.833984 -6.16699 -3.50098 -9.5l-125 -150
c-4 -5.33301 -7.5 -8.33301 -10.5 -9s-6.5 -0.333984 -10.5 0.999023z" />
    <glyph glyph-name="icircumflex" unicode="&#xee;" horiz-adv-x="252" 
d="M144 15c-1.33301 -6.66699 -3.16699 -10.834 -5.5 -12.501s-6.5 -2.5 -12.5 -2.5h-52c-5.33301 0 -9.5 0.833008 -12.5 2.5s-3.83301 5.83398 -2.5 12.501l69 495c1.33301 6.66699 3.5 10.834 6.5 12.501s7.16699 2.5 12.5 2.5h52c6 0 10.167 -0.833008 12.5 -2.5
s2.83301 -5.83398 1.5 -12.501zM327.999 579c-6 -4 -12.333 -3.33496 -19 1.99805l-112 94l-139 -96c-6.66699 -5.33301 -12.667 -4.66602 -18 2.00098l-15 19c-4 4 -3.66699 8.66699 1 14l143 130c14 12 27.333 18 40 18c8 0 14.833 -1.16699 20.5 -3.5
s11.5 -7.16602 17.5 -14.499l101 -128c4 -5.33301 5.66699 -9.5 5 -12.5s-3 -6.16699 -7 -9.5z" />
    <glyph glyph-name="idieresis" unicode="&#xef;" horiz-adv-x="252" 
d="M144 15c-1.33301 -6.66699 -3.16699 -10.834 -5.5 -12.501s-6.5 -2.5 -12.5 -2.5h-52c-5.33301 0 -9.5 0.833008 -12.5 2.5s-3.83301 5.83398 -2.5 12.501l69 495c1.33301 6.66699 3.5 10.834 6.5 12.501s7.16699 2.5 12.5 2.5h52c6 0 10.167 -0.833008 12.5 -2.5
s2.83301 -5.83398 1.5 -12.501zM290.999 723c12.667 0 23.5 -4.66699 32.5 -14s13.5 -20.333 13.5 -33c0 -7.33301 -1.83301 -14.666 -5.5 -21.999s-8.5 -13.833 -14.5 -19.5s-12.667 -10.167 -20 -13.5s-14.333 -5 -21 -5c-13.333 0 -24.5 4.66699 -33.5 14
s-13.5 20.333 -13.5 33c0 15.333 6.5 29.166 19.5 41.499s27.167 18.5 42.5 18.5zM115.999 723c12 0 22.667 -4.66602 32 -13.999s14 -20.333 14 -33c0 -8 -2 -15.5 -6 -22.5s-9 -13.333 -15 -19s-12.667 -10.167 -20 -13.5s-14.333 -5 -21 -5
c-12.667 0 -23.5 4.66699 -32.5 14s-13.167 20.333 -12.5 33c0 7.33301 1.66699 14.666 5 21.999s7.83301 13.833 13.5 19.5s12.167 10.167 19.5 13.5s15 5 23 5z" />
    <glyph glyph-name="eth" unicode="&#xf0;" horiz-adv-x="531" 
d="M303 405c-34 0 -62.165 -7.5 -84.498 -22.5s-39.833 -33.833 -52.5 -56.5s-21.5 -46.834 -26.5 -72.501s-7.5 -49.167 -7.5 -70.5c0 -15.333 1.5 -30.166 4.5 -44.499s8.66699 -27.166 17 -38.499s19.666 -20.5 33.999 -27.5s33.166 -10.5 56.499 -10.5
c38 0 68.833 9.83301 92.5 29.5s42 43.667 55 72s21.833 58.5 26.5 90.5s7 60.667 7 86v14.5c0 4.33301 -0.333008 8.16602 -1 11.499c-22 16 -43.833 26.5 -65.5 31.5s-40.167 7.5 -55.5 7.5zM418.002 640c32 -38 54.8359 -81 68.5029 -129s20.5 -99.333 20.5 -154
c0 -18 -1.16699 -39.5 -3.5 -64.5s-7 -51 -14 -78s-16.833 -53.833 -29.5 -80.5s-29 -50.5 -49 -71.5s-44.5 -38 -73.5 -51s-63.5 -19.5 -103.5 -19.5c-36.667 0 -67 5.16699 -91 15.5s-43.167 24 -57.5 41s-24.333 36.667 -30 59s-8.5 45.166 -8.5 68.499
c0 34.667 5 69.834 15 105.501s25.5 67.834 46.5 96.501s47.667 52.167 80 70.5s71.166 27.5 116.499 27.5c18.667 0 37.667 -2 57 -6s37.666 -10.667 54.999 -20l4 3c-4.66699 26 -12.334 51.167 -23.001 75.5s-23.667 45.833 -39 64.5l-68 -53
c-4 -3.33301 -7 -5.16602 -9 -5.49902s-4.66699 1.5 -8 5.5l-15 18c-2.66699 4 -3.66699 6.83301 -3 8.5s3 4.16699 7 7.5l66 52c-22.667 21.333 -49 41.666 -79 60.999c-5.33301 4 -7.66602 7.5 -6.99902 10.5s1.66699 5.5 3 7.5l22 29c6 8 10.5 11.667 13.5 11
s6.16699 -1.66699 9.5 -3c37.333 -20.667 69.333 -43.334 96 -68.001l74 57c4 3.33301 7.16699 5.5 9.5 6.5s5.16602 -1.16699 8.49902 -6.5l13 -16c3.33301 -4.66699 4.83301 -8 4.5 -10s-2.83301 -5 -7.5 -9z" />
    <glyph glyph-name="ntilde" unicode="&#xf1;" horiz-adv-x="545" 
d="M459 15c-1.33301 -6.66699 -3.1709 -10.835 -5.50391 -12.502s-6.5 -2.5 -12.5 -2.5h-53c-5.33301 0 -9.16602 0.833008 -11.499 2.5s-3.16602 5.83398 -2.49902 12.501l38 265c4 30 5.5 56.167 4.5 78.5s-6.33301 41 -16 56s-24.5 26.167 -44.5 33.5s-46.667 11 -80 11
c-7.33301 0 -18.833 -0.5 -34.5 -1.5s-34.5 -3.16699 -56.5 -6.5l-61 -436c-1.33301 -6.66699 -3.16602 -10.834 -5.49902 -12.501s-6.16602 -2.5 -11.499 -2.5h-53c-5.33301 0 -9.33301 0.833008 -12 2.5s-3.33398 5.83398 -2.00098 12.501l61 436c6 44.667 30 70 72 76
c7.33301 1.33301 16.166 2.5 26.499 3.5l32.5 3c11.333 1 22.333 1.66699 33 2s20 0.5 28 0.5c42 0 77.333 -4.66699 106 -14s51.334 -24.166 68.001 -44.499s27.334 -46.5 32.001 -78.5s3.66699 -70.667 -3 -116zM378.995 621.999
c-11.333 0 -21.9961 1.82617 -31.9961 5.49316s-19.833 7.66699 -29.5 12s-19.334 8.33301 -29.001 12s-19.834 5.5 -30.501 5.5c-17.333 0 -34.666 -9.66699 -51.999 -29c-2.66699 -3.33301 -5 -5.66602 -7 -6.99902s-5 -0.666016 -9 2.00098l-34 17
c-4 2.66699 -6.5 4.83398 -7.5 6.50098s0.166992 4.83398 3.5 9.50098c13.333 20.667 29.166 37.334 47.499 50.001s39.166 19 62.499 19c11.333 0 21.833 -1.83301 31.5 -5.5s19 -7.66699 28 -12l26 -12c8.33301 -3.66699 17.166 -5.5 26.499 -5.5
c20.667 0 37.667 9.66699 51 29c3.33301 4.66699 5.83301 7.33398 7.5 8.00098s4.16699 0.333984 7.5 -0.999023l39 -14c8 -2.66699 10.667 -7.66699 8 -15c-24.667 -50 -60.667 -75 -108 -75z" />
    <glyph glyph-name="ograve" unicode="&#xf2;" horiz-adv-x="540" 
d="M314 536c64 0 113.167 -18.168 147.5 -54.501s51.5 -88.166 51.5 -155.499c0 -51.333 -6.16699 -97.833 -18.5 -139.5s-30 -77.167 -53 -106.5s-51 -51.833 -84 -67.5s-70.167 -23.5 -111.5 -23.5c-63.333 0 -111.833 17.167 -145.5 51.5s-50.5 84.833 -50.5 151.5
c0 56 7 105.333 21 148s33 78.5 57 107.5s52 51 84 66s66 22.5 102 22.5zM308 462.999c-30.667 0 -56.834 -7.49902 -78.501 -22.499s-39.5 -34.833 -53.5 -59.5s-24.333 -52.834 -31 -84.501s-10 -63.834 -10 -96.501c0 -42 9.33301 -75.5 28 -100.5s49.667 -37.5 93 -37.5
c32.667 0 59.834 8.16699 81.501 24.5s39.167 37.333 52.5 63s22.833 54.167 28.5 85.5s8.5 62 8.5 92c0 18.667 -2 36.334 -6 53.001s-10.5 31.167 -19.5 43.5s-21.167 22 -36.5 29s-34.333 10.5 -57 10.5zM349 587c-4 -2 -7.49902 -2.66699 -10.499 -2
s-6.83301 3.33398 -11.5 8.00098l-128 145c-5.33301 6 -4 11 4 15l63 30c5.33301 2 9.16602 2.16699 11.499 0.5s4.83301 -4.16699 7.5 -7.5l93 -155c2.66699 -5.33301 3.66699 -8.83301 3 -10.5s-2.66699 -3.83398 -6 -6.50098z" />
    <glyph glyph-name="oacute" unicode="&#xf3;" horiz-adv-x="540" 
d="M314 536c64 0 113.167 -18.168 147.5 -54.501s51.5 -88.166 51.5 -155.499c0 -51.333 -6.16699 -97.833 -18.5 -139.5s-30 -77.167 -53 -106.5s-51 -51.833 -84 -67.5s-70.167 -23.5 -111.5 -23.5c-63.333 0 -111.833 17.167 -145.5 51.5s-50.5 84.833 -50.5 151.5
c0 56 7 105.333 21 148s33 78.5 57 107.5s52 51 84 66s66 22.5 102 22.5zM308 462.999c-30.667 0 -56.834 -7.49902 -78.501 -22.499s-39.5 -34.833 -53.5 -59.5s-24.333 -52.834 -31 -84.501s-10 -63.834 -10 -96.501c0 -42 9.33301 -75.5 28 -100.5s49.667 -37.5 93 -37.5
c32.667 0 59.834 8.16699 81.501 24.5s39.167 37.333 52.5 63s22.833 54.167 28.5 85.5s8.5 62 8.5 92c0 18.667 -2 36.334 -6 53.001s-10.5 31.167 -19.5 43.5s-21.167 22 -36.5 29s-34.333 10.5 -57 10.5zM295 595c-8 2.66699 -9.33105 8.33496 -3.99805 17.002l86 154
c2 3.33301 4.5 6.16602 7.5 8.49902s7.16699 2.83301 12.5 1.5l64 -18c5.33301 -1.33301 8.16602 -3.5 8.49902 -6.5s-0.833984 -6.16699 -3.50098 -9.5l-125 -150c-4 -5.33301 -7.5 -8.33301 -10.5 -9s-6.5 -0.333984 -10.5 0.999023z" />
    <glyph glyph-name="ocircumflex" unicode="&#xf4;" horiz-adv-x="540" 
d="M314 536c64 0 113.167 -18.168 147.5 -54.501s51.5 -88.166 51.5 -155.499c0 -51.333 -6.16699 -97.833 -18.5 -139.5s-30 -77.167 -53 -106.5s-51 -51.833 -84 -67.5s-70.167 -23.5 -111.5 -23.5c-63.333 0 -111.833 17.167 -145.5 51.5s-50.5 84.833 -50.5 151.5
c0 56 7 105.333 21 148s33 78.5 57 107.5s52 51 84 66s66 22.5 102 22.5zM308 462.999c-30.667 0 -56.834 -7.49902 -78.501 -22.499s-39.5 -34.833 -53.5 -59.5s-24.333 -52.834 -31 -84.501s-10 -63.834 -10 -96.501c0 -42 9.33301 -75.5 28 -100.5s49.667 -37.5 93 -37.5
c32.667 0 59.834 8.16699 81.501 24.5s39.167 37.333 52.5 63s22.833 54.167 28.5 85.5s8.5 62 8.5 92c0 18.667 -2 36.334 -6 53.001s-10.5 31.167 -19.5 43.5s-21.167 22 -36.5 29s-34.333 10.5 -57 10.5zM475 580c-6 -4 -12.333 -3.33496 -19 1.99805l-112 94l-139 -96
c-6.66699 -5.33301 -12.667 -4.66602 -18 2.00098l-15 19c-4 4 -3.66699 8.66699 1 14l143 130c14 12 27.333 18 40 18c8 0 14.833 -1.16699 20.5 -3.5s11.5 -7.16602 17.5 -14.499l101 -128c4 -5.33301 5.66699 -9.5 5 -12.5s-3 -6.16699 -7 -9.5z" />
    <glyph glyph-name="otilde" unicode="&#xf5;" horiz-adv-x="540" 
d="M314 536c64 0 113.167 -18.168 147.5 -54.501s51.5 -88.166 51.5 -155.499c0 -51.333 -6.16699 -97.833 -18.5 -139.5s-30 -77.167 -53 -106.5s-51 -51.833 -84 -67.5s-70.167 -23.5 -111.5 -23.5c-63.333 0 -111.833 17.167 -145.5 51.5s-50.5 84.833 -50.5 151.5
c0 56 7 105.333 21 148s33 78.5 57 107.5s52 51 84 66s66 22.5 102 22.5zM308 462.999c-30.667 0 -56.834 -7.49902 -78.501 -22.499s-39.5 -34.833 -53.5 -59.5s-24.333 -52.834 -31 -84.501s-10 -63.834 -10 -96.501c0 -42 9.33301 -75.5 28 -100.5s49.667 -37.5 93 -37.5
c32.667 0 59.834 8.16699 81.501 24.5s39.167 37.333 52.5 63s22.833 54.167 28.5 85.5s8.5 62 8.5 92c0 18.667 -2 36.334 -6 53.001s-10.5 31.167 -19.5 43.5s-21.167 22 -36.5 29s-34.333 10.5 -57 10.5zM403 621c-11.333 0 -21.9961 1.82617 -31.9961 5.49316
s-19.833 7.66699 -29.5 12s-19.334 8.33301 -29.001 12s-19.834 5.5 -30.501 5.5c-17.333 0 -34.666 -9.66699 -51.999 -29c-2.66699 -3.33301 -5 -5.66602 -7 -6.99902s-5 -0.666016 -9 2.00098l-34 17c-4 2.66699 -6.5 4.83398 -7.5 6.50098s0.166992 4.83398 3.5 9.50098
c13.333 20.667 29.166 37.334 47.499 50.001s39.166 19 62.499 19c11.333 0 21.833 -1.83301 31.5 -5.5s19 -7.66699 28 -12l26 -12c8.33301 -3.66699 17.166 -5.5 26.499 -5.5c20.667 0 37.667 9.66699 51 29c3.33301 4.66699 5.83301 7.33398 7.5 8.00098
s4.16699 0.333984 7.5 -0.999023l39 -14c8 -2.66699 10.667 -7.66699 8 -15c-24.667 -50 -60.667 -75 -108 -75z" />
    <glyph glyph-name="odieresis" unicode="&#xf6;" horiz-adv-x="540" 
d="M314 536c64 0 113.167 -18.168 147.5 -54.501s51.5 -88.166 51.5 -155.499c0 -51.333 -6.16699 -97.833 -18.5 -139.5s-30 -77.167 -53 -106.5s-51 -51.833 -84 -67.5s-70.167 -23.5 -111.5 -23.5c-63.333 0 -111.833 17.167 -145.5 51.5s-50.5 84.833 -50.5 151.5
c0 56 7 105.333 21 148s33 78.5 57 107.5s52 51 84 66s66 22.5 102 22.5zM308 462.999c-30.667 0 -56.834 -7.49902 -78.501 -22.499s-39.5 -34.833 -53.5 -59.5s-24.333 -52.834 -31 -84.501s-10 -63.834 -10 -96.501c0 -42 9.33301 -75.5 28 -100.5s49.667 -37.5 93 -37.5
c32.667 0 59.834 8.16699 81.501 24.5s39.167 37.333 52.5 63s22.833 54.167 28.5 85.5s8.5 62 8.5 92c0 18.667 -2 36.334 -6 53.001s-10.5 31.167 -19.5 43.5s-21.167 22 -36.5 29s-34.333 10.5 -57 10.5zM433 723c12.667 0 23.5 -4.66699 32.5 -14s13.5 -20.333 13.5 -33
c0 -7.33301 -1.83301 -14.666 -5.5 -21.999s-8.5 -13.833 -14.5 -19.5s-12.667 -10.167 -20 -13.5s-14.333 -5 -21 -5c-13.333 0 -24.5 4.66699 -33.5 14s-13.5 20.333 -13.5 33c0 15.333 6.5 29.166 19.5 41.499s27.167 18.5 42.5 18.5zM258 723
c12 0 22.667 -4.66602 32 -13.999s14 -20.333 14 -33c0 -8 -2 -15.5 -6 -22.5s-9 -13.333 -15 -19s-12.667 -10.167 -20 -13.5s-14.333 -5 -21 -5c-12.667 0 -23.5 4.66699 -32.5 14s-13.167 20.333 -12.5 33c0 7.33301 1.66699 14.666 5 21.999s7.83301 13.833 13.5 19.5
s12.167 10.167 19.5 13.5s15 5 23 5z" />
    <glyph glyph-name="divide" unicode="&#xf7;" horiz-adv-x="572" 
d="M347 597c18 0 32.5 -5.5 43.5 -16.5s16.5 -25.167 16.5 -42.5c0 -22.667 -8 -42 -24 -58s-34.667 -24 -56 -24c-17.333 0 -31.5 5.5 -42.5 16.5s-16.5 25.167 -16.5 42.5c0 22.667 7.66699 42 23 58s34 24 56 24zM294 224c18 0 32.499 -5.66895 43.499 -17.002
s16.5 -25.666 16.5 -42.999c0 -23.333 -7.83301 -42.666 -23.5 -57.999s-34.167 -23 -55.5 -23c-18 0 -32.5 5.5 -43.5 16.5s-16.5 25.167 -16.5 42.5c0 10.667 2.16699 21 6.5 31s10 18.833 17 26.5s15.333 13.667 25 18s19.834 6.5 30.501 6.5zM81.999 301.998
c-6.66699 0 -10.667 1.16699 -12 3.5s-1.66602 6.5 -0.999023 12.5l8 52c1.33301 5.33301 3 9.5 5 12.5s6 4.5 12 4.5h442c6 0 9.66699 -1.5 11 -4.5s1.66602 -7.16699 0.999023 -12.5l-7 -52c-1.33301 -6 -3 -10.167 -5 -12.5s-6.33301 -3.5 -13 -3.5h-441z" />
    <glyph glyph-name="oslash" unicode="&#xf8;" horiz-adv-x="540" 
d="M314 536c65.333 0 114.668 -19.001 148.001 -57.001l47 47c3.33301 3.33301 6 4.83301 8 4.5s4.66699 -1.5 8 -3.5l14 -16c2 -2 3 -4 3 -6s-1.66699 -4.66699 -5 -8l-50 -53c17.333 -31.333 26 -70.666 26 -117.999c0 -51.333 -6.16699 -97.833 -18.5 -139.5
s-30 -77.167 -53 -106.5s-51 -51.833 -84 -67.5s-70.167 -23.5 -111.5 -23.5c-66.667 0 -116.334 18.333 -149.001 55l-41 -41c-6 -6 -10.667 -6.33301 -14 -1l-15 15c-4.66699 4.66699 -4 10 2 16l44 45c-15.333 30.667 -23 68.667 -23 114c0 56 7 105.333 21 148
s33 78.5 57 107.5s52 51 84 66s66 22.5 102 22.5zM427.002 326.999c0 18.667 -2.00098 35.667 -6.00098 51l-263 -271c18 -30 50.667 -45 98 -45c32.667 0 59.834 8.16699 81.501 24.5s39.167 37.333 52.5 63s22.833 54.167 28.5 85.5s8.5 62 8.5 92zM308.001 462.999
c-30.667 0 -56.833 -7.49707 -78.5 -22.4971s-39.5 -34.833 -53.5 -59.5s-24.333 -52.834 -31 -84.501s-10 -63.834 -10 -96.501c0 -20.667 2 -38.334 6 -53.001l263 272c-9.33301 13.333 -21.833 24 -37.5 32s-35.167 12 -58.5 12z" />
    <glyph glyph-name="ugrave" unicode="&#xf9;" horiz-adv-x="537" 
d="M109 511c1.33301 6.66699 3.33984 10.834 6.00684 12.501s6.66699 2.5 12 2.5h53c5.33301 0 9.16602 -0.833008 11.499 -2.5s2.83301 -5.83398 1.5 -12.501l-37 -267c-4.66699 -32.667 -6.83398 -60.334 -6.50098 -83.001s4.66602 -41 12.999 -55s21.833 -24 40.5 -30
s44 -9 76 -9c7.33301 0 19.666 0.5 36.999 1.5s36.666 3.16699 57.999 6.5l62 436c1.33301 6.66699 3.16602 10.834 5.49902 12.501s6.16602 2.5 11.499 2.5h54c5.33301 0 9.16602 -0.833008 11.499 -2.5s2.83301 -5.83398 1.5 -12.501l-61 -437c-6 -42.667 -30 -68 -72 -76
c-9.33301 -1.33301 -19.666 -2.5 -30.999 -3.5s-22.666 -1.83301 -33.999 -2.5s-22.166 -1.16699 -32.499 -1.5s-19.5 -0.5 -27.5 -0.5c-43.333 0 -78.833 4.5 -106.5 13.5s-48.834 23.333 -63.501 43s-23.334 45.334 -26.001 77.001s-0.666992 70.167 6 115.5zM345.007 587
c-4 -2 -7.49902 -2.66699 -10.499 -2s-6.83301 3.33398 -11.5 8.00098l-128 145c-5.33301 6 -4 11 4 15l63 30c5.33301 2 9.16602 2.16699 11.499 0.5s4.83301 -4.16699 7.5 -7.5l93 -155c2.66699 -5.33301 3.66699 -8.83301 3 -10.5s-2.66699 -3.83398 -6 -6.50098z" />
    <glyph glyph-name="uacute" unicode="&#xfa;" horiz-adv-x="537" 
d="M109 511c1.33301 6.66699 3.33984 10.834 6.00684 12.501s6.66699 2.5 12 2.5h53c5.33301 0 9.16602 -0.833008 11.499 -2.5s2.83301 -5.83398 1.5 -12.501l-37 -267c-4.66699 -32.667 -6.83398 -60.334 -6.50098 -83.001s4.66602 -41 12.999 -55s21.833 -24 40.5 -30
s44 -9 76 -9c7.33301 0 19.666 0.5 36.999 1.5s36.666 3.16699 57.999 6.5l62 436c1.33301 6.66699 3.16602 10.834 5.49902 12.501s6.16602 2.5 11.499 2.5h54c5.33301 0 9.16602 -0.833008 11.499 -2.5s2.83301 -5.83398 1.5 -12.501l-61 -437c-6 -42.667 -30 -68 -72 -76
c-9.33301 -1.33301 -19.666 -2.5 -30.999 -3.5s-22.666 -1.83301 -33.999 -2.5s-22.166 -1.16699 -32.499 -1.5s-19.5 -0.5 -27.5 -0.5c-43.333 0 -78.833 4.5 -106.5 13.5s-48.834 23.333 -63.501 43s-23.334 45.334 -26.001 77.001s-0.666992 70.167 6 115.5zM297.007 595
c-8 2.66699 -9.33105 8.33496 -3.99805 17.002l86 154c2 3.33301 4.5 6.16602 7.5 8.49902s7.16699 2.83301 12.5 1.5l64 -18c5.33301 -1.33301 8.16602 -3.5 8.49902 -6.5s-0.833984 -6.16699 -3.50098 -9.5l-125 -150c-4 -5.33301 -7.5 -8.33301 -10.5 -9
s-6.5 -0.333984 -10.5 0.999023z" />
    <glyph glyph-name="ucircumflex" unicode="&#xfb;" horiz-adv-x="537" 
d="M109 511c1.33301 6.66699 3.33984 10.834 6.00684 12.501s6.66699 2.5 12 2.5h53c5.33301 0 9.16602 -0.833008 11.499 -2.5s2.83301 -5.83398 1.5 -12.501l-37 -267c-4.66699 -32.667 -6.83398 -60.334 -6.50098 -83.001s4.66602 -41 12.999 -55s21.833 -24 40.5 -30
s44 -9 76 -9c7.33301 0 19.666 0.5 36.999 1.5s36.666 3.16699 57.999 6.5l62 436c1.33301 6.66699 3.16602 10.834 5.49902 12.501s6.16602 2.5 11.499 2.5h54c5.33301 0 9.16602 -0.833008 11.499 -2.5s2.83301 -5.83398 1.5 -12.501l-61 -437c-6 -42.667 -30 -68 -72 -76
c-9.33301 -1.33301 -19.666 -2.5 -30.999 -3.5s-22.666 -1.83301 -33.999 -2.5s-22.166 -1.16699 -32.499 -1.5s-19.5 -0.5 -27.5 -0.5c-43.333 0 -78.833 4.5 -106.5 13.5s-48.834 23.333 -63.501 43s-23.334 45.334 -26.001 77.001s-0.666992 70.167 6 115.5zM477.007 580
c-6 -4 -12.333 -3.33496 -19 1.99805l-112 94l-139 -96c-6.66699 -5.33301 -12.667 -4.66602 -18 2.00098l-15 19c-4 4 -3.66699 8.66699 1 14l143 130c14 12 27.333 18 40 18c8 0 14.833 -1.16699 20.5 -3.5s11.5 -7.16602 17.5 -14.499l101 -128
c4 -5.33301 5.66699 -9.5 5 -12.5s-3 -6.16699 -7 -9.5z" />
    <glyph glyph-name="udieresis" unicode="&#xfc;" horiz-adv-x="537" 
d="M109 511c1.33301 6.66699 3.33984 10.834 6.00684 12.501s6.66699 2.5 12 2.5h53c5.33301 0 9.16602 -0.833008 11.499 -2.5s2.83301 -5.83398 1.5 -12.501l-37 -267c-4.66699 -32.667 -6.83398 -60.334 -6.50098 -83.001s4.66602 -41 12.999 -55s21.833 -24 40.5 -30
s44 -9 76 -9c7.33301 0 19.666 0.5 36.999 1.5s36.666 3.16699 57.999 6.5l62 436c1.33301 6.66699 3.16602 10.834 5.49902 12.501s6.16602 2.5 11.499 2.5h54c5.33301 0 9.16602 -0.833008 11.499 -2.5s2.83301 -5.83398 1.5 -12.501l-61 -437c-6 -42.667 -30 -68 -72 -76
c-9.33301 -1.33301 -19.666 -2.5 -30.999 -3.5s-22.666 -1.83301 -33.999 -2.5s-22.166 -1.16699 -32.499 -1.5s-19.5 -0.5 -27.5 -0.5c-43.333 0 -78.833 4.5 -106.5 13.5s-48.834 23.333 -63.501 43s-23.334 45.334 -26.001 77.001s-0.666992 70.167 6 115.5zM440.007 723
c12.667 0 23.5 -4.66699 32.5 -14s13.5 -20.333 13.5 -33c0 -7.33301 -1.83301 -14.666 -5.5 -21.999s-8.5 -13.833 -14.5 -19.5s-12.667 -10.167 -20 -13.5s-14.333 -5 -21 -5c-13.333 0 -24.5 4.66699 -33.5 14s-13.5 20.333 -13.5 33c0 15.333 6.5 29.166 19.5 41.499
s27.167 18.5 42.5 18.5zM265.007 723c12 0 22.667 -4.66602 32 -13.999s14 -20.333 14 -33c0 -8 -2 -15.5 -6 -22.5s-9 -13.333 -15 -19s-12.667 -10.167 -20 -13.5s-14.333 -5 -21 -5c-12.667 0 -23.5 4.66699 -32.5 14s-13.167 20.333 -12.5 33
c0 7.33301 1.66699 14.666 5 21.999s7.83301 13.833 13.5 19.5s12.167 10.167 19.5 13.5s15 5 23 5z" />
    <glyph glyph-name="yacute" unicode="&#xfd;" horiz-adv-x="475" 
d="M71 -216c-19.333 0 -40.334 2.66992 -63.001 8.00293s-43 11.666 -61 18.999c-8 3.33301 -12.833 6 -14.5 8s-1.16699 6.33301 1.5 13l17 42c2.66699 6.66699 5.16699 10.167 7.5 10.5s7.16602 -0.833984 14.499 -3.50098c18.667 -6.66699 37.167 -11.834 55.5 -15.501
s32.5 -5.5 42.5 -5.5c21.333 0 38.833 5.5 52.5 16.5s27.167 31.167 40.5 60.5l31 68h-13c-9.33301 0 -17 1.5 -23 4.5s-10.667 13.167 -14 30.5l-81 474c-1.33301 7.33301 1.33398 11 8.00098 11h60c8 0 12.333 -3.33301 13 -10c0.666992 -3.33301 2 -11.333 4 -24
s4.5 -27.667 7.5 -45s6 -36 9 -56s6 -38.667 9 -56s5.5 -32.333 7.5 -45s3.33301 -20.667 4 -24l30 -192h6c1.33301 2.66699 4.16602 9 8.49902 19l15.5 35l19.5 43l20 43l16.5 35c4.66699 10 7.66699 16.333 9 19l114 248c1.33301 3.33301 3 5.83301 5 7.5
s5.66699 2.5 11 2.5h63c8 0 10.333 -3.66699 7 -11l-279 -605c-19.333 -42.667 -41.166 -74.167 -65.499 -94.5s-56.166 -30.5 -95.499 -30.5zM257.999 595.003c-8 2.66699 -9.33105 8.33496 -3.99805 17.002l86 154c2 3.33301 4.5 6.16602 7.5 8.49902
s7.16699 2.83301 12.5 1.5l64 -18c5.33301 -1.33301 8.16602 -3.5 8.49902 -6.5s-0.833984 -6.16699 -3.50098 -9.5l-125 -150c-4 -5.33301 -7.5 -8.33301 -10.5 -9s-6.5 -0.333984 -10.5 0.999023z" />
    <glyph glyph-name="thorn" unicode="&#xfe;" horiz-adv-x="542" 
d="M95 -188c-0.666992 -6 -2.16602 -9.83301 -4.49902 -11.5s-6.16602 -2.5 -11.499 -2.5h-54c-5.33301 0 -9.33301 0.833008 -12 2.5s-3.33398 5.5 -2.00098 11.5l127 905c1.33301 6 3.33301 9.83301 6 11.5s6.66699 2.5 12 2.5h54
c5.33301 0 9.16602 -0.833008 11.499 -2.5s2.83301 -5.5 1.5 -11.5l-27 -194c21.333 5.33301 42.833 8.83301 64.5 10.5s42.167 2.5 61.5 2.5c34.667 0 64 -5.33301 88 -16s43.667 -25.5 59 -44.5s26.5 -41.667 33.5 -68s10.5 -55.5 10.5 -87.5
c0 -47.333 -6 -91.166 -18 -131.499s-29.333 -75.333 -52 -105s-50.667 -52.834 -84 -69.501s-71 -25 -113 -25c-17.333 0 -36.333 1 -57 3s-42.667 6.66699 -66 14zM298.001 461c-16 0 -34.998 -1.66797 -56.998 -5.00098s-40.667 -8 -56 -14
c-1.33301 -7.33301 -3.33301 -20.833 -6 -40.5l-9.5 -68l-11.5 -80.5l-11 -78.5l-8.5 -62c-2.33301 -17 -3.83301 -27.167 -4.5 -30.5c23.333 -7.33301 43.666 -12.166 60.999 -14.499s33.666 -3.5 48.999 -3.5c24 0 47 4.66699 69 14s41.333 24 58 44s30 45.833 40 77.5
s15 69.5 15 113.5c0 54 -11.333 92.167 -34 114.5s-54 33.5 -94 33.5z" />
    <glyph glyph-name="ydieresis" unicode="&#xff;" horiz-adv-x="475" 
d="M71 -216c-19.333 0 -40.334 2.66992 -63.001 8.00293s-43 11.666 -61 18.999c-8 3.33301 -12.833 6 -14.5 8s-1.16699 6.33301 1.5 13l17 42c2.66699 6.66699 5.16699 10.167 7.5 10.5s7.16602 -0.833984 14.499 -3.50098c18.667 -6.66699 37.167 -11.834 55.5 -15.501
s32.5 -5.5 42.5 -5.5c21.333 0 38.833 5.5 52.5 16.5s27.167 31.167 40.5 60.5l31 68h-13c-9.33301 0 -17 1.5 -23 4.5s-10.667 13.167 -14 30.5l-81 474c-1.33301 7.33301 1.33398 11 8.00098 11h60c8 0 12.333 -3.33301 13 -10c0.666992 -3.33301 2 -11.333 4 -24
s4.5 -27.667 7.5 -45s6 -36 9 -56s6 -38.667 9 -56s5.5 -32.333 7.5 -45s3.33301 -20.667 4 -24l30 -192h6c1.33301 2.66699 4.16602 9 8.49902 19l15.5 35l19.5 43l20 43l16.5 35c4.66699 10 7.66699 16.333 9 19l114 248c1.33301 3.33301 3 5.83301 5 7.5
s5.66699 2.5 11 2.5h63c8 0 10.333 -3.66699 7 -11l-279 -605c-19.333 -42.667 -41.166 -74.167 -65.499 -94.5s-56.166 -30.5 -95.499 -30.5zM399.999 723.003c12.667 0 23.5 -4.66699 32.5 -14s13.5 -20.333 13.5 -33c0 -7.33301 -1.83301 -14.666 -5.5 -21.999
s-8.5 -13.833 -14.5 -19.5s-12.667 -10.167 -20 -13.5s-14.333 -5 -21 -5c-13.333 0 -24.5 4.66699 -33.5 14s-13.5 20.333 -13.5 33c0 15.333 6.5 29.166 19.5 41.499s27.167 18.5 42.5 18.5zM224.999 723.003c12 0 22.667 -4.66602 32 -13.999s14 -20.333 14 -33
c0 -8 -2 -15.5 -6 -22.5s-9 -13.333 -15 -19s-12.667 -10.167 -20 -13.5s-14.333 -5 -21 -5c-12.667 0 -23.5 4.66699 -32.5 14s-13.167 20.333 -12.5 33c0 7.33301 1.66699 14.666 5 21.999s7.83301 13.833 13.5 19.5s12.167 10.167 19.5 13.5s15 5 23 5z" />
    <glyph glyph-name="Amacron" unicode="&#x100;" horiz-adv-x="600" 
d="M489 0c-6 0 -10.8311 0.666992 -14.498 2s-6.16699 5.66602 -7.5 12.999l-27 147h-274l-69 -147c-3.33301 -5.33301 -6.5 -9.16602 -9.5 -11.499s-7.5 -3.5 -13.5 -3.5h-71c-6.66699 -0 -10.5 1.83301 -11.5 5.5s-0.833008 8.16699 0.5 13.5l311 643
c7.33301 16 14.5 26.5 21.5 31.5s18.167 7.83301 33.5 8.5h28c17.333 0 28.666 -2.83301 33.999 -8.5s9.66602 -16.167 12.999 -31.5l128 -643c1.33301 -4.66699 1 -9 -1 -13s-6 -6 -12 -6h-59zM390.002 451l-25 146h-5l-64 -141l-96 -213h225zM248.002 774
c-6.66699 0 -10.832 1.33301 -12.499 4s-1.83398 6.66699 -0.500977 12l5 38c1.33301 5.33301 3 9.33301 5 12s6 4 12 4h233c6 0 9.66699 -1.33301 11 -4s1.33301 -6.66699 0 -12l-5 -38c-1.33301 -5.33301 -2.83301 -9.33301 -4.5 -12s-5.5 -4 -11.5 -4h-232z" />
    <glyph glyph-name="amacron" unicode="&#x101;" horiz-adv-x="543" 
d="M325 536c22 0 48.5 -1.33105 79.5 -3.99805s64.167 -8.66699 99.5 -18c10.667 -3.33301 16.667 -7.5 18 -12.5s1.33301 -11.167 0 -18.5l-32 -224c-10 -71.333 -19.667 -144.333 -29 -219c-0.666992 -8.66699 -6 -15.334 -16 -20.001c-14.667 -6 -30.667 -11 -48 -15
s-34.833 -7.16699 -52.5 -9.5s-35.167 -4 -52.5 -5s-33 -1.5 -47 -1.5c-36 0 -66.5 5 -91.5 15s-45.167 23.667 -60.5 41s-26.333 37.666 -33 60.999s-10 48.333 -10 75c0 50 5.16699 96.5 15.5 139.5s26.5 80.5 48.5 112.5s50.333 57.167 85 75.5s76.667 27.5 126 27.5z
M270 64.002c7.33301 0 15.8311 0.333008 25.498 1s19.5 1.66699 29.5 3s19.833 3 29.5 5s18.5 4.66699 26.5 8c8 64 16.167 125.667 24.5 185l26.5 181c-16.667 5.33301 -35.167 9 -55.5 11s-38.166 3 -53.499 3c-24 0 -47.167 -4.5 -69.5 -13.5s-42.166 -24 -59.499 -45
s-31.333 -48.833 -42 -83.5s-16 -78 -16 -130c0 -40.667 10.167 -71.667 30.5 -93s54.833 -32 103.5 -32zM216.998 625.002c-6.66699 0 -10.832 1.33301 -12.499 4s-1.83398 6.66699 -0.500977 12l5 38c1.33301 5.33301 3 9.33301 5 12s6 4 12 4h233
c6 0 9.66699 -1.33301 11 -4s1.33301 -6.66699 0 -12l-5 -38c-1.33301 -5.33301 -2.83301 -9.33301 -4.5 -12s-5.5 -4 -11.5 -4h-232z" />
    <glyph glyph-name="Abreve" unicode="&#x102;" horiz-adv-x="600" 
d="M489 0c-6 0 -10.8311 0.666992 -14.498 2s-6.16699 5.66602 -7.5 12.999l-27 147h-274l-69 -147c-3.33301 -5.33301 -6.5 -9.16602 -9.5 -11.499s-7.5 -3.5 -13.5 -3.5h-71c-6.66699 -0 -10.5 1.83301 -11.5 5.5s-0.833008 8.16699 0.5 13.5l311 643
c7.33301 16 14.5 26.5 21.5 31.5s18.167 7.83301 33.5 8.5h28c17.333 0 28.666 -2.83301 33.999 -8.5s9.66602 -16.167 12.999 -31.5l128 -643c1.33301 -4.66699 1 -9 -1 -13s-6 -6 -12 -6h-59zM390.002 451l-25 146h-5l-64 -141l-96 -213h225zM372.002 744
c-16 0 -31.0029 2.83008 -45.0029 8.49707s-27 13.334 -39 23.001s-22.833 20.834 -32.5 33.501s-18.167 26 -25.5 40c-1.33301 2.66699 -2.16602 5.5 -2.49902 8.5s2.16699 6.5 7.5 10.5l22 17c5.33301 3.33301 9 4.5 11 3.5s4.66699 -3.5 8 -7.5
c17.333 -21.333 35.333 -38 54 -50s36.667 -18 54 -18c14.667 0 32 4.5 52 13.5s45.667 28.167 77 57.5c5.33301 4.66699 9 6.83398 11 6.50098s4.33301 -1.5 7 -3.5l17 -16c4.66699 -5.33301 6.33398 -9.33301 5.00098 -12l-4 -8c-32 -38 -63.167 -65.333 -93.5 -82
s-58.166 -25 -83.499 -25z" />
    <glyph glyph-name="abreve" unicode="&#x103;" horiz-adv-x="543" 
d="M325 536c22 0 48.5 -1.33105 79.5 -3.99805s64.167 -8.66699 99.5 -18c10.667 -3.33301 16.667 -7.5 18 -12.5s1.33301 -11.167 0 -18.5l-32 -224c-10 -71.333 -19.667 -144.333 -29 -219c-0.666992 -8.66699 -6 -15.334 -16 -20.001c-14.667 -6 -30.667 -11 -48 -15
s-34.833 -7.16699 -52.5 -9.5s-35.167 -4 -52.5 -5s-33 -1.5 -47 -1.5c-36 0 -66.5 5 -91.5 15s-45.167 23.667 -60.5 41s-26.333 37.666 -33 60.999s-10 48.333 -10 75c0 50 5.16699 96.5 15.5 139.5s26.5 80.5 48.5 112.5s50.333 57.167 85 75.5s76.667 27.5 126 27.5z
M270 64.002c7.33301 0 15.8311 0.333008 25.498 1s19.5 1.66699 29.5 3s19.833 3 29.5 5s18.5 4.66699 26.5 8c8 64 16.167 125.667 24.5 185l26.5 181c-16.667 5.33301 -35.167 9 -55.5 11s-38.166 3 -53.499 3c-24 0 -47.167 -4.5 -69.5 -13.5s-42.166 -24 -59.499 -45
s-31.333 -48.833 -42 -83.5s-16 -78 -16 -130c0 -40.667 10.167 -71.667 30.5 -93s54.833 -32 103.5 -32zM334.998 592.002c-16 0 -31.0029 2.83008 -45.0029 8.49707s-27 13.334 -39 23.001s-22.833 20.834 -32.5 33.501s-18.167 26 -25.5 40
c-1.33301 2.66699 -2.16602 5.5 -2.49902 8.5s2.16699 6.5 7.5 10.5l22 17c5.33301 3.33301 9 4.5 11 3.5s4.66699 -3.5 8 -7.5c17.333 -21.333 35.333 -38 54 -50s36.667 -18 54 -18c14.667 0 32 4.5 52 13.5s45.667 28.167 77 57.5c5.33301 4.66699 9 6.83398 11 6.50098
s4.33301 -1.5 7 -3.5l17 -16c4.66699 -5.33301 6.33398 -9.33301 5.00098 -12l-4 -8c-32 -38 -63.167 -65.333 -93.5 -82s-58.166 -25 -83.499 -25z" />
    <glyph glyph-name="Aogonek" unicode="&#x104;" horiz-adv-x="600" 
d="M446 -211c-30.667 0 -52.1641 6.16211 -64.4971 18.4951s-18.5 27.5 -18.5 45.5c0 13.333 3 27.333 9 42s13.833 28.834 23.5 42.501s20.834 26.334 33.501 38.001s25.667 21.5 39 29.5l2 1l-2 4c-0.666992 1.33301 -1 3 -1 5l-27 147h-274l-69 -147
c-3.33301 -5.33301 -6.5 -9.16602 -9.5 -11.499s-7.5 -3.5 -13.5 -3.5h-71c-6.66699 0 -10.5 1.83301 -11.5 5.5s-0.833008 8.16699 0.5 13.5l311 643c7.33301 16 14.5 26.5 21.5 31.5s18.167 7.83301 33.5 8.5h28c17.333 0 28.666 -2.83301 33.999 -8.5
s9.66602 -16.167 12.999 -31.5l128 -643c1.33301 -4.66699 1 -9 -1 -13s-6 -6 -12 -6h-34c-25.333 -23.333 -45 -47 -59 -71s-21 -44 -21 -60c0 -10.667 3.66699 -18 11 -22s18 -6 32 -6c5.33301 0 13.166 0.833008 23.499 2.5s20.166 3.83398 29.499 6.50098
c4 1.33301 6.83301 1.83301 8.5 1.5s3.16699 -2.83301 4.5 -7.5l4 -19c1.33301 -4.66699 1 -8.16699 -1 -10.5s-4.33301 -4.16602 -7 -5.49902c-9.33301 -4 -22.833 -8.33301 -40.5 -13s-35.167 -7 -52.5 -7zM390.003 450.995l-25 146h-5l-64 -141l-96 -213h225z" />
    <glyph glyph-name="aogonek" unicode="&#x105;" horiz-adv-x="543" 
d="M378 -186c-30.667 0 -52.165 6.16602 -64.498 18.499s-18.5 27.5 -18.5 45.5c0 19.333 6 39.833 18 61.5s27 41.167 45 58.5c-20 -3.33301 -39.833 -5.66602 -59.5 -6.99902s-37.5 -2 -53.5 -2c-36 0 -66.5 5 -91.5 15s-45.167 23.667 -60.5 41
s-26.333 37.666 -33 60.999s-10 48.333 -10 75c0 50 5.16699 96.5 15.5 139.5s26.5 80.5 48.5 112.5s50.333 57.167 85 75.5s76.667 27.5 126 27.5c22 0 48.5 -1.33301 79.5 -4s64.167 -8.66699 99.5 -18c10.667 -3.33301 16.667 -7.5 18 -12.5s1.33301 -11.167 0 -18.5
l-32 -224c-10 -71.333 -19.667 -144.333 -29 -219c-0.666992 -8.66699 -6 -15.334 -16 -20.001l-8 -3c-22.667 -22.667 -40.167 -45 -52.5 -67s-18.5 -40.667 -18.5 -56c0 -10.667 3.66699 -18 11 -22s18 -6 32 -6c5.33301 0 13.166 0.833008 23.499 2.5
s20.166 3.83398 29.499 6.50098c4 1.33301 6.83301 1.83301 8.5 1.5s3.16699 -2.83301 4.5 -7.5l4 -19c1.33301 -4.66699 1 -8.16699 -1 -10.5s-4.33301 -4.16602 -7 -5.49902c-9.33301 -4 -22.833 -8.33301 -40.5 -13s-35.167 -7 -52.5 -7zM270.002 63.999
c7.33301 0 15.8311 0.333008 25.498 1s19.5 1.66699 29.5 3s19.833 3 29.5 5s18.5 4.66699 26.5 8c8 64 16.167 125.667 24.5 185l26.5 181c-16.667 5.33301 -35.167 9 -55.5 11s-38.166 3 -53.499 3c-24 0 -47.167 -4.5 -69.5 -13.5s-42.166 -24 -59.499 -45
s-31.333 -48.833 -42 -83.5s-16 -78 -16 -130c0 -40.667 10.167 -71.667 30.5 -93s54.833 -32 103.5 -32z" />
    <glyph glyph-name="Cacute" unicode="&#x106;" horiz-adv-x="580" 
d="M404 710c12 0 25.5029 -0.501953 40.5029 -1.50195s30.667 -3 47 -6s32.833 -7.16699 49.5 -12.5s32.667 -12.333 48 -21c3.33301 -2 5.16602 -4.5 5.49902 -7.5s-1.16699 -8.16699 -4.5 -15.5l-18 -43c-4 -9.33301 -10.333 -11.666 -19 -6.99902
c-22.667 11.333 -47.334 19.166 -74.001 23.499s-50.334 6.5 -71.001 6.5c-47.333 0 -86.833 -10.333 -118.5 -31s-57 -47.834 -76 -81.501s-32.333 -71.667 -40 -114s-11.5 -85.166 -11.5 -128.499c0 -29.333 2.66699 -56.166 8 -80.499s14.666 -45.166 27.999 -62.499
s31.333 -31 54 -41s51.334 -15 86.001 -15c28.667 0 57.334 3.83301 86.001 11.5s55 16.834 79 27.501c7.33301 3.33301 12.166 3.83301 14.499 1.5s4.5 -5.5 6.5 -9.5l21 -42c3.33301 -7.33301 4 -12.833 2 -16.5s-5.33301 -6.83398 -10 -9.50098
c-36.667 -18 -74.667 -30.167 -114 -36.5s-75 -9.5 -107 -9.5c-83.333 0 -145.333 23.167 -186 69.5s-61 117.166 -61 212.499c0 68.667 8.16699 130.334 24.5 185.001s39.333 100.667 69 138s65 66 106 86s86.167 30 135.5 30zM337.003 775.998
c-2 4 -3.00195 7.33301 -3.00195 10s2.66699 5.66699 8 9l152 101c3.33301 2 6.66602 3.5 9.99902 4.5s6.33301 -0.833008 9 -5.5l32 -57c4.66699 -7.33301 3.33398 -12.666 -3.99902 -15.999l-175 -78c-5.33301 -2 -9.16602 -2.33301 -11.499 -1
s-4.16602 3.66602 -5.49902 6.99902z" />
    <glyph glyph-name="cacute" unicode="&#x107;" horiz-adv-x="464" 
d="M302 458c-30 0 -55.5 -7.49902 -76.5 -22.499s-38.167 -34.667 -51.5 -59s-23 -51.833 -29 -82.5s-9 -61.667 -9 -93c0 -20 2.16699 -38.333 6.5 -55s11.333 -31 21 -43s22.334 -21.333 38.001 -28s35.167 -10 58.5 -10c22 0 44.333 2.83301 67 8.5
s41.334 11.5 56.001 17.5c6.66699 3.33301 10.834 4.16602 12.501 2.49902s3.5 -4.16699 5.5 -7.5l19 -42c4 -8.66699 1.33301 -15.667 -8 -21c-26.667 -14 -54.5 -23.167 -83.5 -27.5s-55.5 -6.5 -79.5 -6.5c-62.667 0 -111.167 17.167 -145.5 51.5
s-51.5 86.833 -51.5 157.5c0 50 5.66699 95.667 17 137s27.666 77 48.999 107s47.166 53.167 77.499 69.5s64.833 24.5 103.5 24.5c26 0 53.167 -2.66699 81.5 -8s52.5 -14.333 72.5 -27c6.66699 -4 7.66699 -11 3 -21l-18 -41c-4 -9.33301 -10.667 -11.333 -20 -6
c-14.667 7.33301 -32.334 13.333 -53.001 18s-41.667 7 -63 7zM274 595.001c-8 2.66699 -9.33105 8.33496 -3.99805 17.002l86 154c2 3.33301 4.5 6.16602 7.5 8.49902s7.16699 2.83301 12.5 1.5l64 -18c5.33301 -1.33301 8.16602 -3.5 8.49902 -6.5
s-0.833984 -6.16699 -3.50098 -9.5l-125 -150c-4 -5.33301 -7.5 -8.33301 -10.5 -9s-6.5 -0.333984 -10.5 0.999023z" />
    </font>
</defs>
</svg>
